{"glyphs":{"0":{"ha":840,"x_min":87,"x_max":753,"o":"m 420 -12 q 173 111 260 -12 q 87 514 87 235 q 173 917 87 793 q 420 1040 258 1040 q 667 917 581 1040 q 753 514 753 793 q 666 111 753 235 q 420 -12 580 -12 m 420 44 q 565 88 506 44 q 656 234 624 131 q 689 511 689 337 q 656 792 689 688 q 565 940 624 897 q 420 983 506 983 q 275 940 334 983 q 183 794 216 897 q 151 517 151 691 q 183 235 151 340 q 275 88 216 131 q 420 44 334 44 z "},"1":{"ha":476,"x_min":16,"x_max":340,"o":"m 302 1031 l 340 1031 l 340 0 l 278 0 l 278 946 l 16 755 l 16 821 l 302 1031 z "},"2":{"ha":658,"x_min":33,"x_max":610,"o":"m 610 56 l 610 0 l 46 0 l 46 35 l 344 444 q 456 626 423 550 q 489 774 489 701 q 431 934 489 884 q 255 983 373 983 q 33 943 137 983 l 33 1001 q 136 1030 78 1019 q 257 1040 195 1040 q 475 976 399 1040 q 551 781 551 913 q 536 669 551 722 q 487 553 522 615 q 392 410 453 492 l 131 56 l 610 56 z "},"3":{"ha":679,"x_min":39,"x_max":626,"o":"m 397 535 q 568 445 509 513 q 626 274 626 378 q 537 62 626 137 q 278 -12 448 -12 q 155 -2 217 -12 q 39 28 94 8 l 39 85 q 278 43 159 43 q 492 102 419 43 q 565 275 565 161 q 495 442 565 383 q 287 500 426 500 l 176 500 l 176 556 l 221 556 q 451 615 372 556 q 531 785 531 674 q 468 933 531 882 q 288 985 406 985 q 66 946 171 985 l 66 1003 q 172 1031 114 1021 q 290 1040 231 1040 q 514 974 435 1040 q 592 786 592 908 q 541 630 592 694 q 397 535 490 565 z "},"4":{"ha":792,"x_min":37,"x_max":760,"o":"m 760 317 l 760 263 l 609 263 l 609 0 l 549 0 l 549 263 l 37 263 l 37 298 l 453 1028 l 519 1028 l 113 317 l 549 317 l 560 681 l 609 681 l 609 317 l 760 317 z "},"5":{"ha":686,"x_min":57,"x_max":644,"o":"m 244 578 q 473 535 384 570 q 603 439 561 501 q 644 283 644 376 q 556 63 644 139 q 297 -12 467 -12 q 173 -2 235 -12 q 57 28 110 9 l 57 85 q 177 54 115 65 q 297 43 238 43 q 583 282 583 43 q 547 410 583 360 q 434 488 512 460 q 226 523 356 515 l 98 531 l 132 1028 l 601 1028 l 601 973 l 189 973 l 161 583 l 244 578 z "},"6":{"ha":768,"x_min":94,"x_max":724,"o":"m 412 578 q 576 545 506 578 q 685 447 647 513 q 724 283 724 381 q 686 120 724 187 q 583 20 649 53 q 433 -12 517 -12 q 183 103 272 -12 q 94 481 94 219 q 197 905 94 769 q 501 1040 300 1040 q 679 1010 607 1040 l 679 953 q 594 976 641 969 q 502 984 548 984 q 243 867 329 984 q 157 494 157 750 q 272 556 203 533 q 412 578 340 578 m 433 42 q 600 102 537 42 q 663 281 663 161 q 595 464 663 404 q 406 524 527 524 q 272 500 340 524 q 158 431 204 477 q 235 132 165 222 q 433 42 306 42 z "},"7":{"ha":626,"x_min":8,"x_max":585,"o":"m 8 1028 l 585 1028 l 585 992 l 188 0 l 124 0 l 515 972 l 8 972 l 8 1028 z "},"8":{"ha":840,"x_min":75,"x_max":765,"o":"m 544 514 q 713 412 661 474 q 765 257 765 351 q 725 114 765 175 q 609 20 685 53 q 427 -12 533 -12 q 166 58 257 -12 q 75 258 75 128 q 128 428 75 356 q 277 537 181 500 q 150 636 190 577 q 110 781 110 696 q 147 918 110 860 q 253 1009 183 977 q 417 1040 322 1040 q 584 1009 514 1040 q 692 919 654 978 q 729 782 729 861 q 682 623 729 690 q 544 514 634 555 m 173 783 q 198 674 173 719 q 283 598 224 630 q 446 542 342 566 q 478 534 471 535 q 625 634 579 576 q 670 779 670 691 q 603 932 670 879 q 417 985 537 985 q 236 932 299 985 q 173 783 173 878 m 428 42 q 631 97 560 42 q 702 253 702 151 q 676 359 702 317 q 591 432 650 402 q 431 487 533 463 q 337 513 372 501 q 189 416 241 482 q 137 262 137 350 q 211 99 137 155 q 428 42 285 42 z "},"9":{"ha":768,"x_min":44,"x_max":674,"o":"m 335 1040 q 585 924 497 1040 q 674 547 674 808 q 571 123 674 259 q 267 -12 468 -12 q 89 17 161 -12 l 89 75 q 174 51 127 59 q 266 44 220 44 q 525 161 439 44 q 611 534 611 278 q 497 472 565 494 q 356 449 428 449 q 192 482 262 449 q 83 581 122 515 q 44 744 44 647 q 82 908 44 841 q 185 1007 119 974 q 335 1040 251 1040 m 105 747 q 173 564 105 624 q 362 504 241 504 q 496 527 428 504 q 610 597 564 551 q 533 896 603 806 q 335 985 462 985 q 168 926 231 985 q 105 747 105 867 z "},"\u0000":{"ha":0,"x_min":0,"x_max":0,"o":""},"\r":{"ha":335,"x_min":0,"x_max":0,"o":""}," ":{"ha":335,"x_min":0,"x_max":0,"o":""},"A":{"ha":902,"x_min":24,"x_max":878,"o":"m 813 0 l 678 359 l 222 359 l 89 0 l 24 0 l 410 1028 l 492 1028 l 878 0 l 813 0 m 244 416 l 658 416 l 451 971 l 244 416 z "},"Á":{"ha":902,"x_min":24,"x_max":878,"o":"m 813 0 l 678 359 l 222 359 l 89 0 l 24 0 l 410 1028 l 492 1028 l 878 0 l 813 0 m 244 416 l 658 416 l 451 971 l 244 416 m 424 1121 l 546 1312 l 615 1312 l 481 1121 l 424 1121 z "},"Ă":{"ha":902,"x_min":24,"x_max":878,"o":"m 813 0 l 678 359 l 222 359 l 89 0 l 24 0 l 410 1028 l 492 1028 l 878 0 l 813 0 m 244 416 l 658 416 l 451 971 l 244 416 m 453 1129 q 309 1173 360 1129 q 251 1293 258 1217 l 299 1293 q 343 1204 307 1233 q 453 1175 378 1175 q 564 1204 528 1175 q 606 1293 599 1233 l 653 1293 q 597 1172 647 1215 q 453 1129 547 1129 z "},"Ắ":{"ha":902,"x_min":24,"x_max":878,"o":"m 813 0 l 678 359 l 222 359 l 89 0 l 24 0 l 410 1028 l 492 1028 l 878 0 l 813 0 m 244 416 l 658 416 l 451 971 l 244 416 m 427 1281 l 546 1456 l 608 1456 l 478 1281 l 427 1281 m 453 1129 q 309 1172 359 1129 q 252 1292 258 1215 l 299 1292 q 341 1203 306 1232 q 453 1174 377 1174 q 563 1203 528 1174 q 607 1292 598 1232 l 653 1292 q 595 1172 646 1215 q 453 1129 545 1129 z "},"Ặ":{"ha":902,"x_min":24,"x_max":878,"o":"m 813 0 l 678 359 l 222 359 l 89 0 l 24 0 l 410 1028 l 492 1028 l 878 0 l 813 0 m 244 416 l 658 416 l 451 971 l 244 416 m 452 -222 q 416 -208 430 -222 q 402 -174 402 -195 q 416 -138 402 -151 q 452 -124 430 -124 q 489 -138 475 -124 q 503 -174 503 -151 q 489 -208 503 -195 q 452 -222 475 -222 m 453 1129 q 309 1173 360 1129 q 251 1293 258 1217 l 299 1293 q 343 1204 307 1233 q 453 1175 378 1175 q 564 1204 528 1175 q 606 1293 599 1233 l 653 1293 q 597 1172 647 1215 q 453 1129 547 1129 z "},"Ằ":{"ha":902,"x_min":24,"x_max":878,"o":"m 813 0 l 678 359 l 222 359 l 89 0 l 24 0 l 410 1028 l 492 1028 l 878 0 l 813 0 m 244 416 l 658 416 l 451 971 l 244 416 m 427 1281 l 297 1456 l 359 1456 l 478 1281 l 427 1281 m 451 1129 q 308 1172 358 1129 q 252 1292 258 1215 l 298 1292 q 341 1203 306 1232 q 451 1174 376 1174 q 563 1203 527 1174 q 606 1292 598 1232 l 653 1292 q 595 1172 646 1215 q 451 1129 544 1129 z "},"Ẳ":{"ha":902,"x_min":24,"x_max":878,"o":"m 813 0 l 678 359 l 222 359 l 89 0 l 24 0 l 410 1028 l 492 1028 l 878 0 l 813 0 m 244 416 l 658 416 l 451 971 l 244 416 m 427 1281 q 438 1314 428 1301 q 461 1335 448 1328 q 496 1353 474 1343 q 532 1371 520 1363 q 544 1395 544 1380 q 525 1422 544 1413 q 460 1431 507 1431 q 392 1425 424 1431 q 324 1406 359 1419 l 324 1447 q 462 1471 381 1471 q 559 1451 526 1471 q 591 1397 591 1431 q 575 1356 591 1369 q 528 1328 559 1342 q 491 1307 503 1317 q 476 1281 478 1298 l 427 1281 m 451 1129 q 308 1172 358 1129 q 252 1292 258 1215 l 299 1292 q 341 1203 306 1232 q 451 1174 376 1174 q 563 1203 526 1174 q 607 1292 599 1232 l 653 1292 q 595 1172 646 1215 q 451 1129 544 1129 z "},"Ẵ":{"ha":902,"x_min":24,"x_max":878,"o":"m 813 0 l 678 359 l 222 359 l 89 0 l 24 0 l 410 1028 l 492 1028 l 878 0 l 813 0 m 244 416 l 658 416 l 451 971 l 244 416 m 546 1342 q 498 1349 521 1342 q 442 1370 475 1356 q 394 1388 413 1382 q 358 1394 376 1394 q 301 1382 327 1394 q 252 1344 276 1369 l 252 1395 q 359 1438 292 1438 q 407 1430 384 1438 q 463 1409 431 1423 q 511 1391 494 1397 q 546 1385 528 1385 q 603 1398 577 1385 q 653 1435 629 1410 l 653 1384 q 546 1342 613 1342 m 451 1129 q 308 1172 358 1129 q 252 1292 258 1215 l 299 1292 q 341 1203 306 1232 q 451 1174 376 1174 q 562 1203 526 1174 q 606 1292 598 1232 l 653 1292 q 595 1172 646 1215 q 451 1129 544 1129 z "},"Â":{"ha":902,"x_min":24,"x_max":878,"o":"m 813 0 l 678 359 l 222 359 l 89 0 l 24 0 l 410 1028 l 492 1028 l 878 0 l 813 0 m 244 416 l 658 416 l 451 971 l 244 416 m 651 1121 l 586 1121 l 452 1277 l 318 1121 l 253 1121 l 421 1312 l 484 1312 l 651 1121 z "},"Ấ":{"ha":902,"x_min":24,"x_max":878,"o":"m 813 0 l 678 359 l 222 359 l 89 0 l 24 0 l 410 1028 l 492 1028 l 878 0 l 813 0 m 244 416 l 658 416 l 451 971 l 244 416 m 722 1433 l 784 1433 l 653 1246 l 603 1246 l 722 1433 m 421 1310 l 484 1310 l 651 1121 l 586 1121 l 452 1276 l 318 1121 l 253 1121 l 421 1310 z "},"Ậ":{"ha":902,"x_min":24,"x_max":878,"o":"m 813 0 l 678 359 l 222 359 l 89 0 l 24 0 l 410 1028 l 492 1028 l 878 0 l 813 0 m 244 416 l 658 416 l 451 971 l 244 416 m 452 -222 q 416 -208 430 -222 q 402 -174 402 -195 q 416 -138 402 -151 q 452 -124 430 -124 q 489 -138 475 -124 q 503 -174 503 -151 q 489 -208 503 -195 q 452 -222 475 -222 m 651 1121 l 586 1121 l 452 1277 l 318 1121 l 253 1121 l 421 1312 l 484 1312 l 651 1121 z "},"Ầ":{"ha":902,"x_min":24,"x_max":878,"o":"m 813 0 l 678 359 l 222 359 l 89 0 l 24 0 l 410 1028 l 492 1028 l 878 0 l 813 0 m 244 416 l 658 416 l 451 971 l 244 416 m 668 1246 l 617 1246 l 487 1433 l 549 1433 l 668 1246 m 421 1310 l 484 1310 l 651 1121 l 586 1121 l 452 1276 l 318 1121 l 253 1121 l 421 1310 z "},"Ẩ":{"ha":902,"x_min":24,"x_max":878,"o":"m 813 0 l 678 359 l 222 359 l 89 0 l 24 0 l 410 1028 l 492 1028 l 878 0 l 813 0 m 244 416 l 658 416 l 451 971 l 244 416 m 638 1435 q 734 1415 702 1435 q 767 1361 767 1395 q 751 1320 767 1334 q 704 1293 735 1306 q 666 1272 678 1281 q 652 1246 654 1263 l 603 1246 q 614 1279 603 1265 q 637 1300 624 1292 q 672 1317 650 1308 q 708 1336 696 1327 q 719 1360 719 1344 q 701 1386 719 1377 q 636 1395 683 1395 q 567 1389 599 1395 q 499 1370 534 1383 l 499 1411 q 638 1435 557 1435 m 421 1310 l 484 1310 l 651 1121 l 586 1121 l 452 1276 l 318 1121 l 253 1121 l 421 1310 z "},"Ẫ":{"ha":902,"x_min":24,"x_max":878,"o":"m 813 0 l 678 359 l 222 359 l 89 0 l 24 0 l 410 1028 l 492 1028 l 878 0 l 813 0 m 244 416 l 658 416 l 451 971 l 244 416 m 545 1385 q 602 1398 576 1385 q 651 1435 628 1410 l 651 1384 q 545 1342 613 1342 q 497 1349 520 1342 q 442 1370 474 1356 q 393 1388 410 1383 q 359 1394 376 1394 q 302 1382 328 1394 q 253 1344 277 1369 l 253 1395 q 359 1438 293 1438 q 408 1430 385 1438 q 463 1409 431 1423 q 510 1391 493 1397 q 545 1385 528 1385 m 421 1310 l 484 1310 l 651 1121 l 586 1121 l 452 1276 l 318 1121 l 253 1121 l 421 1310 z "},"Ȁ":{"ha":902,"x_min":24,"x_max":878,"o":"m 813 0 l 678 359 l 222 359 l 89 0 l 24 0 l 410 1028 l 492 1028 l 878 0 l 813 0 m 244 416 l 658 416 l 451 971 l 244 416 m 321 1121 l 229 1312 l 287 1312 l 373 1121 l 321 1121 m 532 1121 l 440 1312 l 498 1312 l 584 1121 l 532 1121 z "},"Ä":{"ha":902,"x_min":24,"x_max":878,"o":"m 813 0 l 678 359 l 222 359 l 89 0 l 24 0 l 410 1028 l 492 1028 l 878 0 l 813 0 m 244 416 l 658 416 l 451 971 l 244 416 m 297 1169 q 261 1182 275 1169 q 248 1217 248 1195 q 261 1252 248 1238 q 297 1265 275 1265 q 333 1252 319 1265 q 347 1217 347 1238 q 333 1182 347 1195 q 297 1169 319 1169 m 607 1169 q 572 1182 585 1169 q 558 1217 558 1195 q 572 1252 558 1239 q 607 1265 585 1265 q 643 1252 629 1265 q 656 1217 656 1239 q 643 1182 656 1195 q 607 1169 629 1169 z "},"Ạ":{"ha":902,"x_min":24,"x_max":878,"o":"m 813 0 l 678 359 l 222 359 l 89 0 l 24 0 l 410 1028 l 492 1028 l 878 0 l 813 0 m 244 416 l 658 416 l 451 971 l 244 416 m 452 -222 q 416 -208 430 -222 q 402 -174 402 -195 q 416 -138 402 -151 q 452 -124 430 -124 q 489 -138 475 -124 q 503 -174 503 -151 q 489 -208 503 -195 q 452 -222 475 -222 z "},"À":{"ha":902,"x_min":24,"x_max":878,"o":"m 813 0 l 678 359 l 222 359 l 89 0 l 24 0 l 410 1028 l 492 1028 l 878 0 l 813 0 m 244 416 l 658 416 l 451 971 l 244 416 m 424 1121 l 290 1312 l 359 1312 l 481 1121 l 424 1121 z "},"Ả":{"ha":902,"x_min":24,"x_max":878,"o":"m 813 0 l 678 359 l 222 359 l 89 0 l 24 0 l 410 1028 l 492 1028 l 878 0 l 813 0 m 244 416 l 658 416 l 451 971 l 244 416 m 427 1121 q 438 1155 428 1141 q 461 1176 448 1168 q 496 1193 474 1183 q 532 1211 520 1203 q 544 1235 544 1220 q 525 1262 544 1253 q 460 1272 507 1272 q 392 1266 424 1272 q 324 1247 359 1260 l 324 1288 q 462 1313 381 1313 q 559 1292 526 1313 q 591 1238 591 1272 q 575 1196 591 1210 q 528 1169 559 1182 q 491 1148 503 1157 q 476 1121 478 1138 l 427 1121 z "},"Ȃ":{"ha":902,"x_min":24,"x_max":878,"o":"m 813 0 l 678 359 l 222 359 l 89 0 l 24 0 l 410 1028 l 492 1028 l 878 0 l 813 0 m 244 416 l 658 416 l 451 971 l 244 416 m 251 1140 q 308 1260 258 1217 q 451 1303 358 1303 q 596 1260 544 1303 q 653 1140 647 1216 l 606 1140 q 561 1228 597 1199 q 451 1258 526 1258 q 341 1228 376 1258 q 299 1140 306 1199 l 251 1140 z "},"Ā":{"ha":902,"x_min":24,"x_max":878,"o":"m 813 0 l 678 359 l 222 359 l 89 0 l 24 0 l 410 1028 l 492 1028 l 878 0 l 813 0 m 244 416 l 658 416 l 451 971 l 244 416 m 259 1192 l 259 1241 l 645 1241 l 645 1192 l 259 1192 z "},"Ą":{"ha":902,"x_min":24,"x_max":960,"o":"m 844 -240 q 898 -233 871 -240 q 960 -212 925 -227 l 960 -253 q 843 -280 901 -280 q 733 -249 772 -280 q 694 -160 694 -218 q 721 -72 694 -112 q 810 8 749 -31 l 678 359 l 222 359 l 89 0 l 24 0 l 410 1028 l 492 1028 l 878 0 q 771 -77 801 -40 q 740 -158 740 -114 q 766 -219 740 -198 q 844 -240 792 -240 m 244 416 l 658 416 l 451 971 l 244 416 z "},"Å":{"ha":902,"x_min":24,"x_max":878,"o":"m 678 359 l 222 359 l 89 0 l 24 0 l 403 1008 q 346 1055 367 1023 q 324 1128 324 1086 q 341 1195 324 1165 q 387 1241 358 1224 q 453 1258 417 1258 q 520 1241 490 1258 q 567 1195 550 1224 q 583 1128 583 1165 q 560 1053 583 1085 q 499 1007 538 1020 l 878 0 l 813 0 l 678 359 m 365 1128 q 390 1063 365 1088 q 453 1039 415 1039 q 517 1063 493 1039 q 542 1128 542 1088 q 517 1194 542 1169 q 453 1218 493 1218 q 390 1194 415 1218 q 365 1128 365 1169 m 244 416 l 658 416 l 451 971 l 244 416 z "},"Ǻ":{"ha":902,"x_min":24,"x_max":878,"o":"m 678 359 l 222 359 l 89 0 l 24 0 l 403 1009 q 346 1055 367 1024 q 324 1129 324 1087 q 341 1195 324 1166 q 387 1242 358 1225 q 453 1258 417 1258 q 523 1240 492 1258 l 617 1334 l 681 1334 l 556 1211 q 583 1129 583 1176 q 560 1053 583 1085 q 499 1008 538 1020 l 878 0 l 813 0 l 678 359 m 365 1129 q 390 1063 365 1088 q 453 1039 415 1039 q 517 1063 493 1039 q 542 1129 542 1088 q 517 1194 542 1170 q 453 1219 493 1219 q 390 1194 415 1219 q 365 1129 365 1170 m 244 416 l 658 416 l 451 971 l 244 416 z "},"Ã":{"ha":902,"x_min":24,"x_max":878,"o":"m 813 0 l 678 359 l 222 359 l 89 0 l 24 0 l 410 1028 l 492 1028 l 878 0 l 813 0 m 244 416 l 658 416 l 451 971 l 244 416 m 554 1174 q 501 1182 526 1174 q 442 1203 476 1189 q 391 1221 411 1215 q 351 1227 372 1227 q 290 1215 316 1227 q 240 1178 264 1203 l 240 1231 q 351 1274 279 1274 q 403 1266 378 1274 q 463 1245 428 1259 q 514 1227 494 1233 q 554 1221 533 1221 q 615 1233 588 1221 q 665 1270 641 1244 l 665 1217 q 554 1174 625 1174 z "},"Æ":{"ha":1233,"x_min":24,"x_max":1183,"o":"m 699 57 l 1183 57 l 1183 0 l 641 0 l 617 359 l 226 359 l 89 0 l 24 0 l 418 1028 l 1176 1028 l 1176 971 l 638 971 l 665 556 l 1110 556 l 1110 500 l 669 500 l 699 57 m 247 416 l 614 416 l 578 971 l 458 971 l 247 416 z "},"Ǽ":{"ha":1233,"x_min":24,"x_max":1183,"o":"m 699 57 l 1183 57 l 1183 0 l 641 0 l 617 359 l 226 359 l 89 0 l 24 0 l 418 1028 l 1176 1028 l 1176 971 l 638 971 l 665 556 l 1110 556 l 1110 500 l 669 500 l 699 57 m 247 416 l 614 416 l 578 971 l 458 971 l 247 416 m 578 1121 l 700 1312 l 769 1312 l 635 1121 l 578 1121 z "},"B":{"ha":851,"x_min":128,"x_max":794,"o":"m 576 531 q 740 445 686 512 q 794 276 794 378 q 751 119 794 181 q 613 24 708 56 q 366 -8 518 -8 q 128 7 250 -8 l 128 1013 q 252 1032 190 1026 q 390 1038 314 1038 q 675 972 585 1038 q 765 769 765 906 q 719 616 765 679 q 576 531 674 553 m 392 983 q 190 967 277 983 l 190 556 l 416 556 q 636 608 568 556 q 703 769 703 660 q 672 892 703 846 q 573 961 641 939 q 392 983 505 983 m 372 48 q 585 73 506 48 q 699 147 665 97 q 733 276 733 197 q 660 445 733 391 q 435 500 588 500 l 190 500 l 190 59 q 372 48 267 48 z "},"C":{"ha":772,"x_min":80,"x_max":747,"o":"m 513 -12 q 193 110 307 -12 q 80 513 80 233 q 194 914 80 788 q 524 1040 309 1040 q 747 1008 636 1040 l 747 950 q 522 983 640 983 q 316 938 399 983 q 189 788 233 892 q 145 515 145 685 q 190 236 145 340 q 315 89 234 133 q 515 44 397 44 q 629 54 575 44 q 747 85 683 63 l 747 27 q 513 -12 635 -12 z "},"Ć":{"ha":772,"x_min":80,"x_max":747,"o":"m 513 -12 q 193 110 307 -12 q 80 513 80 233 q 194 914 80 788 q 524 1040 309 1040 q 747 1008 636 1040 l 747 950 q 522 983 640 983 q 316 938 399 983 q 189 788 233 892 q 145 515 145 685 q 190 236 145 340 q 315 89 234 133 q 515 44 397 44 q 629 54 575 44 q 747 85 683 63 l 747 27 q 513 -12 635 -12 m 444 1121 l 566 1312 l 635 1312 l 501 1121 l 444 1121 z "},"Č":{"ha":772,"x_min":80,"x_max":747,"o":"m 513 -12 q 193 110 307 -12 q 80 513 80 233 q 194 914 80 788 q 524 1040 309 1040 q 747 1008 636 1040 l 747 950 q 522 983 640 983 q 316 938 399 983 q 189 788 233 892 q 145 515 145 685 q 190 236 145 340 q 315 89 234 133 q 515 44 397 44 q 629 54 575 44 q 747 85 683 63 l 747 27 q 513 -12 635 -12 m 606 1312 l 672 1312 l 504 1121 l 441 1121 l 273 1312 l 338 1312 l 472 1156 l 606 1312 z "},"Ç":{"ha":772,"x_min":80,"x_max":747,"o":"m 522 983 q 316 938 399 983 q 189 788 233 892 q 145 515 145 685 q 190 236 145 340 q 315 89 234 133 q 515 44 397 44 q 629 54 575 44 q 747 85 683 63 l 747 27 q 513 -12 635 -12 l 503 -12 l 503 -76 q 593 -105 560 -79 q 625 -178 625 -131 q 589 -254 625 -228 q 488 -280 552 -280 q 420 -273 454 -280 q 358 -253 386 -267 l 358 -211 q 425 -234 394 -227 q 488 -240 456 -240 q 556 -225 532 -240 q 580 -177 580 -209 q 486 -115 580 -115 l 459 -115 l 459 -10 q 179 128 278 4 q 80 513 80 251 q 194 914 80 788 q 524 1040 309 1040 q 747 1008 636 1040 l 747 950 q 522 983 640 983 z "},"Ḉ":{"ha":772,"x_min":80,"x_max":747,"o":"m 635 1312 l 501 1121 l 444 1121 l 566 1312 l 635 1312 m 522 983 q 316 938 399 983 q 189 788 233 892 q 145 515 145 685 q 190 236 145 340 q 315 89 234 133 q 515 44 397 44 q 629 54 575 44 q 747 85 683 63 l 747 27 q 513 -12 635 -12 l 503 -12 l 503 -76 q 593 -105 560 -79 q 625 -178 625 -131 q 589 -254 625 -228 q 488 -280 552 -280 q 420 -273 454 -280 q 358 -253 386 -267 l 358 -211 q 425 -234 394 -227 q 488 -240 456 -240 q 556 -225 532 -240 q 580 -177 580 -209 q 486 -115 580 -115 l 459 -115 l 459 -10 q 179 128 278 4 q 80 513 80 251 q 194 914 80 788 q 524 1040 309 1040 q 747 1008 636 1040 l 747 950 q 522 983 640 983 z "},"Ĉ":{"ha":772,"x_min":80,"x_max":747,"o":"m 513 -12 q 193 110 307 -12 q 80 513 80 233 q 194 914 80 788 q 524 1040 309 1040 q 747 1008 636 1040 l 747 950 q 522 983 640 983 q 316 938 399 983 q 189 788 233 892 q 145 515 145 685 q 190 236 145 340 q 315 89 234 133 q 515 44 397 44 q 629 54 575 44 q 747 85 683 63 l 747 27 q 513 -12 635 -12 m 672 1121 l 606 1121 l 472 1277 l 338 1121 l 273 1121 l 441 1312 l 504 1312 l 672 1121 z "},"Ċ":{"ha":772,"x_min":80,"x_max":747,"o":"m 513 -12 q 193 110 307 -12 q 80 513 80 233 q 194 914 80 788 q 524 1040 309 1040 q 747 1008 636 1040 l 747 950 q 522 983 640 983 q 316 938 399 983 q 189 788 233 892 q 145 515 145 685 q 190 236 145 340 q 315 89 234 133 q 515 44 397 44 q 629 54 575 44 q 747 85 683 63 l 747 27 q 513 -12 635 -12 m 472 1169 q 436 1182 450 1169 q 422 1217 422 1195 q 436 1252 422 1238 q 472 1265 450 1265 q 509 1252 495 1265 q 523 1217 523 1239 q 509 1182 523 1195 q 472 1169 495 1169 z "},"D":{"ha":941,"x_min":128,"x_max":861,"o":"m 355 -7 q 247 -4 298 -7 q 128 7 195 -1 l 128 1014 q 372 1038 250 1038 q 738 908 615 1038 q 861 514 861 778 q 735 120 861 247 q 355 -7 608 -7 m 360 49 q 604 98 508 49 q 748 249 700 146 q 797 514 797 351 q 692 868 797 755 q 369 981 587 981 q 190 966 285 981 l 190 60 q 360 49 265 49 z "},"Ǳ":{"ha":1681,"x_min":128,"x_max":1637,"o":"m 355 -7 q 247 -4 298 -7 q 128 7 195 -1 l 128 1014 q 372 1038 250 1038 q 738 908 615 1038 q 861 514 861 778 q 735 120 861 247 q 355 -7 608 -7 m 360 49 q 604 98 508 49 q 748 249 700 146 q 797 514 797 351 q 692 868 797 755 q 369 981 587 981 q 190 966 285 981 l 190 60 q 360 49 265 49 m 1034 56 l 1637 56 l 1637 0 l 951 0 l 951 35 l 1545 972 l 958 972 l 958 1028 l 1628 1028 l 1628 992 l 1034 56 z "},"Ǆ":{"ha":1681,"x_min":128,"x_max":1637,"o":"m 355 -7 q 247 -4 298 -7 q 128 7 195 -1 l 128 1014 q 372 1038 250 1038 q 738 908 615 1038 q 861 514 861 778 q 735 120 861 247 q 355 -7 608 -7 m 360 49 q 604 98 508 49 q 748 249 700 146 q 797 514 797 351 q 692 868 797 755 q 369 981 587 981 q 190 966 285 981 l 190 60 q 360 49 265 49 m 1034 56 l 1637 56 l 1637 0 l 951 0 l 951 35 l 1545 972 l 958 972 l 958 1028 l 1628 1028 l 1628 992 l 1034 56 m 1428 1312 l 1493 1312 l 1326 1121 l 1263 1121 l 1094 1312 l 1160 1312 l 1294 1156 l 1428 1312 z "},"Ð":{"ha":941,"x_min":1,"x_max":861,"o":"m 372 1038 q 738 908 615 1038 q 861 514 861 778 q 735 120 861 247 q 355 -7 608 -7 q 247 -4 298 -7 q 128 7 195 -1 l 128 504 l 1 504 l 1 554 l 128 554 l 128 1014 q 372 1038 250 1038 m 360 49 q 604 98 508 49 q 748 249 700 146 q 797 514 797 351 q 692 868 797 755 q 369 981 587 981 q 190 966 285 981 l 190 554 l 438 554 l 438 504 l 190 504 l 190 60 q 360 49 265 49 z "},"Ď":{"ha":941,"x_min":128,"x_max":861,"o":"m 355 -7 q 247 -4 298 -7 q 128 7 195 -1 l 128 1014 q 372 1038 250 1038 q 738 908 615 1038 q 861 514 861 778 q 735 120 861 247 q 355 -7 608 -7 m 360 49 q 604 98 508 49 q 748 249 700 146 q 797 514 797 351 q 692 868 797 755 q 369 981 587 981 q 190 966 285 981 l 190 60 q 360 49 265 49 m 562 1312 l 627 1312 l 460 1121 l 397 1121 l 228 1312 l 294 1312 l 428 1156 l 562 1312 z "},"Đ":{"ha":941,"x_min":1,"x_max":861,"o":"m 372 1038 q 738 908 615 1038 q 861 514 861 778 q 735 120 861 247 q 355 -7 608 -7 q 247 -4 298 -7 q 128 7 195 -1 l 128 504 l 1 504 l 1 554 l 128 554 l 128 1014 q 372 1038 250 1038 m 360 49 q 604 98 508 49 q 748 249 700 146 q 797 514 797 351 q 692 868 797 755 q 369 981 587 981 q 190 966 285 981 l 190 554 l 438 554 l 438 504 l 190 504 l 190 60 q 360 49 265 49 z "},"Ḍ":{"ha":941,"x_min":128,"x_max":861,"o":"m 355 -7 q 247 -4 298 -7 q 128 7 195 -1 l 128 1014 q 372 1038 250 1038 q 738 908 615 1038 q 861 514 861 778 q 735 120 861 247 q 355 -7 608 -7 m 360 49 q 604 98 508 49 q 748 249 700 146 q 797 514 797 351 q 692 868 797 755 q 369 981 587 981 q 190 966 285 981 l 190 60 q 360 49 265 49 m 428 -222 q 392 -208 406 -222 q 378 -174 378 -195 q 392 -138 378 -151 q 428 -124 406 -124 q 465 -138 451 -124 q 479 -174 479 -151 q 465 -208 479 -195 q 428 -222 451 -222 z "},"Ḏ":{"ha":941,"x_min":128,"x_max":861,"o":"m 355 -7 q 247 -4 298 -7 q 128 7 195 -1 l 128 1014 q 372 1038 250 1038 q 738 908 615 1038 q 861 514 861 778 q 735 120 861 247 q 355 -7 608 -7 m 360 49 q 604 98 508 49 q 748 249 700 146 q 797 514 797 351 q 692 868 797 755 q 369 981 587 981 q 190 966 285 981 l 190 60 q 360 49 265 49 m 235 -198 l 235 -149 l 622 -149 l 622 -198 l 235 -198 z "},"ǲ":{"ha":1549,"x_min":128,"x_max":1510,"o":"m 355 -7 q 247 -4 298 -7 q 128 7 195 -1 l 128 1014 q 372 1038 250 1038 q 738 908 615 1038 q 861 514 861 778 q 735 120 861 247 q 355 -7 608 -7 m 360 49 q 604 98 508 49 q 748 249 700 146 q 797 514 797 351 q 692 868 797 755 q 369 981 587 981 q 190 966 285 981 l 190 60 q 360 49 265 49 m 1065 55 l 1510 55 l 1510 0 l 983 0 l 983 37 l 1421 696 l 992 696 l 992 751 l 1502 751 l 1502 714 l 1065 55 z "},"ǅ":{"ha":1549,"x_min":128,"x_max":1510,"o":"m 355 -7 q 247 -4 298 -7 q 128 7 195 -1 l 128 1014 q 372 1038 250 1038 q 738 908 615 1038 q 861 514 861 778 q 735 120 861 247 q 355 -7 608 -7 m 360 49 q 604 98 508 49 q 748 249 700 146 q 797 514 797 351 q 692 868 797 755 q 369 981 587 981 q 190 966 285 981 l 190 60 q 360 49 265 49 m 1065 55 l 1510 55 l 1510 0 l 983 0 l 983 37 l 1421 696 l 992 696 l 992 751 l 1502 751 l 1502 714 l 1065 55 m 1381 1090 l 1447 1090 l 1279 899 l 1216 899 l 1048 1090 l 1113 1090 l 1247 933 l 1381 1090 z "},"E":{"ha":782,"x_min":128,"x_max":733,"o":"m 190 57 l 733 57 l 733 0 l 128 0 l 128 1028 l 726 1028 l 726 971 l 190 971 l 190 556 l 659 556 l 659 500 l 190 500 l 190 57 z "},"É":{"ha":782,"x_min":128,"x_max":733,"o":"m 190 57 l 733 57 l 733 0 l 128 0 l 128 1028 l 726 1028 l 726 971 l 190 971 l 190 556 l 659 556 l 659 500 l 190 500 l 190 57 m 414 1121 l 536 1312 l 605 1312 l 471 1121 l 414 1121 z "},"Ĕ":{"ha":782,"x_min":128,"x_max":733,"o":"m 190 57 l 733 57 l 733 0 l 128 0 l 128 1028 l 726 1028 l 726 971 l 190 971 l 190 556 l 659 556 l 659 500 l 190 500 l 190 57 m 444 1129 q 299 1173 351 1129 q 241 1293 248 1217 l 289 1293 q 333 1204 297 1233 q 444 1175 369 1175 q 554 1204 519 1175 q 596 1293 589 1233 l 644 1293 q 588 1172 638 1215 q 444 1129 538 1129 z "},"Ě":{"ha":782,"x_min":128,"x_max":733,"o":"m 190 57 l 733 57 l 733 0 l 128 0 l 128 1028 l 726 1028 l 726 971 l 190 971 l 190 556 l 659 556 l 659 500 l 190 500 l 190 57 m 576 1312 l 642 1312 l 474 1121 l 411 1121 l 243 1312 l 308 1312 l 442 1156 l 576 1312 z "},"Ḝ":{"ha":782,"x_min":128,"x_max":733,"o":"m 444 1129 q 299 1173 351 1129 q 241 1293 248 1217 l 289 1293 q 333 1204 297 1233 q 444 1175 369 1175 q 554 1204 519 1175 q 596 1293 589 1233 l 644 1293 q 588 1172 638 1215 q 444 1129 538 1129 m 465 0 l 465 -76 q 555 -105 522 -79 q 587 -178 587 -131 q 550 -254 587 -228 q 450 -280 514 -280 q 382 -273 416 -280 q 319 -253 348 -267 l 319 -211 q 387 -234 356 -227 q 449 -240 418 -240 q 518 -225 494 -240 q 542 -177 542 -209 q 448 -115 542 -115 l 421 -115 l 421 0 l 128 0 l 128 1028 l 726 1028 l 726 971 l 190 971 l 190 556 l 659 556 l 659 500 l 190 500 l 190 57 l 733 57 l 733 0 l 465 0 z "},"Ê":{"ha":782,"x_min":128,"x_max":733,"o":"m 190 57 l 733 57 l 733 0 l 128 0 l 128 1028 l 726 1028 l 726 971 l 190 971 l 190 556 l 659 556 l 659 500 l 190 500 l 190 57 m 642 1121 l 576 1121 l 442 1277 l 308 1121 l 243 1121 l 411 1312 l 474 1312 l 642 1121 z "},"Ế":{"ha":782,"x_min":128,"x_max":774,"o":"m 190 57 l 733 57 l 733 0 l 128 0 l 128 1028 l 726 1028 l 726 971 l 190 971 l 190 556 l 659 556 l 659 500 l 190 500 l 190 57 m 712 1433 l 774 1433 l 644 1246 l 593 1246 l 712 1433 m 411 1310 l 474 1310 l 642 1121 l 576 1121 l 442 1276 l 308 1121 l 243 1121 l 411 1310 z "},"Ệ":{"ha":782,"x_min":128,"x_max":733,"o":"m 190 57 l 733 57 l 733 0 l 128 0 l 128 1028 l 726 1028 l 726 971 l 190 971 l 190 556 l 659 556 l 659 500 l 190 500 l 190 57 m 444 -222 q 408 -208 422 -222 q 394 -174 394 -195 q 408 -138 394 -151 q 444 -124 422 -124 q 481 -138 467 -124 q 494 -174 494 -151 q 481 -208 494 -195 q 444 -222 467 -222 m 642 1121 l 576 1121 l 442 1277 l 308 1121 l 243 1121 l 411 1312 l 474 1312 l 642 1121 z "},"Ề":{"ha":782,"x_min":128,"x_max":733,"o":"m 190 57 l 733 57 l 733 0 l 128 0 l 128 1028 l 726 1028 l 726 971 l 190 971 l 190 556 l 659 556 l 659 500 l 190 500 l 190 57 m 658 1246 l 608 1246 l 477 1433 l 540 1433 l 658 1246 m 411 1310 l 474 1310 l 642 1121 l 576 1121 l 442 1276 l 308 1121 l 243 1121 l 411 1310 z "},"Ể":{"ha":782,"x_min":128,"x_max":757,"o":"m 190 57 l 733 57 l 733 0 l 128 0 l 128 1028 l 726 1028 l 726 971 l 190 971 l 190 556 l 659 556 l 659 500 l 190 500 l 190 57 m 628 1435 q 725 1415 692 1435 q 757 1361 757 1395 q 741 1320 757 1334 q 694 1293 725 1306 q 657 1272 669 1281 q 642 1246 644 1263 l 593 1246 q 604 1279 594 1265 q 627 1300 614 1292 q 662 1317 640 1308 q 698 1336 686 1327 q 710 1360 710 1344 q 691 1386 710 1377 q 626 1395 673 1395 q 557 1389 590 1395 q 490 1370 524 1383 l 490 1411 q 628 1435 547 1435 m 411 1310 l 474 1310 l 642 1121 l 576 1121 l 442 1276 l 308 1121 l 243 1121 l 411 1310 z "},"Ễ":{"ha":782,"x_min":128,"x_max":733,"o":"m 190 57 l 733 57 l 733 0 l 128 0 l 128 1028 l 726 1028 l 726 971 l 190 971 l 190 556 l 659 556 l 659 500 l 190 500 l 190 57 m 535 1385 q 592 1398 567 1385 q 642 1435 618 1410 l 642 1384 q 535 1342 603 1342 q 487 1349 510 1342 q 432 1370 464 1356 q 384 1388 401 1383 q 349 1394 367 1394 q 293 1382 318 1394 q 243 1344 267 1369 l 243 1395 q 349 1438 283 1438 q 398 1430 375 1438 q 453 1409 422 1423 q 501 1391 483 1397 q 535 1385 518 1385 m 411 1310 l 474 1310 l 642 1121 l 576 1121 l 442 1276 l 308 1121 l 243 1121 l 411 1310 z "},"Ȅ":{"ha":782,"x_min":128,"x_max":733,"o":"m 190 57 l 733 57 l 733 0 l 128 0 l 128 1028 l 726 1028 l 726 971 l 190 971 l 190 556 l 659 556 l 659 500 l 190 500 l 190 57 m 311 1121 l 219 1312 l 277 1312 l 363 1121 l 311 1121 m 522 1121 l 431 1312 l 488 1312 l 574 1121 l 522 1121 z "},"Ë":{"ha":782,"x_min":128,"x_max":733,"o":"m 190 57 l 733 57 l 733 0 l 128 0 l 128 1028 l 726 1028 l 726 971 l 190 971 l 190 556 l 659 556 l 659 500 l 190 500 l 190 57 m 288 1169 q 252 1182 265 1169 q 238 1217 238 1195 q 252 1252 238 1238 q 288 1265 265 1265 q 323 1252 310 1265 q 337 1217 337 1238 q 323 1182 337 1195 q 288 1169 310 1169 m 597 1169 q 562 1182 575 1169 q 549 1217 549 1195 q 562 1252 549 1239 q 597 1265 575 1265 q 633 1252 619 1265 q 647 1217 647 1239 q 633 1182 647 1195 q 597 1169 619 1169 z "},"Ė":{"ha":782,"x_min":128,"x_max":733,"o":"m 190 57 l 733 57 l 733 0 l 128 0 l 128 1028 l 726 1028 l 726 971 l 190 971 l 190 556 l 659 556 l 659 500 l 190 500 l 190 57 m 442 1169 q 406 1182 420 1169 q 392 1217 392 1195 q 406 1252 392 1238 q 442 1265 420 1265 q 479 1252 465 1265 q 493 1217 493 1239 q 479 1182 493 1195 q 442 1169 465 1169 z "},"Ẹ":{"ha":782,"x_min":128,"x_max":733,"o":"m 190 57 l 733 57 l 733 0 l 128 0 l 128 1028 l 726 1028 l 726 971 l 190 971 l 190 556 l 659 556 l 659 500 l 190 500 l 190 57 m 444 -222 q 408 -208 422 -222 q 394 -174 394 -195 q 408 -138 394 -151 q 444 -124 422 -124 q 481 -138 467 -124 q 494 -174 494 -151 q 481 -208 494 -195 q 444 -222 467 -222 z "},"È":{"ha":782,"x_min":128,"x_max":733,"o":"m 190 57 l 733 57 l 733 0 l 128 0 l 128 1028 l 726 1028 l 726 971 l 190 971 l 190 556 l 659 556 l 659 500 l 190 500 l 190 57 m 414 1121 l 280 1312 l 349 1312 l 471 1121 l 414 1121 z "},"Ẻ":{"ha":782,"x_min":128,"x_max":733,"o":"m 190 57 l 733 57 l 733 0 l 128 0 l 128 1028 l 726 1028 l 726 971 l 190 971 l 190 556 l 659 556 l 659 500 l 190 500 l 190 57 m 417 1121 q 428 1155 418 1141 q 451 1176 438 1168 q 486 1193 465 1183 q 522 1211 510 1203 q 534 1235 534 1220 q 516 1262 534 1253 q 451 1272 497 1272 q 382 1266 415 1272 q 315 1247 349 1260 l 315 1288 q 452 1313 371 1313 q 549 1292 517 1313 q 581 1238 581 1272 q 565 1196 581 1210 q 519 1169 549 1182 q 481 1148 493 1157 q 467 1121 469 1138 l 417 1121 z "},"Ȇ":{"ha":782,"x_min":128,"x_max":733,"o":"m 190 57 l 733 57 l 733 0 l 128 0 l 128 1028 l 726 1028 l 726 971 l 190 971 l 190 556 l 659 556 l 659 500 l 190 500 l 190 57 m 241 1140 q 298 1260 248 1217 q 441 1303 348 1303 q 586 1260 535 1303 q 644 1140 638 1216 l 596 1140 q 552 1228 588 1199 q 441 1258 516 1258 q 331 1228 366 1258 q 289 1140 296 1199 l 241 1140 z "},"Ē":{"ha":782,"x_min":128,"x_max":733,"o":"m 190 57 l 733 57 l 733 0 l 128 0 l 128 1028 l 726 1028 l 726 971 l 190 971 l 190 556 l 659 556 l 659 500 l 190 500 l 190 57 m 249 1192 l 249 1241 l 635 1241 l 635 1192 l 249 1192 z "},"Ḗ":{"ha":782,"x_min":128,"x_max":733,"o":"m 190 57 l 733 57 l 733 0 l 128 0 l 128 1028 l 726 1028 l 726 971 l 190 971 l 190 556 l 659 556 l 659 500 l 190 500 l 190 57 m 413 1313 l 535 1474 l 606 1474 l 472 1313 l 413 1313 m 249 1192 l 249 1241 l 635 1241 l 635 1192 l 249 1192 z "},"Ḕ":{"ha":782,"x_min":128,"x_max":733,"o":"m 190 57 l 733 57 l 733 0 l 128 0 l 128 1028 l 726 1028 l 726 971 l 190 971 l 190 556 l 659 556 l 659 500 l 190 500 l 190 57 m 413 1313 l 279 1474 l 350 1474 l 472 1313 l 413 1313 m 249 1192 l 249 1241 l 635 1241 l 635 1192 l 249 1192 z "},"Ę":{"ha":782,"x_min":128,"x_max":759,"o":"m 642 -240 q 697 -233 669 -240 q 759 -212 724 -227 l 759 -253 q 642 -280 700 -280 q 531 -249 570 -280 q 492 -160 492 -218 q 517 -76 492 -115 q 596 0 541 -37 l 128 0 l 128 1028 l 726 1028 l 726 971 l 190 971 l 190 556 l 659 556 l 659 500 l 190 500 l 190 57 l 733 57 l 733 0 l 676 0 q 569 -77 600 -40 q 539 -158 539 -114 q 565 -219 539 -198 q 642 -240 591 -240 z "},"Ẽ":{"ha":782,"x_min":128,"x_max":733,"o":"m 190 57 l 733 57 l 733 0 l 128 0 l 128 1028 l 726 1028 l 726 971 l 190 971 l 190 556 l 659 556 l 659 500 l 190 500 l 190 57 m 544 1174 q 492 1182 517 1174 q 433 1203 467 1189 q 382 1221 401 1215 q 341 1227 362 1227 q 280 1215 306 1227 q 231 1178 254 1203 l 231 1231 q 341 1274 269 1274 q 394 1266 369 1274 q 453 1245 419 1259 q 504 1227 484 1233 q 544 1221 524 1221 q 605 1233 578 1221 q 655 1270 631 1244 l 655 1217 q 544 1174 615 1174 z "},"F":{"ha":753,"x_min":128,"x_max":719,"o":"m 719 971 l 190 971 l 190 555 l 653 555 l 653 498 l 190 498 l 190 0 l 128 0 l 128 1028 l 719 1028 l 719 971 z "},"G":{"ha":910,"x_min":79,"x_max":798,"o":"m 798 500 l 798 12 q 685 -3 735 1 q 580 -8 635 -8 q 205 117 330 -8 q 80 513 81 242 q 203 913 79 786 q 548 1040 328 1040 q 777 1008 658 1040 l 777 950 q 659 976 715 968 q 549 983 604 983 q 250 873 356 983 q 145 513 144 763 q 193 247 145 349 q 337 97 242 144 q 578 50 432 50 q 738 62 671 50 l 738 500 l 798 500 z "},"Ǵ":{"ha":910,"x_min":80,"x_max":798,"o":"m 798 500 l 798 12 q 685 -3 735 1 q 580 -8 635 -8 q 205 117 330 -8 q 80 513 81 242 q 203 913 79 786 q 548 1040 328 1040 q 777 1008 658 1040 l 777 950 q 659 976 715 968 q 549 983 604 983 q 250 873 356 983 q 145 513 144 763 q 193 247 145 349 q 337 97 242 144 q 578 50 432 50 q 738 62 671 50 l 738 500 l 798 500 m 469 1121 l 592 1312 l 660 1312 l 526 1121 l 469 1121 z "},"Ğ":{"ha":910,"x_min":80,"x_max":798,"o":"m 798 500 l 798 12 q 685 -3 735 1 q 580 -8 635 -8 q 205 117 330 -8 q 80 513 81 242 q 203 913 79 786 q 548 1040 328 1040 q 777 1008 658 1040 l 777 950 q 659 976 715 968 q 549 983 604 983 q 250 873 356 983 q 145 513 144 763 q 193 247 145 349 q 337 97 242 144 q 578 50 432 50 q 738 62 671 50 l 738 500 l 798 500 m 499 1129 q 355 1173 406 1129 q 297 1293 303 1217 l 344 1293 q 389 1204 353 1233 q 499 1175 424 1175 q 609 1204 574 1175 q 651 1293 644 1233 l 699 1293 q 643 1172 693 1215 q 499 1129 593 1129 z "},"Ǧ":{"ha":910,"x_min":80,"x_max":798,"o":"m 798 500 l 798 12 q 685 -3 735 1 q 580 -8 635 -8 q 205 117 330 -8 q 80 513 81 242 q 203 913 79 786 q 548 1040 328 1040 q 777 1008 658 1040 l 777 950 q 659 976 715 968 q 549 983 604 983 q 250 873 356 983 q 145 513 144 763 q 193 247 145 349 q 337 97 242 144 q 578 50 432 50 q 738 62 671 50 l 738 500 l 798 500 m 632 1312 l 697 1312 l 530 1121 l 467 1121 l 299 1312 l 364 1312 l 498 1156 l 632 1312 z "},"Ĝ":{"ha":910,"x_min":80,"x_max":798,"o":"m 798 500 l 798 12 q 685 -3 735 1 q 580 -8 635 -8 q 205 117 330 -8 q 80 513 81 242 q 203 913 79 786 q 548 1040 328 1040 q 777 1008 658 1040 l 777 950 q 659 976 715 968 q 549 983 604 983 q 250 873 356 983 q 145 513 144 763 q 193 247 145 349 q 337 97 242 144 q 578 50 432 50 q 738 62 671 50 l 738 500 l 798 500 m 697 1121 l 632 1121 l 498 1277 l 364 1121 l 299 1121 l 467 1312 l 530 1312 l 697 1121 z "},"Ģ":{"ha":910,"x_min":80,"x_max":798,"o":"m 798 500 l 798 12 q 685 -3 735 1 q 580 -8 635 -8 q 205 117 330 -8 q 80 513 81 242 q 203 913 79 786 q 548 1040 328 1040 q 777 1008 658 1040 l 777 950 q 659 976 715 968 q 549 983 604 983 q 250 873 356 983 q 145 513 144 763 q 193 247 145 349 q 337 97 242 144 q 578 50 432 50 q 738 62 671 50 l 738 500 l 798 500 m 496 -124 q 534 -141 520 -124 q 548 -188 548 -157 q 539 -249 548 -215 q 515 -314 531 -283 l 476 -314 q 501 -218 497 -260 l 498 -218 q 462 -205 476 -218 q 449 -171 449 -192 q 461 -137 449 -150 q 496 -124 474 -124 z "},"Ġ":{"ha":910,"x_min":80,"x_max":798,"o":"m 798 500 l 798 12 q 685 -3 735 1 q 580 -8 635 -8 q 205 117 330 -8 q 80 513 81 242 q 203 913 79 786 q 548 1040 328 1040 q 777 1008 658 1040 l 777 950 q 659 976 715 968 q 549 983 604 983 q 250 873 356 983 q 145 513 144 763 q 193 247 145 349 q 337 97 242 144 q 578 50 432 50 q 738 62 671 50 l 738 500 l 798 500 m 498 1169 q 462 1182 476 1169 q 448 1217 448 1195 q 462 1252 448 1238 q 498 1265 476 1265 q 535 1252 521 1265 q 549 1217 549 1239 q 535 1182 549 1195 q 498 1169 521 1169 z "},"Ḡ":{"ha":910,"x_min":80,"x_max":798,"o":"m 798 500 l 798 12 q 685 -3 735 1 q 580 -8 635 -8 q 205 117 330 -8 q 80 513 81 242 q 203 913 79 786 q 548 1040 328 1040 q 777 1008 658 1040 l 777 950 q 659 976 715 968 q 549 983 604 983 q 250 873 356 983 q 145 513 144 763 q 193 247 145 349 q 337 97 242 144 q 578 50 432 50 q 738 62 671 50 l 738 500 l 798 500 m 305 1192 l 305 1241 l 691 1241 l 691 1192 l 305 1192 z "},"H":{"ha":978,"x_min":128,"x_max":849,"o":"m 128 0 l 128 1028 l 190 1028 l 190 557 l 788 557 l 788 1028 l 849 1028 l 849 0 l 788 0 l 788 499 l 190 499 l 190 0 l 128 0 z "},"Ħ":{"ha":978,"x_min":1,"x_max":976,"o":"m 976 819 l 976 769 l 849 769 l 849 0 l 788 0 l 788 499 l 190 499 l 190 0 l 128 0 l 128 769 l 1 769 l 1 819 l 128 819 l 128 1028 l 190 1028 l 190 819 l 788 819 l 788 1028 l 849 1028 l 849 819 l 976 819 m 788 557 l 788 769 l 190 769 l 190 557 l 788 557 z "},"Ḫ":{"ha":978,"x_min":128,"x_max":849,"o":"m 128 0 l 128 1028 l 190 1028 l 190 557 l 788 557 l 788 1028 l 849 1028 l 849 0 l 788 0 l 788 499 l 190 499 l 190 0 l 128 0 m 490 -280 q 342 -234 394 -280 q 288 -110 290 -189 l 335 -110 q 376 -202 339 -171 q 490 -233 413 -233 q 604 -202 567 -233 q 642 -110 640 -171 l 690 -110 q 638 -235 689 -190 q 490 -280 587 -280 z "},"Ĥ":{"ha":978,"x_min":128,"x_max":849,"o":"m 128 0 l 128 1028 l 190 1028 l 190 557 l 788 557 l 788 1028 l 849 1028 l 849 0 l 788 0 l 788 499 l 190 499 l 190 0 l 128 0 m 688 1121 l 623 1121 l 489 1277 l 355 1121 l 290 1121 l 458 1312 l 521 1312 l 688 1121 z "},"Ḥ":{"ha":978,"x_min":128,"x_max":849,"o":"m 128 0 l 128 1028 l 190 1028 l 190 557 l 788 557 l 788 1028 l 849 1028 l 849 0 l 788 0 l 788 499 l 190 499 l 190 0 l 128 0 m 489 -222 q 453 -208 467 -222 q 439 -174 439 -195 q 453 -138 439 -151 q 489 -124 467 -124 q 526 -138 512 -124 q 540 -174 540 -151 q 526 -208 540 -195 q 489 -222 512 -222 z "},"I":{"ha":319,"x_min":128,"x_max":190,"o":"m 128 0 l 128 1028 l 190 1028 l 190 0 l 128 0 z "},"Í":{"ha":319,"x_min":128,"x_max":322,"o":"m 128 0 l 128 1028 l 190 1028 l 190 0 l 128 0 m 131 1121 l 253 1312 l 322 1312 l 188 1121 l 131 1121 z "},"Ĭ":{"ha":319,"x_min":-42,"x_max":361,"o":"m 128 0 l 128 1028 l 190 1028 l 190 0 l 128 0 m 161 1129 q 17 1173 68 1129 q -42 1293 -35 1217 l 6 1293 q 50 1204 15 1233 q 161 1175 86 1175 q 271 1204 236 1175 q 313 1293 306 1233 l 361 1293 q 305 1172 355 1215 q 161 1129 255 1129 z "},"Î":{"ha":319,"x_min":-40,"x_max":359,"o":"m 128 0 l 128 1028 l 190 1028 l 190 0 l 128 0 m 359 1121 l 294 1121 l 160 1277 l 26 1121 l -40 1121 l 128 1312 l 192 1312 l 359 1121 z "},"Ȉ":{"ha":319,"x_min":-63,"x_max":292,"o":"m 128 0 l 128 1028 l 190 1028 l 190 0 l 128 0 m 28 1121 l -63 1312 l -6 1312 l 81 1121 l 28 1121 m 240 1121 l 148 1312 l 206 1312 l 292 1121 l 240 1121 z "},"Ï":{"ha":319,"x_min":-44,"x_max":364,"o":"m 128 0 l 128 1028 l 190 1028 l 190 0 l 128 0 m 5 1169 q -31 1182 -17 1169 q -44 1217 -44 1195 q -31 1252 -44 1238 q 5 1265 -17 1265 q 41 1252 27 1265 q 54 1217 54 1238 q 41 1182 54 1195 q 5 1169 27 1169 m 315 1169 q 279 1182 292 1169 q 266 1217 266 1195 q 279 1252 266 1239 q 315 1265 292 1265 q 350 1252 337 1265 q 364 1217 364 1239 q 350 1182 364 1195 q 315 1169 337 1169 z "},"Ḯ":{"ha":319,"x_min":-44,"x_max":364,"o":"m 128 0 l 128 1028 l 190 1028 l 190 0 l 128 0 m 131 1313 l 252 1474 l 324 1474 l 190 1313 l 131 1313 m 5 1169 q -31 1182 -17 1169 q -44 1217 -44 1195 q -31 1252 -44 1238 q 5 1265 -17 1265 q 41 1252 27 1265 q 54 1217 54 1238 q 41 1182 54 1195 q 5 1169 27 1169 m 315 1169 q 279 1182 292 1169 q 266 1217 266 1195 q 279 1252 266 1239 q 315 1265 292 1265 q 350 1252 337 1265 q 364 1217 364 1239 q 350 1182 364 1195 q 315 1169 337 1169 z "},"İ":{"ha":319,"x_min":110,"x_max":210,"o":"m 128 0 l 128 1028 l 190 1028 l 190 0 l 128 0 m 160 1169 q 124 1182 138 1169 q 110 1217 110 1195 q 124 1252 110 1238 q 160 1265 138 1265 q 197 1252 183 1265 q 210 1217 210 1239 q 197 1182 210 1195 q 160 1169 183 1169 z "},"Ị":{"ha":319,"x_min":110,"x_max":210,"o":"m 128 0 l 128 1028 l 190 1028 l 190 0 l 128 0 m 160 -222 q 124 -208 138 -222 q 110 -174 110 -195 q 124 -138 110 -151 q 160 -124 138 -124 q 197 -138 183 -124 q 210 -174 210 -151 q 197 -208 210 -195 q 160 -222 183 -222 z "},"Ì":{"ha":319,"x_min":-3,"x_max":190,"o":"m 128 0 l 128 1028 l 190 1028 l 190 0 l 128 0 m 131 1121 l -3 1312 l 67 1312 l 188 1121 l 131 1121 z "},"Ỉ":{"ha":319,"x_min":32,"x_max":299,"o":"m 128 0 l 128 1028 l 190 1028 l 190 0 l 128 0 m 135 1121 q 145 1155 135 1141 q 169 1176 156 1168 q 203 1193 182 1183 q 240 1211 228 1203 q 251 1235 251 1220 q 233 1262 251 1253 q 168 1272 215 1272 q 99 1266 132 1272 q 32 1247 67 1260 l 32 1288 q 169 1313 88 1313 q 266 1292 234 1313 q 299 1238 299 1272 q 283 1196 299 1210 q 236 1169 267 1182 q 198 1148 210 1157 q 184 1121 186 1138 l 135 1121 z "},"Ȋ":{"ha":319,"x_min":-42,"x_max":361,"o":"m 128 0 l 128 1028 l 190 1028 l 190 0 l 128 0 m -42 1140 q 15 1260 -35 1217 q 158 1303 65 1303 q 303 1260 252 1303 q 361 1140 355 1216 l 313 1140 q 269 1228 305 1199 q 158 1258 233 1258 q 48 1228 83 1258 q 6 1140 13 1199 l -42 1140 z "},"Ī":{"ha":319,"x_min":-33,"x_max":353,"o":"m 128 0 l 128 1028 l 190 1028 l 190 0 l 128 0 m -33 1192 l -33 1241 l 353 1241 l 353 1192 l -33 1192 z "},"Į":{"ha":319,"x_min":6,"x_max":273,"o":"m 156 -240 q 210 -233 183 -240 q 273 -212 238 -227 l 273 -253 q 156 -280 214 -280 q 45 -249 84 -280 q 6 -160 6 -218 q 35 -70 6 -112 q 128 12 64 -28 l 128 1028 l 190 1028 l 190 0 q 83 -77 114 -40 q 53 -158 53 -114 q 79 -219 53 -198 q 156 -240 105 -240 z "},"Ĩ":{"ha":319,"x_min":-52,"x_max":372,"o":"m 128 0 l 128 1028 l 190 1028 l 190 0 l 128 0 m 262 1174 q 209 1182 234 1174 q 150 1203 184 1189 q 99 1221 119 1215 q 58 1227 79 1227 q -2 1215 24 1227 q -52 1178 -28 1203 l -52 1231 q 58 1274 -13 1274 q 111 1266 86 1274 q 170 1245 136 1259 q 221 1227 201 1233 q 262 1221 241 1221 q 322 1233 296 1221 q 372 1270 349 1244 l 372 1217 q 262 1174 333 1174 z "},"J":{"ha":319,"x_min":-2,"x_max":190,"o":"m -2 -207 q 98 -17 67 -112 q 129 199 129 77 l 129 1028 l 190 1028 l 190 178 q 151 -40 185 56 q 41 -237 117 -135 l -2 -207 z "},"Ĵ":{"ha":319,"x_min":-40,"x_max":359,"o":"m -2 -207 q 98 -17 67 -112 q 129 199 129 77 l 129 1028 l 190 1028 l 190 178 q 151 -40 185 56 q 41 -237 117 -135 l -2 -207 m 359 1121 l 294 1121 l 160 1277 l 26 1121 l -40 1121 l 128 1312 l 192 1312 l 359 1121 z "},"K":{"ha":830,"x_min":128,"x_max":839,"o":"m 765 0 l 362 499 l 190 499 l 190 0 l 128 0 l 128 1028 l 190 1028 l 190 557 l 365 557 l 738 1028 l 810 1028 l 413 529 l 839 0 l 765 0 z "},"Ķ":{"ha":830,"x_min":128,"x_max":839,"o":"m 765 0 l 362 499 l 190 499 l 190 0 l 128 0 l 128 1028 l 190 1028 l 190 557 l 365 557 l 738 1028 l 810 1028 l 413 529 l 839 0 l 765 0 m 430 -124 q 468 -141 454 -124 q 482 -188 482 -157 q 473 -249 482 -215 q 449 -314 465 -283 l 410 -314 q 435 -218 431 -260 l 432 -218 q 396 -205 410 -218 q 383 -171 383 -192 q 395 -137 383 -150 q 430 -124 408 -124 z "},"L":{"ha":720,"x_min":128,"x_max":711,"o":"m 128 0 l 128 1028 l 190 1028 l 190 57 l 711 57 l 711 0 l 128 0 z "},"Ǉ":{"ha":1039,"x_min":128,"x_max":910,"o":"m 128 0 l 128 1028 l 190 1028 l 190 57 l 711 57 l 711 0 l 128 0 m 718 -207 q 818 -17 788 -112 q 849 199 849 77 l 849 1028 l 910 1028 l 910 178 q 871 -40 905 56 q 761 -237 838 -135 l 718 -207 z "},"Ĺ":{"ha":720,"x_min":128,"x_max":711,"o":"m 128 0 l 128 1028 l 190 1028 l 190 57 l 711 57 l 711 0 l 128 0 m 131 1121 l 253 1312 l 322 1312 l 188 1121 l 131 1121 z "},"Ľ":{"ha":720,"x_min":128,"x_max":711,"o":"m 128 0 l 128 1028 l 190 1028 l 190 57 l 711 57 l 711 0 l 128 0 m 454 792 q 465 938 463 858 q 467 1122 467 1017 l 520 1122 q 494 792 520 919 l 454 792 z "},"Ļ":{"ha":720,"x_min":128,"x_max":711,"o":"m 128 0 l 128 1028 l 190 1028 l 190 57 l 711 57 l 711 0 l 128 0 m 419 -124 q 457 -141 443 -124 q 471 -188 471 -157 q 462 -249 471 -215 q 438 -314 453 -283 l 399 -314 q 424 -218 420 -260 l 421 -218 q 385 -205 399 -218 q 372 -171 372 -192 q 384 -137 372 -150 q 419 -124 397 -124 z "},"Ŀ":{"ha":720,"x_min":128,"x_max":711,"o":"m 128 0 l 128 1028 l 190 1028 l 190 57 l 711 57 l 711 0 l 128 0 m 513 493 q 476 506 490 493 q 462 542 462 519 q 476 578 462 565 q 513 592 490 592 q 549 578 535 592 q 563 542 563 565 q 549 506 563 519 q 513 493 535 493 z "},"Ḷ":{"ha":720,"x_min":128,"x_max":711,"o":"m 128 0 l 128 1028 l 190 1028 l 190 57 l 711 57 l 711 0 l 128 0 m 421 -222 q 385 -208 399 -222 q 371 -174 371 -195 q 385 -138 371 -151 q 421 -124 399 -124 q 458 -138 444 -124 q 472 -174 472 -151 q 458 -208 472 -195 q 421 -222 444 -222 z "},"ǈ":{"ha":1012,"x_min":128,"x_max":917,"o":"m 128 0 l 128 1028 l 190 1028 l 190 57 l 711 57 l 711 0 l 128 0 m 705 -290 q 805 -100 774 -194 q 835 116 835 -6 l 835 751 l 897 751 l 897 121 q 861 -113 897 -12 q 747 -320 826 -215 l 705 -290 m 866 942 q 830 956 843 942 q 816 992 816 969 q 830 1028 816 1014 q 866 1042 843 1042 q 903 1028 889 1042 q 917 992 917 1014 q 903 956 917 969 q 866 942 889 942 z "},"Ḻ":{"ha":720,"x_min":128,"x_max":711,"o":"m 128 0 l 128 1028 l 190 1028 l 190 57 l 711 57 l 711 0 l 128 0 m 228 -198 l 228 -149 l 614 -149 l 614 -198 l 228 -198 z "},"Ł":{"ha":720,"x_min":-2,"x_max":711,"o":"m 190 57 l 711 57 l 711 0 l 128 0 l 128 479 l 28 395 l -2 434 l 128 544 l 128 1028 l 190 1028 l 190 596 l 381 756 l 412 717 l 190 531 l 190 57 z "},"M":{"ha":1185,"x_min":131,"x_max":1053,"o":"m 984 1028 l 1053 1028 l 1053 0 l 994 0 l 994 918 l 624 140 l 561 140 l 190 915 l 190 0 l 131 0 l 131 1028 l 201 1028 l 594 201 l 984 1028 z "},"Ṃ":{"ha":1185,"x_min":131,"x_max":1053,"o":"m 984 1028 l 1053 1028 l 1053 0 l 994 0 l 994 918 l 624 140 l 561 140 l 190 915 l 190 0 l 131 0 l 131 1028 l 201 1028 l 594 201 l 984 1028 m 594 -222 q 558 -208 572 -222 q 544 -174 544 -195 q 558 -138 544 -151 q 594 -124 572 -124 q 631 -138 617 -124 q 644 -174 644 -151 q 631 -208 644 -195 q 594 -222 617 -222 z "},"N":{"ha":997,"x_min":128,"x_max":869,"o":"m 810 1028 l 869 1028 l 869 0 l 803 0 l 188 932 l 188 0 l 128 0 l 128 1028 l 194 1028 l 810 96 l 810 1028 z "},"Ǌ":{"ha":1316,"x_min":128,"x_max":1188,"o":"m 810 1028 l 869 1028 l 869 0 l 803 0 l 188 932 l 188 0 l 128 0 l 128 1028 l 194 1028 l 810 96 l 810 1028 m 995 -207 q 1095 -17 1065 -112 q 1126 199 1126 77 l 1126 1028 l 1188 1028 l 1188 178 q 1148 -40 1182 56 q 1038 -237 1115 -135 l 995 -207 z "},"Ń":{"ha":997,"x_min":128,"x_max":869,"o":"m 810 1028 l 869 1028 l 869 0 l 803 0 l 188 932 l 188 0 l 128 0 l 128 1028 l 194 1028 l 810 96 l 810 1028 m 471 1121 l 593 1312 l 662 1312 l 528 1121 l 471 1121 z "},"Ň":{"ha":997,"x_min":128,"x_max":869,"o":"m 810 1028 l 869 1028 l 869 0 l 803 0 l 188 932 l 188 0 l 128 0 l 128 1028 l 194 1028 l 810 96 l 810 1028 m 633 1312 l 699 1312 l 531 1121 l 468 1121 l 300 1312 l 365 1312 l 499 1156 l 633 1312 z "},"Ņ":{"ha":997,"x_min":128,"x_max":869,"o":"m 810 1028 l 869 1028 l 869 0 l 803 0 l 188 932 l 188 0 l 128 0 l 128 1028 l 194 1028 l 810 96 l 810 1028 m 497 -124 q 535 -141 522 -124 q 549 -188 549 -157 q 541 -249 549 -215 q 517 -314 532 -283 l 478 -314 q 502 -218 499 -260 l 499 -218 q 464 -205 477 -218 q 450 -171 450 -192 q 463 -137 450 -150 q 497 -124 476 -124 z "},"Ṅ":{"ha":997,"x_min":128,"x_max":869,"o":"m 810 1028 l 869 1028 l 869 0 l 803 0 l 188 932 l 188 0 l 128 0 l 128 1028 l 194 1028 l 810 96 l 810 1028 m 499 1169 q 463 1182 477 1169 q 449 1217 449 1195 q 463 1252 449 1238 q 499 1265 477 1265 q 536 1252 522 1265 q 550 1217 550 1239 q 536 1182 550 1195 q 499 1169 522 1169 z "},"Ṇ":{"ha":997,"x_min":128,"x_max":869,"o":"m 810 1028 l 869 1028 l 869 0 l 803 0 l 188 932 l 188 0 l 128 0 l 128 1028 l 194 1028 l 810 96 l 810 1028 m 499 -222 q 463 -208 477 -222 q 449 -174 449 -195 q 463 -138 449 -151 q 499 -124 477 -124 q 536 -138 522 -124 q 550 -174 550 -151 q 536 -208 550 -195 q 499 -222 522 -222 z "},"Ŋ":{"ha":997,"x_min":128,"x_max":869,"o":"m 869 1028 l 869 123 q 834 -113 869 -11 q 719 -320 799 -215 l 676 -290 q 759 -149 729 -219 q 801 0 790 -79 l 188 931 l 188 0 l 128 0 l 128 1028 l 194 1028 l 810 96 l 810 116 l 810 1028 l 869 1028 z "},"ǋ":{"ha":1289,"x_min":128,"x_max":1194,"o":"m 810 1028 l 869 1028 l 869 0 l 803 0 l 188 932 l 188 0 l 128 0 l 128 1028 l 194 1028 l 810 96 l 810 1028 m 982 -290 q 1082 -100 1051 -194 q 1113 116 1113 -6 l 1113 751 l 1174 751 l 1174 121 q 1139 -113 1174 -12 q 1024 -320 1103 -215 l 982 -290 m 1143 942 q 1107 956 1120 942 q 1093 992 1093 969 q 1107 1028 1093 1014 q 1143 1042 1120 1042 q 1180 1028 1166 1042 q 1194 992 1194 1014 q 1180 956 1194 969 q 1143 942 1166 942 z "},"Ṉ":{"ha":997,"x_min":128,"x_max":869,"o":"m 810 1028 l 869 1028 l 869 0 l 803 0 l 188 932 l 188 0 l 128 0 l 128 1028 l 194 1028 l 810 96 l 810 1028 m 306 -198 l 306 -149 l 692 -149 l 692 -198 l 306 -198 z "},"Ñ":{"ha":997,"x_min":128,"x_max":869,"o":"m 810 1028 l 869 1028 l 869 0 l 803 0 l 188 932 l 188 0 l 128 0 l 128 1028 l 194 1028 l 810 96 l 810 1028 m 601 1174 q 549 1182 574 1174 q 490 1203 524 1189 q 439 1221 458 1215 q 398 1227 419 1227 q 337 1215 363 1227 q 288 1178 311 1203 l 288 1231 q 398 1274 326 1274 q 451 1266 426 1274 q 510 1245 476 1259 q 561 1227 541 1233 q 601 1221 581 1221 q 662 1233 635 1221 q 712 1270 688 1244 l 712 1217 q 601 1174 672 1174 z "},"O":{"ha":960,"x_min":80,"x_max":881,"o":"m 481 -12 q 185 115 291 -12 q 80 514 80 242 q 186 913 80 785 q 481 1040 292 1040 q 775 913 669 1040 q 881 514 881 785 q 774 115 881 242 q 481 -12 668 -12 m 481 45 q 728 154 640 45 q 816 511 816 263 q 728 873 816 763 q 481 983 640 983 q 232 874 320 983 q 144 517 144 765 q 232 155 144 265 q 481 45 320 45 z "},"Ó":{"ha":960,"x_min":80,"x_max":881,"o":"m 481 -12 q 185 115 291 -12 q 80 514 80 242 q 186 913 80 785 q 481 1040 292 1040 q 775 913 669 1040 q 881 514 881 785 q 774 115 881 242 q 481 -12 668 -12 m 481 45 q 728 154 640 45 q 816 511 816 263 q 728 873 816 763 q 481 983 640 983 q 232 874 320 983 q 144 517 144 765 q 232 155 144 265 q 481 45 320 45 m 452 1121 l 574 1312 l 643 1312 l 509 1121 l 452 1121 z "},"Ŏ":{"ha":960,"x_min":80,"x_max":881,"o":"m 481 -12 q 185 115 291 -12 q 80 514 80 242 q 186 913 80 785 q 481 1040 292 1040 q 775 913 669 1040 q 881 514 881 785 q 774 115 881 242 q 481 -12 668 -12 m 481 45 q 728 154 640 45 q 816 511 816 263 q 728 873 816 763 q 481 983 640 983 q 232 874 320 983 q 144 517 144 765 q 232 155 144 265 q 481 45 320 45 m 482 1129 q 338 1173 389 1129 q 279 1293 286 1217 l 327 1293 q 371 1204 335 1233 q 482 1175 407 1175 q 592 1204 557 1175 q 634 1293 627 1233 l 682 1293 q 626 1172 676 1215 q 482 1129 576 1129 z "},"Ô":{"ha":960,"x_min":80,"x_max":881,"o":"m 481 -12 q 185 115 291 -12 q 80 514 80 242 q 186 913 80 785 q 481 1040 292 1040 q 775 913 669 1040 q 881 514 881 785 q 774 115 881 242 q 481 -12 668 -12 m 481 45 q 728 154 640 45 q 816 511 816 263 q 728 873 816 763 q 481 983 640 983 q 232 874 320 983 q 144 517 144 765 q 232 155 144 265 q 481 45 320 45 m 680 1121 l 615 1121 l 481 1277 l 347 1121 l 281 1121 l 449 1312 l 513 1312 l 680 1121 z "},"Ố":{"ha":960,"x_min":80,"x_max":881,"o":"m 481 -12 q 185 115 291 -12 q 80 514 80 242 q 186 913 80 785 q 481 1040 292 1040 q 775 913 669 1040 q 881 514 881 785 q 774 115 881 242 q 481 -12 668 -12 m 481 45 q 728 154 640 45 q 816 511 816 263 q 728 873 816 763 q 481 983 640 983 q 232 874 320 983 q 144 517 144 765 q 232 155 144 265 q 481 45 320 45 m 750 1433 l 813 1433 l 682 1246 l 631 1246 l 750 1433 m 449 1310 l 513 1310 l 680 1121 l 615 1121 l 481 1276 l 347 1121 l 281 1121 l 449 1310 z "},"Ộ":{"ha":960,"x_min":80,"x_max":881,"o":"m 481 -12 q 185 115 291 -12 q 80 514 80 242 q 186 913 80 785 q 481 1040 292 1040 q 775 913 669 1040 q 881 514 881 785 q 774 115 881 242 q 481 -12 668 -12 m 481 45 q 728 154 640 45 q 816 511 816 263 q 728 873 816 763 q 481 983 640 983 q 232 874 320 983 q 144 517 144 765 q 232 155 144 265 q 481 45 320 45 m 481 -222 q 444 -208 458 -222 q 431 -174 431 -195 q 444 -138 431 -151 q 481 -124 458 -124 q 517 -138 503 -124 q 531 -174 531 -151 q 517 -208 531 -195 q 481 -222 503 -222 m 680 1121 l 615 1121 l 481 1277 l 347 1121 l 281 1121 l 449 1312 l 513 1312 l 680 1121 z "},"Ồ":{"ha":960,"x_min":80,"x_max":881,"o":"m 481 -12 q 185 115 291 -12 q 80 514 80 242 q 186 913 80 785 q 481 1040 292 1040 q 775 913 669 1040 q 881 514 881 785 q 774 115 881 242 q 481 -12 668 -12 m 481 45 q 728 154 640 45 q 816 511 816 263 q 728 873 816 763 q 481 983 640 983 q 232 874 320 983 q 144 517 144 765 q 232 155 144 265 q 481 45 320 45 m 697 1246 l 646 1246 l 515 1433 l 578 1433 l 697 1246 m 449 1310 l 513 1310 l 680 1121 l 615 1121 l 481 1276 l 347 1121 l 281 1121 l 449 1310 z "},"Ổ":{"ha":960,"x_min":80,"x_max":881,"o":"m 481 -12 q 185 115 291 -12 q 80 514 80 242 q 186 913 80 785 q 481 1040 292 1040 q 775 913 669 1040 q 881 514 881 785 q 774 115 881 242 q 481 -12 668 -12 m 481 45 q 728 154 640 45 q 816 511 816 263 q 728 873 816 763 q 481 983 640 983 q 232 874 320 983 q 144 517 144 765 q 232 155 144 265 q 481 45 320 45 m 666 1435 q 763 1415 731 1435 q 795 1361 795 1395 q 779 1320 795 1334 q 733 1293 763 1306 q 695 1272 707 1281 q 681 1246 683 1263 l 631 1246 q 642 1279 632 1265 q 665 1300 652 1292 q 700 1317 678 1308 q 736 1336 724 1327 q 748 1360 748 1344 q 730 1386 748 1377 q 665 1395 711 1395 q 595 1389 628 1395 q 528 1370 563 1383 l 528 1411 q 666 1435 585 1435 m 449 1310 l 513 1310 l 680 1121 l 615 1121 l 481 1276 l 347 1121 l 281 1121 l 449 1310 z "},"Ỗ":{"ha":960,"x_min":80,"x_max":881,"o":"m 481 -12 q 185 115 291 -12 q 80 514 80 242 q 186 913 80 785 q 481 1040 292 1040 q 775 913 669 1040 q 881 514 881 785 q 774 115 881 242 q 481 -12 668 -12 m 481 45 q 728 154 640 45 q 816 511 816 263 q 728 873 816 763 q 481 983 640 983 q 232 874 320 983 q 144 517 144 765 q 232 155 144 265 q 481 45 320 45 m 574 1385 q 631 1398 605 1385 q 680 1435 656 1410 l 680 1384 q 574 1342 641 1342 q 525 1349 549 1342 q 470 1370 502 1356 q 422 1388 439 1383 q 388 1394 405 1394 q 331 1382 356 1394 q 281 1344 306 1369 l 281 1395 q 388 1438 322 1438 q 436 1430 413 1438 q 492 1409 460 1423 q 539 1391 522 1397 q 574 1385 556 1385 m 449 1310 l 513 1310 l 680 1121 l 615 1121 l 481 1276 l 347 1121 l 281 1121 l 449 1310 z "},"Ȍ":{"ha":960,"x_min":80,"x_max":881,"o":"m 481 -12 q 185 115 291 -12 q 80 514 80 242 q 186 913 80 785 q 481 1040 292 1040 q 775 913 669 1040 q 881 514 881 785 q 774 115 881 242 q 481 -12 668 -12 m 481 45 q 728 154 640 45 q 816 511 816 263 q 728 873 816 763 q 481 983 640 983 q 232 874 320 983 q 144 517 144 765 q 232 155 144 265 q 481 45 320 45 m 349 1121 l 258 1312 l 315 1312 l 401 1121 l 349 1121 m 560 1121 l 469 1312 l 526 1312 l 613 1121 l 560 1121 z "},"Ö":{"ha":960,"x_min":80,"x_max":881,"o":"m 481 -12 q 185 115 291 -12 q 80 514 80 242 q 186 913 80 785 q 481 1040 292 1040 q 775 913 669 1040 q 881 514 881 785 q 774 115 881 242 q 481 -12 668 -12 m 481 45 q 728 154 640 45 q 816 511 816 263 q 728 873 816 763 q 481 983 640 983 q 232 874 320 983 q 144 517 144 765 q 232 155 144 265 q 481 45 320 45 m 326 1169 q 290 1182 303 1169 q 276 1217 276 1195 q 290 1252 276 1238 q 326 1265 303 1265 q 361 1252 348 1265 q 375 1217 375 1238 q 361 1182 375 1195 q 326 1169 348 1169 m 635 1169 q 600 1182 613 1169 q 587 1217 587 1195 q 600 1252 587 1239 q 635 1265 613 1265 q 671 1252 658 1265 q 685 1217 685 1239 q 671 1182 685 1195 q 635 1169 658 1169 z "},"Ȫ":{"ha":960,"x_min":80,"x_max":881,"o":"m 481 -12 q 185 115 291 -12 q 80 514 80 242 q 186 913 80 785 q 481 1040 292 1040 q 775 913 669 1040 q 881 514 881 785 q 774 115 881 242 q 481 -12 668 -12 m 481 45 q 728 154 640 45 q 816 511 816 263 q 728 873 816 763 q 481 983 640 983 q 232 874 320 983 q 144 517 144 765 q 232 155 144 265 q 481 45 320 45 m 326 1169 q 290 1182 303 1169 q 276 1217 276 1195 q 290 1252 276 1238 q 326 1265 303 1265 q 361 1252 348 1265 q 375 1217 375 1238 q 361 1182 375 1195 q 326 1169 348 1169 m 635 1169 q 600 1182 613 1169 q 587 1217 587 1195 q 600 1252 587 1239 q 635 1265 613 1265 q 671 1252 658 1265 q 685 1217 685 1239 q 671 1182 685 1195 q 635 1169 658 1169 m 288 1358 l 288 1406 l 674 1406 l 674 1358 l 288 1358 z "},"Ȱ":{"ha":960,"x_min":80,"x_max":881,"o":"m 481 -12 q 185 115 291 -12 q 80 514 80 242 q 186 913 80 785 q 481 1040 292 1040 q 775 913 669 1040 q 881 514 881 785 q 774 115 881 242 q 481 -12 668 -12 m 481 45 q 728 154 640 45 q 816 511 816 263 q 728 873 816 763 q 481 983 640 983 q 232 874 320 983 q 144 517 144 765 q 232 155 144 265 q 481 45 320 45 m 481 1169 q 444 1182 458 1169 q 431 1217 431 1195 q 444 1252 431 1238 q 481 1265 458 1265 q 517 1252 503 1265 q 531 1217 531 1239 q 517 1182 531 1195 q 481 1169 503 1169 m 288 1358 l 288 1406 l 674 1406 l 674 1358 l 288 1358 z "},"Ọ":{"ha":960,"x_min":80,"x_max":881,"o":"m 481 -12 q 185 115 291 -12 q 80 514 80 242 q 186 913 80 785 q 481 1040 292 1040 q 775 913 669 1040 q 881 514 881 785 q 774 115 881 242 q 481 -12 668 -12 m 481 45 q 728 154 640 45 q 816 511 816 263 q 728 873 816 763 q 481 983 640 983 q 232 874 320 983 q 144 517 144 765 q 232 155 144 265 q 481 45 320 45 m 481 -222 q 444 -208 458 -222 q 431 -174 431 -195 q 444 -138 431 -151 q 481 -124 458 -124 q 517 -138 503 -124 q 531 -174 531 -151 q 517 -208 531 -195 q 481 -222 503 -222 z "},"Ò":{"ha":960,"x_min":80,"x_max":881,"o":"m 481 -12 q 185 115 291 -12 q 80 514 80 242 q 186 913 80 785 q 481 1040 292 1040 q 775 913 669 1040 q 881 514 881 785 q 774 115 881 242 q 481 -12 668 -12 m 481 45 q 728 154 640 45 q 816 511 816 263 q 728 873 816 763 q 481 983 640 983 q 232 874 320 983 q 144 517 144 765 q 232 155 144 265 q 481 45 320 45 m 452 1121 l 318 1312 l 388 1312 l 509 1121 l 452 1121 z "},"Ỏ":{"ha":960,"x_min":80,"x_max":881,"o":"m 481 -12 q 185 115 291 -12 q 80 514 80 242 q 186 913 80 785 q 481 1040 292 1040 q 775 913 669 1040 q 881 514 881 785 q 774 115 881 242 q 481 -12 668 -12 m 481 45 q 728 154 640 45 q 816 511 816 263 q 728 873 816 763 q 481 983 640 983 q 232 874 320 983 q 144 517 144 765 q 232 155 144 265 q 481 45 320 45 m 456 1121 q 466 1155 456 1141 q 490 1176 476 1168 q 524 1193 503 1183 q 560 1211 549 1203 q 572 1235 572 1220 q 554 1262 572 1253 q 489 1272 535 1272 q 420 1266 453 1272 q 353 1247 388 1260 l 353 1288 q 490 1313 409 1313 q 587 1292 555 1313 q 619 1238 619 1272 q 603 1196 619 1210 q 557 1169 588 1182 q 519 1148 531 1157 q 505 1121 507 1138 l 456 1121 z "},"Ơ":{"ha":960,"x_min":80,"x_max":881,"o":"m 713 974 q 837 801 794 915 q 881 514 881 688 q 775 114 881 240 q 481 -12 669 -12 q 186 115 292 -12 q 80 514 80 242 q 186 913 80 785 q 481 1040 292 1040 q 584 1032 520 1040 q 690 1024 649 1024 q 791 1051 754 1024 q 827 1135 827 1079 q 823 1183 827 1161 q 810 1233 819 1205 l 864 1233 q 877 1185 873 1208 q 881 1133 881 1163 q 837 1020 881 1062 q 713 974 792 978 m 481 45 q 728 154 640 45 q 816 511 816 263 q 728 873 816 763 q 481 983 640 983 q 232 874 320 983 q 144 517 144 765 q 232 155 144 265 q 481 45 320 45 z "},"Ớ":{"ha":960,"x_min":80,"x_max":881,"o":"m 713 974 q 837 801 794 915 q 881 514 881 688 q 775 114 881 240 q 481 -12 669 -12 q 186 115 292 -12 q 80 514 80 242 q 186 913 80 785 q 481 1040 292 1040 q 584 1032 520 1040 q 690 1024 649 1024 q 791 1051 754 1024 q 827 1135 827 1079 q 823 1183 827 1161 q 810 1233 819 1205 l 864 1233 q 877 1185 873 1208 q 881 1133 881 1163 q 837 1020 881 1062 q 713 974 792 978 m 481 45 q 728 154 640 45 q 816 511 816 263 q 728 873 816 763 q 481 983 640 983 q 232 874 320 983 q 144 517 144 765 q 232 155 144 265 q 481 45 320 45 m 452 1121 l 574 1312 l 643 1312 l 509 1121 l 452 1121 z "},"Ợ":{"ha":960,"x_min":80,"x_max":881,"o":"m 713 974 q 837 801 794 915 q 881 514 881 688 q 775 114 881 240 q 481 -12 669 -12 q 186 115 292 -12 q 80 514 80 242 q 186 913 80 785 q 481 1040 292 1040 q 584 1032 520 1040 q 690 1024 649 1024 q 791 1051 754 1024 q 827 1135 827 1079 q 823 1183 827 1161 q 810 1233 819 1205 l 864 1233 q 877 1185 873 1208 q 881 1133 881 1163 q 837 1020 881 1062 q 713 974 792 978 m 481 45 q 728 154 640 45 q 816 511 816 263 q 728 873 816 763 q 481 983 640 983 q 232 874 320 983 q 144 517 144 765 q 232 155 144 265 q 481 45 320 45 m 481 -222 q 444 -208 458 -222 q 431 -174 431 -195 q 444 -138 431 -151 q 481 -124 458 -124 q 517 -138 503 -124 q 531 -174 531 -151 q 517 -208 531 -195 q 481 -222 503 -222 z "},"Ờ":{"ha":960,"x_min":80,"x_max":881,"o":"m 713 974 q 837 801 794 915 q 881 514 881 688 q 775 114 881 240 q 481 -12 669 -12 q 186 115 292 -12 q 80 514 80 242 q 186 913 80 785 q 481 1040 292 1040 q 584 1032 520 1040 q 690 1024 649 1024 q 791 1051 754 1024 q 827 1135 827 1079 q 823 1183 827 1161 q 810 1233 819 1205 l 864 1233 q 877 1185 873 1208 q 881 1133 881 1163 q 837 1020 881 1062 q 713 974 792 978 m 481 45 q 728 154 640 45 q 816 511 816 263 q 728 873 816 763 q 481 983 640 983 q 232 874 320 983 q 144 517 144 765 q 232 155 144 265 q 481 45 320 45 m 452 1121 l 318 1312 l 388 1312 l 509 1121 l 452 1121 z "},"Ở":{"ha":960,"x_min":80,"x_max":881,"o":"m 713 974 q 837 801 794 915 q 881 514 881 688 q 775 114 881 240 q 481 -12 669 -12 q 186 115 292 -12 q 80 514 80 242 q 186 913 80 785 q 481 1040 292 1040 q 584 1032 520 1040 q 690 1024 649 1024 q 791 1051 754 1024 q 827 1135 827 1079 q 823 1183 827 1161 q 810 1233 819 1205 l 864 1233 q 877 1185 873 1208 q 881 1133 881 1163 q 837 1020 881 1062 q 713 974 792 978 m 481 45 q 728 154 640 45 q 816 511 816 263 q 728 873 816 763 q 481 983 640 983 q 232 874 320 983 q 144 517 144 765 q 232 155 144 265 q 481 45 320 45 m 456 1121 q 466 1155 456 1141 q 490 1176 476 1168 q 524 1193 503 1183 q 560 1211 549 1203 q 572 1235 572 1220 q 554 1262 572 1253 q 489 1272 535 1272 q 420 1266 453 1272 q 353 1247 388 1260 l 353 1288 q 490 1313 409 1313 q 587 1292 555 1313 q 619 1238 619 1272 q 603 1196 619 1210 q 557 1169 588 1182 q 519 1148 531 1157 q 505 1121 507 1138 l 456 1121 z "},"Ỡ":{"ha":960,"x_min":80,"x_max":881,"o":"m 379 1227 q 319 1215 344 1227 q 269 1178 293 1203 l 269 1231 q 379 1274 308 1274 q 431 1266 407 1274 q 490 1245 456 1259 q 541 1227 522 1233 q 582 1221 561 1221 q 642 1233 616 1221 q 692 1270 668 1244 l 692 1217 q 581 1174 653 1174 q 529 1182 554 1174 q 470 1203 504 1189 q 420 1221 441 1215 q 379 1227 400 1227 m 713 974 q 837 801 794 915 q 881 514 881 688 q 775 114 881 240 q 481 -12 669 -12 q 186 115 292 -12 q 80 514 80 242 q 186 913 80 785 q 481 1040 292 1040 q 584 1032 520 1040 q 690 1024 649 1024 q 791 1051 754 1024 q 827 1135 827 1079 q 823 1183 827 1161 q 810 1233 819 1205 l 864 1233 q 877 1185 873 1208 q 881 1133 881 1163 q 837 1020 881 1062 q 713 974 792 978 m 481 45 q 728 154 640 45 q 816 511 816 263 q 728 873 816 763 q 481 983 640 983 q 232 874 320 983 q 144 517 144 765 q 232 155 144 265 q 481 45 320 45 z "},"Ő":{"ha":960,"x_min":80,"x_max":881,"o":"m 481 -12 q 185 115 291 -12 q 80 514 80 242 q 186 913 80 785 q 481 1040 292 1040 q 775 913 669 1040 q 881 514 881 785 q 774 115 881 242 q 481 -12 668 -12 m 481 45 q 728 154 640 45 q 816 511 816 263 q 728 873 816 763 q 481 983 640 983 q 232 874 320 983 q 144 517 144 765 q 232 155 144 265 q 481 45 320 45 m 349 1121 l 435 1312 l 493 1312 l 401 1121 l 349 1121 m 560 1121 l 647 1312 l 704 1312 l 613 1121 l 560 1121 z "},"Ȏ":{"ha":960,"x_min":80,"x_max":881,"o":"m 481 -12 q 185 115 291 -12 q 80 514 80 242 q 186 913 80 785 q 481 1040 292 1040 q 775 913 669 1040 q 881 514 881 785 q 774 115 881 242 q 481 -12 668 -12 m 481 45 q 728 154 640 45 q 816 511 816 263 q 728 873 816 763 q 481 983 640 983 q 232 874 320 983 q 144 517 144 765 q 232 155 144 265 q 481 45 320 45 m 279 1140 q 336 1260 286 1217 q 479 1303 386 1303 q 624 1260 573 1303 q 682 1140 676 1216 l 634 1140 q 590 1228 626 1199 q 479 1258 554 1258 q 369 1228 404 1258 q 327 1140 334 1199 l 279 1140 z "},"Ō":{"ha":960,"x_min":80,"x_max":881,"o":"m 481 -12 q 185 115 291 -12 q 80 514 80 242 q 186 913 80 785 q 481 1040 292 1040 q 775 913 669 1040 q 881 514 881 785 q 774 115 881 242 q 481 -12 668 -12 m 481 45 q 728 154 640 45 q 816 511 816 263 q 728 873 816 763 q 481 983 640 983 q 232 874 320 983 q 144 517 144 765 q 232 155 144 265 q 481 45 320 45 m 288 1192 l 288 1241 l 674 1241 l 674 1192 l 288 1192 z "},"Ṓ":{"ha":960,"x_min":80,"x_max":881,"o":"m 481 -12 q 185 115 291 -12 q 80 514 80 242 q 186 913 80 785 q 481 1040 292 1040 q 775 913 669 1040 q 881 514 881 785 q 774 115 881 242 q 481 -12 668 -12 m 481 45 q 728 154 640 45 q 816 511 816 263 q 728 873 816 763 q 481 983 640 983 q 232 874 320 983 q 144 517 144 765 q 232 155 144 265 q 481 45 320 45 m 451 1313 l 573 1474 l 644 1474 l 510 1313 l 451 1313 m 288 1192 l 288 1241 l 674 1241 l 674 1192 l 288 1192 z "},"Ṑ":{"ha":960,"x_min":80,"x_max":881,"o":"m 481 -12 q 185 115 291 -12 q 80 514 80 242 q 186 913 80 785 q 481 1040 292 1040 q 775 913 669 1040 q 881 514 881 785 q 774 115 881 242 q 481 -12 668 -12 m 481 45 q 728 154 640 45 q 816 511 816 263 q 728 873 816 763 q 481 983 640 983 q 232 874 320 983 q 144 517 144 765 q 232 155 144 265 q 481 45 320 45 m 451 1313 l 317 1474 l 388 1474 l 510 1313 l 451 1313 m 288 1192 l 288 1241 l 674 1241 l 674 1192 l 288 1192 z "},"Ǫ":{"ha":960,"x_min":80,"x_max":881,"o":"m 630 10 q 496 -66 535 -24 q 457 -158 457 -108 q 483 -219 457 -198 q 560 -240 509 -240 q 615 -233 588 -240 q 677 -212 642 -227 l 677 -253 q 560 -280 618 -280 q 449 -249 488 -280 q 410 -160 410 -217 q 431 -81 410 -117 q 501 -12 453 -44 l 483 -12 q 186 115 292 -12 q 80 514 80 242 q 186 913 80 785 q 481 1040 292 1040 q 775 914 669 1040 q 881 514 881 788 q 630 10 881 105 m 481 45 q 728 154 640 45 q 816 511 816 263 q 728 873 816 763 q 481 983 640 983 q 232 874 320 983 q 144 517 144 765 q 232 155 144 265 q 481 45 320 45 z "},"Ø":{"ha":960,"x_min":80,"x_max":881,"o":"m 788 895 q 881 514 881 763 q 774 115 881 242 q 481 -12 668 -12 q 205 93 304 -12 l 128 -13 l 88 16 l 172 133 q 80 514 80 265 q 186 913 80 785 q 481 1040 292 1040 q 756 935 656 1040 l 833 1041 l 873 1012 l 788 895 m 144 517 q 212 187 144 303 l 719 884 q 481 983 637 983 q 232 874 320 983 q 144 517 144 765 m 481 45 q 728 154 640 45 q 816 511 816 263 q 749 841 816 725 l 242 144 q 481 45 325 45 z "},"Ǿ":{"ha":960,"x_min":80,"x_max":881,"o":"m 788 895 q 881 514 881 763 q 774 115 881 242 q 481 -12 668 -12 q 205 93 304 -12 l 128 -13 l 88 16 l 172 133 q 80 514 80 265 q 186 913 80 785 q 481 1040 292 1040 q 756 935 656 1040 l 833 1041 l 873 1012 l 788 895 m 144 517 q 212 187 144 303 l 719 884 q 481 983 637 983 q 232 874 320 983 q 144 517 144 765 m 481 45 q 728 154 640 45 q 816 511 816 263 q 749 841 816 725 l 242 144 q 481 45 325 45 m 449 1121 l 572 1312 l 640 1312 l 506 1121 l 449 1121 z "},"Õ":{"ha":960,"x_min":80,"x_max":881,"o":"m 481 -12 q 185 115 291 -12 q 80 514 80 242 q 186 913 80 785 q 481 1040 292 1040 q 775 913 669 1040 q 881 514 881 785 q 774 115 881 242 q 481 -12 668 -12 m 481 45 q 728 154 640 45 q 816 511 816 263 q 728 873 816 763 q 481 983 640 983 q 232 874 320 983 q 144 517 144 765 q 232 155 144 265 q 481 45 320 45 m 583 1174 q 530 1182 555 1174 q 471 1203 505 1189 q 420 1221 440 1215 q 379 1227 400 1227 q 318 1215 344 1227 q 269 1178 292 1203 l 269 1231 q 379 1274 308 1274 q 432 1266 407 1274 q 491 1245 457 1259 q 542 1227 522 1233 q 583 1221 562 1221 q 643 1233 617 1221 q 693 1270 669 1244 l 693 1217 q 583 1174 653 1174 z "},"Ṍ":{"ha":960,"x_min":80,"x_max":881,"o":"m 481 -12 q 185 115 291 -12 q 80 514 80 242 q 186 913 80 785 q 481 1040 292 1040 q 775 913 669 1040 q 881 514 881 785 q 774 115 881 242 q 481 -12 668 -12 m 481 45 q 728 154 640 45 q 816 511 816 263 q 728 873 816 763 q 481 983 640 983 q 232 874 320 983 q 144 517 144 765 q 232 155 144 265 q 481 45 320 45 m 451 1313 l 573 1474 l 644 1474 l 510 1313 l 451 1313 m 583 1174 q 530 1182 555 1174 q 471 1203 505 1189 q 420 1221 440 1215 q 379 1227 400 1227 q 318 1215 344 1227 q 269 1178 292 1203 l 269 1231 q 379 1274 308 1274 q 432 1266 407 1274 q 491 1245 457 1259 q 542 1227 522 1233 q 583 1221 562 1221 q 643 1233 617 1221 q 693 1270 669 1244 l 693 1217 q 583 1174 653 1174 z "},"Ṏ":{"ha":960,"x_min":80,"x_max":881,"o":"m 481 -12 q 185 115 291 -12 q 80 514 80 242 q 186 913 80 785 q 481 1040 292 1040 q 775 913 669 1040 q 881 514 881 785 q 774 115 881 242 q 481 -12 668 -12 m 481 45 q 728 154 640 45 q 816 511 816 263 q 728 873 816 763 q 481 983 640 983 q 232 874 320 983 q 144 517 144 765 q 232 155 144 265 q 481 45 320 45 m 583 1174 q 530 1182 555 1174 q 471 1203 505 1189 q 420 1221 440 1215 q 379 1227 400 1227 q 318 1215 344 1227 q 269 1178 292 1203 l 269 1231 q 379 1274 308 1274 q 432 1266 407 1274 q 491 1245 457 1259 q 542 1227 522 1233 q 583 1221 562 1221 q 643 1233 617 1221 q 693 1270 669 1244 l 693 1217 q 583 1174 653 1174 m 326 1334 q 290 1347 303 1334 q 276 1382 276 1360 q 290 1417 276 1403 q 326 1431 303 1431 q 361 1417 348 1431 q 375 1382 375 1403 q 361 1347 375 1360 q 326 1334 348 1334 m 635 1334 q 600 1347 613 1334 q 587 1382 587 1360 q 600 1417 587 1404 q 635 1431 613 1431 q 671 1417 658 1431 q 685 1382 685 1404 q 671 1347 685 1360 q 635 1334 658 1334 z "},"Ȭ":{"ha":960,"x_min":80,"x_max":881,"o":"m 481 -12 q 185 115 291 -12 q 80 514 80 242 q 186 913 80 785 q 481 1040 292 1040 q 775 913 669 1040 q 881 514 881 785 q 774 115 881 242 q 481 -12 668 -12 m 481 45 q 728 154 640 45 q 816 511 816 263 q 728 873 816 763 q 481 983 640 983 q 232 874 320 983 q 144 517 144 765 q 232 155 144 265 q 481 45 320 45 m 583 1174 q 530 1182 555 1174 q 471 1203 505 1189 q 420 1221 440 1215 q 379 1227 400 1227 q 318 1215 344 1227 q 269 1178 292 1203 l 269 1231 q 379 1274 308 1274 q 432 1266 407 1274 q 491 1245 457 1259 q 542 1227 522 1233 q 583 1221 562 1221 q 643 1233 617 1221 q 693 1270 669 1244 l 693 1217 q 583 1174 653 1174 m 288 1358 l 288 1406 l 674 1406 l 674 1358 l 288 1358 z "},"Œ":{"ha":1360,"x_min":80,"x_max":1311,"o":"m 1311 57 l 1311 0 l 782 0 q 694 -3 759 0 q 574 -7 617 -7 q 205 120 329 -7 q 80 514 80 248 q 202 908 80 778 q 563 1038 324 1038 q 681 1032 606 1038 q 774 1028 748 1028 l 1304 1028 l 1304 971 l 791 971 l 791 556 l 1238 556 l 1238 500 l 791 500 l 791 57 l 1311 57 m 730 971 q 562 981 644 981 q 248 867 351 981 q 144 514 144 754 q 250 161 144 273 q 569 50 356 50 q 730 57 669 50 l 730 971 z "},"P":{"ha":830,"x_min":128,"x_max":763,"o":"m 128 1014 q 371 1038 253 1038 q 664 954 565 1038 q 763 697 763 871 q 660 441 763 528 q 342 355 558 355 q 190 362 267 355 l 190 0 l 128 0 l 128 1014 m 344 410 q 614 480 529 410 q 699 695 699 550 q 619 913 699 844 q 373 982 539 982 q 190 967 280 982 l 190 420 q 344 410 259 410 z "},"Þ":{"ha":837,"x_min":128,"x_max":763,"o":"m 128 1028 l 190 1028 l 190 855 q 372 869 279 869 q 664 786 565 869 q 763 528 763 703 q 660 273 763 359 q 342 186 558 186 q 190 194 264 186 l 190 0 l 128 0 l 128 1028 m 344 242 q 614 312 529 242 q 699 526 699 382 q 619 744 699 676 q 373 813 539 813 q 190 799 274 813 l 190 251 q 344 242 262 242 z "},"Q":{"ha":960,"x_min":80,"x_max":881,"o":"m 881 514 q 781 122 881 255 q 487 -8 681 -10 q 863 -76 631 -57 l 853 -133 q 385 -30 551 -101 q 150 169 219 41 q 80 513 80 297 q 186 913 80 785 q 481 1040 292 1040 q 775 914 669 1040 q 881 514 881 788 m 144 517 q 232 155 144 265 q 481 45 320 45 q 728 154 640 45 q 816 511 816 263 q 728 873 816 763 q 481 983 640 983 q 232 874 320 983 q 144 517 144 765 z "},"R":{"ha":885,"x_min":128,"x_max":840,"o":"m 767 0 l 420 449 q 348 446 390 446 q 190 453 274 446 l 190 0 l 128 0 l 128 1014 q 250 1031 190 1025 q 381 1038 310 1038 q 670 967 576 1038 q 763 746 763 896 q 485 456 765 501 l 840 0 l 767 0 m 347 501 q 551 528 472 501 q 666 608 629 554 q 703 744 703 661 q 670 881 703 829 q 566 958 637 933 q 381 982 496 982 q 281 978 324 982 q 190 966 238 974 l 190 508 q 267 503 231 505 q 347 501 303 501 z "},"Ŕ":{"ha":885,"x_min":128,"x_max":840,"o":"m 767 0 l 420 449 q 348 446 390 446 q 190 453 274 446 l 190 0 l 128 0 l 128 1014 q 250 1031 190 1025 q 381 1038 310 1038 q 670 967 576 1038 q 763 746 763 896 q 485 456 765 501 l 840 0 l 767 0 m 347 501 q 551 528 472 501 q 666 608 629 554 q 703 744 703 661 q 670 881 703 829 q 566 958 637 933 q 381 982 496 982 q 281 978 324 982 q 190 966 238 974 l 190 508 q 267 503 231 505 q 347 501 303 501 m 394 1121 l 516 1312 l 585 1312 l 451 1121 l 394 1121 z "},"Ř":{"ha":885,"x_min":128,"x_max":840,"o":"m 767 0 l 420 449 q 348 446 390 446 q 190 453 274 446 l 190 0 l 128 0 l 128 1014 q 250 1031 190 1025 q 381 1038 310 1038 q 670 967 576 1038 q 763 746 763 896 q 485 456 765 501 l 840 0 l 767 0 m 347 501 q 551 528 472 501 q 666 608 629 554 q 703 744 703 661 q 670 881 703 829 q 566 958 637 933 q 381 982 496 982 q 281 978 324 982 q 190 966 238 974 l 190 508 q 267 503 231 505 q 347 501 303 501 m 556 1312 l 622 1312 l 454 1121 l 391 1121 l 223 1312 l 288 1312 l 422 1156 l 556 1312 z "},"Ŗ":{"ha":885,"x_min":128,"x_max":840,"o":"m 767 0 l 420 449 q 348 446 390 446 q 190 453 274 446 l 190 0 l 128 0 l 128 1014 q 250 1031 190 1025 q 381 1038 310 1038 q 670 967 576 1038 q 763 746 763 896 q 485 456 765 501 l 840 0 l 767 0 m 347 501 q 551 528 472 501 q 666 608 629 554 q 703 744 703 661 q 670 881 703 829 q 566 958 637 933 q 381 982 496 982 q 281 978 324 982 q 190 966 238 974 l 190 508 q 267 503 231 505 q 347 501 303 501 m 460 -124 q 498 -141 484 -124 q 512 -188 512 -157 q 503 -249 512 -215 q 479 -314 494 -283 l 440 -314 q 465 -218 461 -260 l 462 -218 q 426 -205 440 -218 q 413 -171 413 -192 q 425 -137 413 -150 q 460 -124 438 -124 z "},"Ȑ":{"ha":885,"x_min":128,"x_max":840,"o":"m 767 0 l 420 449 q 348 446 390 446 q 190 453 274 446 l 190 0 l 128 0 l 128 1014 q 250 1031 190 1025 q 381 1038 310 1038 q 670 967 576 1038 q 763 746 763 896 q 485 456 765 501 l 840 0 l 767 0 m 347 501 q 551 528 472 501 q 666 608 629 554 q 703 744 703 661 q 670 881 703 829 q 566 958 637 933 q 381 982 496 982 q 281 978 324 982 q 190 966 238 974 l 190 508 q 267 503 231 505 q 347 501 303 501 m 291 1121 l 199 1312 l 257 1312 l 343 1121 l 291 1121 m 502 1121 l 410 1312 l 468 1312 l 554 1121 l 502 1121 z "},"Ṛ":{"ha":885,"x_min":128,"x_max":840,"o":"m 767 0 l 420 449 q 348 446 390 446 q 190 453 274 446 l 190 0 l 128 0 l 128 1014 q 250 1031 190 1025 q 381 1038 310 1038 q 670 967 576 1038 q 763 746 763 896 q 485 456 765 501 l 840 0 l 767 0 m 347 501 q 551 528 472 501 q 666 608 629 554 q 703 744 703 661 q 670 881 703 829 q 566 958 637 933 q 381 982 496 982 q 281 978 324 982 q 190 966 238 974 l 190 508 q 267 503 231 505 q 347 501 303 501 m 462 -222 q 426 -208 440 -222 q 412 -174 412 -195 q 426 -138 412 -151 q 462 -124 440 -124 q 499 -138 485 -124 q 513 -174 513 -151 q 499 -208 513 -195 q 462 -222 485 -222 z "},"Ȓ":{"ha":885,"x_min":128,"x_max":840,"o":"m 767 0 l 420 449 q 348 446 390 446 q 190 453 274 446 l 190 0 l 128 0 l 128 1014 q 250 1031 190 1025 q 381 1038 310 1038 q 670 967 576 1038 q 763 746 763 896 q 485 456 765 501 l 840 0 l 767 0 m 347 501 q 551 528 472 501 q 666 608 629 554 q 703 744 703 661 q 670 881 703 829 q 566 958 637 933 q 381 982 496 982 q 281 978 324 982 q 190 966 238 974 l 190 508 q 267 503 231 505 q 347 501 303 501 m 221 1140 q 278 1260 228 1217 q 421 1303 328 1303 q 566 1260 515 1303 q 624 1140 617 1216 l 576 1140 q 532 1228 567 1199 q 421 1258 496 1258 q 311 1228 346 1258 q 269 1140 276 1199 l 221 1140 z "},"Ṟ":{"ha":885,"x_min":128,"x_max":840,"o":"m 767 0 l 420 449 q 348 446 390 446 q 190 453 274 446 l 190 0 l 128 0 l 128 1014 q 250 1031 190 1025 q 381 1038 310 1038 q 670 967 576 1038 q 763 746 763 896 q 485 456 765 501 l 840 0 l 767 0 m 347 501 q 551 528 472 501 q 666 608 629 554 q 703 744 703 661 q 670 881 703 829 q 566 958 637 933 q 381 982 496 982 q 281 978 324 982 q 190 966 238 974 l 190 508 q 267 503 231 505 q 347 501 303 501 m 269 -198 l 269 -149 l 655 -149 l 655 -198 l 269 -198 z "},"S":{"ha":709,"x_min":58,"x_max":652,"o":"m 308 -12 q 188 -2 250 -12 q 69 27 126 8 l 69 85 q 310 44 190 44 q 518 100 449 44 q 588 264 588 156 q 565 366 588 325 q 492 435 542 407 q 360 484 443 463 l 314 496 q 120 595 183 529 q 58 769 58 661 q 96 914 58 853 q 210 1008 134 975 q 396 1040 285 1040 q 508 1032 451 1040 q 610 1009 564 1024 l 610 951 q 394 983 507 983 q 190 929 258 983 q 122 772 122 875 q 143 672 122 712 q 210 603 164 631 q 336 555 257 576 l 382 543 q 587 441 522 507 q 652 267 652 375 q 563 60 652 132 q 308 -12 473 -12 z "},"Ś":{"ha":709,"x_min":58,"x_max":652,"o":"m 308 -12 q 188 -2 250 -12 q 69 27 126 8 l 69 85 q 310 44 190 44 q 518 100 449 44 q 588 264 588 156 q 565 366 588 325 q 492 435 542 407 q 360 484 443 463 l 314 496 q 120 595 183 529 q 58 769 58 661 q 96 914 58 853 q 210 1008 134 975 q 396 1040 285 1040 q 508 1032 451 1040 q 610 1009 564 1024 l 610 951 q 394 983 507 983 q 190 929 258 983 q 122 772 122 875 q 143 672 122 712 q 210 603 164 631 q 336 555 257 576 l 382 543 q 587 441 522 507 q 652 267 652 375 q 563 60 652 132 q 308 -12 473 -12 m 331 1121 l 453 1312 l 522 1312 l 388 1121 l 331 1121 z "},"Ṥ":{"ha":709,"x_min":58,"x_max":652,"o":"m 308 -12 q 188 -2 250 -12 q 69 27 126 8 l 69 85 q 310 44 190 44 q 518 100 449 44 q 588 264 588 156 q 565 366 588 325 q 492 435 542 407 q 360 484 443 463 l 314 496 q 120 595 183 529 q 58 769 58 661 q 96 914 58 853 q 210 1008 134 975 q 396 1040 285 1040 q 508 1032 451 1040 q 610 1009 564 1024 l 610 951 q 394 983 507 983 q 190 929 258 983 q 122 772 122 875 q 143 672 122 712 q 210 603 164 631 q 336 555 257 576 l 382 543 q 587 441 522 507 q 652 267 652 375 q 563 60 652 132 q 308 -12 473 -12 m 322 1284 q 287 1297 300 1284 q 274 1330 274 1309 q 287 1365 274 1351 q 322 1378 301 1378 q 357 1365 344 1378 q 370 1330 370 1351 q 357 1297 370 1309 q 322 1284 344 1284 m 331 1121 l 453 1312 l 522 1312 l 388 1121 l 331 1121 z "},"Š":{"ha":709,"x_min":58,"x_max":652,"o":"m 308 -12 q 188 -2 250 -12 q 69 27 126 8 l 69 85 q 310 44 190 44 q 518 100 449 44 q 588 264 588 156 q 565 366 588 325 q 492 435 542 407 q 360 484 443 463 l 314 496 q 120 595 183 529 q 58 769 58 661 q 96 914 58 853 q 210 1008 134 975 q 396 1040 285 1040 q 508 1032 451 1040 q 610 1009 564 1024 l 610 951 q 394 983 507 983 q 190 929 258 983 q 122 772 122 875 q 143 672 122 712 q 210 603 164 631 q 336 555 257 576 l 382 543 q 587 441 522 507 q 652 267 652 375 q 563 60 652 132 q 308 -12 473 -12 m 494 1312 l 559 1312 l 392 1121 l 328 1121 l 160 1312 l 226 1312 l 360 1156 l 494 1312 z "},"Ṧ":{"ha":709,"x_min":58,"x_max":652,"o":"m 308 -12 q 188 -2 250 -12 q 69 27 126 8 l 69 85 q 310 44 190 44 q 518 100 449 44 q 588 264 588 156 q 565 366 588 325 q 492 435 542 407 q 360 484 443 463 l 314 496 q 120 595 183 529 q 58 769 58 661 q 96 914 58 853 q 210 1008 134 975 q 396 1040 285 1040 q 508 1032 451 1040 q 610 1009 564 1024 l 610 951 q 394 983 507 983 q 190 929 258 983 q 122 772 122 875 q 143 672 122 712 q 210 603 164 631 q 336 555 257 576 l 382 543 q 587 441 522 507 q 652 267 652 375 q 563 60 652 132 q 308 -12 473 -12 m 360 1313 q 325 1326 338 1313 q 311 1360 311 1339 q 325 1394 311 1381 q 360 1407 338 1407 q 395 1394 382 1407 q 408 1360 408 1381 q 395 1326 408 1338 q 360 1313 382 1313 m 494 1312 l 559 1312 l 392 1121 l 328 1121 l 160 1312 l 226 1312 l 360 1156 l 494 1312 z "},"Ş":{"ha":709,"x_min":58,"x_max":652,"o":"m 652 267 q 582 78 652 149 q 381 -8 513 7 l 381 -76 q 470 -105 438 -79 q 503 -178 503 -131 q 466 -254 503 -228 q 366 -280 430 -280 q 298 -273 332 -280 q 235 -253 264 -267 l 235 -211 q 303 -234 272 -227 q 365 -240 334 -240 q 434 -225 410 -240 q 458 -177 458 -209 q 364 -115 458 -115 l 337 -115 l 337 -12 q 308 -12 327 -12 q 188 -2 250 -12 q 69 27 126 8 l 69 85 q 310 44 190 44 q 518 100 449 44 q 588 264 588 156 q 565 366 588 325 q 492 435 542 407 q 360 484 443 463 l 314 496 q 120 595 183 529 q 58 769 58 661 q 96 914 58 853 q 210 1008 134 975 q 396 1040 285 1040 q 508 1032 451 1040 q 610 1009 564 1024 l 610 951 q 394 983 507 983 q 190 929 258 983 q 122 772 122 875 q 143 672 122 712 q 210 603 164 631 q 336 555 257 576 l 382 543 q 587 441 522 507 q 652 267 652 375 z "},"Ŝ":{"ha":709,"x_min":58,"x_max":652,"o":"m 308 -12 q 188 -2 250 -12 q 69 27 126 8 l 69 85 q 310 44 190 44 q 518 100 449 44 q 588 264 588 156 q 565 366 588 325 q 492 435 542 407 q 360 484 443 463 l 314 496 q 120 595 183 529 q 58 769 58 661 q 96 914 58 853 q 210 1008 134 975 q 396 1040 285 1040 q 508 1032 451 1040 q 610 1009 564 1024 l 610 951 q 394 983 507 983 q 190 929 258 983 q 122 772 122 875 q 143 672 122 712 q 210 603 164 631 q 336 555 257 576 l 382 543 q 587 441 522 507 q 652 267 652 375 q 563 60 652 132 q 308 -12 473 -12 m 559 1121 l 494 1121 l 360 1277 l 226 1121 l 160 1121 l 328 1312 l 392 1312 l 559 1121 z "},"Ș":{"ha":709,"x_min":58,"x_max":652,"o":"m 308 -12 q 188 -2 250 -12 q 69 27 126 8 l 69 85 q 310 44 190 44 q 518 100 449 44 q 588 264 588 156 q 565 366 588 325 q 492 435 542 407 q 360 484 443 463 l 314 496 q 120 595 183 529 q 58 769 58 661 q 96 914 58 853 q 210 1008 134 975 q 396 1040 285 1040 q 508 1032 451 1040 q 610 1009 564 1024 l 610 951 q 394 983 507 983 q 190 929 258 983 q 122 772 122 875 q 143 672 122 712 q 210 603 164 631 q 336 555 257 576 l 382 543 q 587 441 522 507 q 652 267 652 375 q 563 60 652 132 q 308 -12 473 -12 m 358 -124 q 396 -141 382 -124 q 410 -188 410 -157 q 401 -249 410 -215 q 377 -314 392 -283 l 338 -314 q 363 -218 359 -260 l 360 -218 q 324 -205 338 -218 q 310 -171 310 -192 q 323 -137 310 -150 q 358 -124 336 -124 z "},"Ṡ":{"ha":709,"x_min":58,"x_max":652,"o":"m 308 -12 q 188 -2 250 -12 q 69 27 126 8 l 69 85 q 310 44 190 44 q 518 100 449 44 q 588 264 588 156 q 565 366 588 325 q 492 435 542 407 q 360 484 443 463 l 314 496 q 120 595 183 529 q 58 769 58 661 q 96 914 58 853 q 210 1008 134 975 q 396 1040 285 1040 q 508 1032 451 1040 q 610 1009 564 1024 l 610 951 q 394 983 507 983 q 190 929 258 983 q 122 772 122 875 q 143 672 122 712 q 210 603 164 631 q 336 555 257 576 l 382 543 q 587 441 522 507 q 652 267 652 375 q 563 60 652 132 q 308 -12 473 -12 m 360 1169 q 324 1182 338 1169 q 310 1217 310 1195 q 324 1252 310 1238 q 360 1265 338 1265 q 397 1252 383 1265 q 410 1217 410 1239 q 397 1182 410 1195 q 360 1169 383 1169 z "},"Ṣ":{"ha":709,"x_min":58,"x_max":652,"o":"m 308 -12 q 188 -2 250 -12 q 69 27 126 8 l 69 85 q 310 44 190 44 q 518 100 449 44 q 588 264 588 156 q 565 366 588 325 q 492 435 542 407 q 360 484 443 463 l 314 496 q 120 595 183 529 q 58 769 58 661 q 96 914 58 853 q 210 1008 134 975 q 396 1040 285 1040 q 508 1032 451 1040 q 610 1009 564 1024 l 610 951 q 394 983 507 983 q 190 929 258 983 q 122 772 122 875 q 143 672 122 712 q 210 603 164 631 q 336 555 257 576 l 382 543 q 587 441 522 507 q 652 267 652 375 q 563 60 652 132 q 308 -12 473 -12 m 360 -222 q 324 -208 338 -222 q 310 -174 310 -195 q 324 -138 310 -151 q 360 -124 338 -124 q 397 -138 383 -124 q 410 -174 410 -151 q 397 -208 410 -195 q 360 -222 383 -222 z "},"Ṩ":{"ha":709,"x_min":58,"x_max":652,"o":"m 308 -12 q 188 -2 250 -12 q 69 27 126 8 l 69 85 q 310 44 190 44 q 518 100 449 44 q 588 264 588 156 q 565 366 588 325 q 492 435 542 407 q 360 484 443 463 l 314 496 q 120 595 183 529 q 58 769 58 661 q 96 914 58 853 q 210 1008 134 975 q 396 1040 285 1040 q 508 1032 451 1040 q 610 1009 564 1024 l 610 951 q 394 983 507 983 q 190 929 258 983 q 122 772 122 875 q 143 672 122 712 q 210 603 164 631 q 336 555 257 576 l 382 543 q 587 441 522 507 q 652 267 652 375 q 563 60 652 132 q 308 -12 473 -12 m 360 -222 q 324 -208 338 -222 q 310 -174 310 -195 q 324 -138 310 -151 q 360 -124 338 -124 q 397 -138 383 -124 q 410 -174 410 -151 q 397 -208 410 -195 q 360 -222 383 -222 m 360 1169 q 324 1182 338 1169 q 310 1217 310 1195 q 324 1252 310 1238 q 360 1265 338 1265 q 397 1252 383 1265 q 410 1217 410 1239 q 397 1182 410 1195 q 360 1169 383 1169 z "},"ẞ":{"ha":1138,"x_min":128,"x_max":1080,"o":"m 811 543 q 1015 441 951 507 q 1080 267 1080 375 q 991 60 1080 132 q 737 -12 902 -12 q 617 -2 679 -12 q 499 27 556 8 l 499 85 q 739 44 620 44 q 947 100 877 44 q 1017 264 1017 156 q 993 366 1017 325 q 921 435 970 407 q 788 484 872 463 l 743 496 q 550 596 613 530 q 488 769 488 662 q 581 974 488 903 q 484 984 536 984 q 260 908 331 984 q 190 667 190 831 l 190 0 l 128 0 l 128 658 q 215 948 128 856 q 484 1040 301 1040 q 652 1013 583 1040 q 825 1040 725 1040 q 936 1032 880 1040 q 1039 1009 992 1024 l 1039 951 q 824 983 935 983 q 619 929 688 983 q 551 772 551 875 q 572 672 551 712 q 640 603 593 631 q 765 555 686 576 l 811 543 z "},"Ə":{"ha":961,"x_min":73,"x_max":881,"o":"m 392 1040 q 756 915 631 1040 q 881 513 881 789 q 775 114 881 240 q 480 -12 669 -12 q 180 113 286 -12 q 73 507 73 238 l 73 545 l 816 545 q 762 803 812 706 q 620 942 713 899 q 389 984 528 984 q 256 976 325 984 q 125 950 188 967 l 125 1008 q 392 1040 249 1040 m 480 44 q 725 148 638 44 q 817 490 813 252 l 138 490 q 229 148 142 251 q 480 44 316 44 z "},"T":{"ha":782,"x_min":10,"x_max":772,"o":"m 360 0 l 360 971 l 10 971 l 10 1028 l 772 1028 l 772 971 l 422 971 l 422 0 l 360 0 z "},"Ŧ":{"ha":782,"x_min":10,"x_max":772,"o":"m 772 971 l 422 971 l 422 576 l 655 576 l 655 526 l 422 526 l 422 0 l 360 0 l 360 526 l 128 526 l 128 576 l 360 576 l 360 971 l 10 971 l 10 1028 l 772 1028 l 772 971 z "},"Ť":{"ha":782,"x_min":10,"x_max":772,"o":"m 360 0 l 360 971 l 10 971 l 10 1028 l 772 1028 l 772 971 l 422 971 l 422 0 l 360 0 m 525 1312 l 590 1312 l 423 1121 l 360 1121 l 192 1312 l 257 1312 l 391 1156 l 525 1312 z "},"Ţ":{"ha":782,"x_min":10,"x_max":772,"o":"m 413 0 l 413 -76 q 502 -105 469 -79 q 534 -178 534 -131 q 498 -254 534 -228 q 397 -280 461 -280 q 329 -273 363 -280 q 267 -253 295 -267 l 267 -211 q 334 -234 303 -227 q 397 -240 365 -240 q 465 -225 441 -240 q 489 -177 489 -209 q 395 -115 489 -115 l 368 -115 l 368 0 l 360 0 l 360 971 l 10 971 l 10 1028 l 772 1028 l 772 971 l 422 971 l 422 0 l 413 0 z "},"Ț":{"ha":782,"x_min":10,"x_max":772,"o":"m 360 0 l 360 971 l 10 971 l 10 1028 l 772 1028 l 772 971 l 422 971 l 422 0 l 360 0 m 389 -124 q 427 -141 413 -124 q 441 -188 441 -157 q 432 -249 441 -215 q 408 -314 424 -283 l 369 -314 q 394 -218 390 -260 l 391 -218 q 355 -205 369 -218 q 342 -171 342 -192 q 355 -137 342 -150 q 389 -124 367 -124 z "},"Ṭ":{"ha":782,"x_min":10,"x_max":772,"o":"m 360 0 l 360 971 l 10 971 l 10 1028 l 772 1028 l 772 971 l 422 971 l 422 0 l 360 0 m 391 -222 q 355 -208 369 -222 q 341 -174 341 -195 q 355 -138 341 -151 q 391 -124 369 -124 q 428 -138 414 -124 q 442 -174 442 -151 q 428 -208 442 -195 q 391 -222 414 -222 z "},"Ṯ":{"ha":782,"x_min":10,"x_max":772,"o":"m 360 0 l 360 971 l 10 971 l 10 1028 l 772 1028 l 772 971 l 422 971 l 422 0 l 360 0 m 198 -198 l 198 -149 l 584 -149 l 584 -198 l 198 -198 z "},"U":{"ha":960,"x_min":124,"x_max":836,"o":"m 481 -12 q 278 28 357 -12 q 162 154 200 69 q 124 372 124 239 l 124 1028 l 185 1028 l 185 364 q 216 183 185 253 q 312 78 247 113 q 481 44 377 44 q 649 78 584 44 q 745 183 715 113 q 776 364 776 253 l 776 1028 l 836 1028 l 836 372 q 798 154 836 239 q 682 28 760 69 q 481 -12 603 -12 z "},"Ú":{"ha":960,"x_min":124,"x_max":836,"o":"m 481 -12 q 278 28 357 -12 q 162 154 200 69 q 124 372 124 239 l 124 1028 l 185 1028 l 185 364 q 216 183 185 253 q 312 78 247 113 q 481 44 377 44 q 649 78 584 44 q 745 183 715 113 q 776 364 776 253 l 776 1028 l 836 1028 l 836 372 q 798 154 836 239 q 682 28 760 69 q 481 -12 603 -12 m 452 1121 l 574 1312 l 643 1312 l 509 1121 l 452 1121 z "},"Ŭ":{"ha":960,"x_min":124,"x_max":836,"o":"m 481 -12 q 278 28 357 -12 q 162 154 200 69 q 124 372 124 239 l 124 1028 l 185 1028 l 185 364 q 216 183 185 253 q 312 78 247 113 q 481 44 377 44 q 649 78 584 44 q 745 183 715 113 q 776 364 776 253 l 776 1028 l 836 1028 l 836 372 q 798 154 836 239 q 682 28 760 69 q 481 -12 603 -12 m 482 1129 q 338 1173 389 1129 q 279 1293 286 1217 l 327 1293 q 371 1204 335 1233 q 482 1175 407 1175 q 592 1204 557 1175 q 634 1293 627 1233 l 682 1293 q 626 1172 676 1215 q 482 1129 576 1129 z "},"Û":{"ha":960,"x_min":124,"x_max":836,"o":"m 481 -12 q 278 28 357 -12 q 162 154 200 69 q 124 372 124 239 l 124 1028 l 185 1028 l 185 364 q 216 183 185 253 q 312 78 247 113 q 481 44 377 44 q 649 78 584 44 q 745 183 715 113 q 776 364 776 253 l 776 1028 l 836 1028 l 836 372 q 798 154 836 239 q 682 28 760 69 q 481 -12 603 -12 m 680 1121 l 615 1121 l 481 1277 l 347 1121 l 281 1121 l 449 1312 l 513 1312 l 680 1121 z "},"Ȕ":{"ha":960,"x_min":124,"x_max":836,"o":"m 481 -12 q 278 28 357 -12 q 162 154 200 69 q 124 372 124 239 l 124 1028 l 185 1028 l 185 364 q 216 183 185 253 q 312 78 247 113 q 481 44 377 44 q 649 78 584 44 q 745 183 715 113 q 776 364 776 253 l 776 1028 l 836 1028 l 836 372 q 798 154 836 239 q 682 28 760 69 q 481 -12 603 -12 m 349 1121 l 258 1312 l 315 1312 l 401 1121 l 349 1121 m 560 1121 l 469 1312 l 526 1312 l 613 1121 l 560 1121 z "},"Ü":{"ha":960,"x_min":124,"x_max":836,"o":"m 481 -12 q 278 28 357 -12 q 162 154 200 69 q 124 372 124 239 l 124 1028 l 185 1028 l 185 364 q 216 183 185 253 q 312 78 247 113 q 481 44 377 44 q 649 78 584 44 q 745 183 715 113 q 776 364 776 253 l 776 1028 l 836 1028 l 836 372 q 798 154 836 239 q 682 28 760 69 q 481 -12 603 -12 m 326 1169 q 290 1182 303 1169 q 276 1217 276 1195 q 290 1252 276 1238 q 326 1265 303 1265 q 361 1252 348 1265 q 375 1217 375 1238 q 361 1182 375 1195 q 326 1169 348 1169 m 635 1169 q 600 1182 613 1169 q 587 1217 587 1195 q 600 1252 587 1239 q 635 1265 613 1265 q 671 1252 658 1265 q 685 1217 685 1239 q 671 1182 685 1195 q 635 1169 658 1169 z "},"Ụ":{"ha":960,"x_min":124,"x_max":836,"o":"m 481 -12 q 278 28 357 -12 q 162 154 200 69 q 124 372 124 239 l 124 1028 l 185 1028 l 185 364 q 216 183 185 253 q 312 78 247 113 q 481 44 377 44 q 649 78 584 44 q 745 183 715 113 q 776 364 776 253 l 776 1028 l 836 1028 l 836 372 q 798 154 836 239 q 682 28 760 69 q 481 -12 603 -12 m 481 -222 q 444 -208 458 -222 q 431 -174 431 -195 q 444 -138 431 -151 q 481 -124 458 -124 q 517 -138 503 -124 q 531 -174 531 -151 q 517 -208 531 -195 q 481 -222 503 -222 z "},"Ù":{"ha":960,"x_min":124,"x_max":836,"o":"m 481 -12 q 278 28 357 -12 q 162 154 200 69 q 124 372 124 239 l 124 1028 l 185 1028 l 185 364 q 216 183 185 253 q 312 78 247 113 q 481 44 377 44 q 649 78 584 44 q 745 183 715 113 q 776 364 776 253 l 776 1028 l 836 1028 l 836 372 q 798 154 836 239 q 682 28 760 69 q 481 -12 603 -12 m 452 1121 l 318 1312 l 388 1312 l 509 1121 l 452 1121 z "},"Ủ":{"ha":960,"x_min":124,"x_max":836,"o":"m 481 -12 q 278 28 357 -12 q 162 154 200 69 q 124 372 124 239 l 124 1028 l 185 1028 l 185 364 q 216 183 185 253 q 312 78 247 113 q 481 44 377 44 q 649 78 584 44 q 745 183 715 113 q 776 364 776 253 l 776 1028 l 836 1028 l 836 372 q 798 154 836 239 q 682 28 760 69 q 481 -12 603 -12 m 456 1121 q 466 1155 456 1141 q 490 1176 476 1168 q 524 1193 503 1183 q 560 1211 549 1203 q 572 1235 572 1220 q 554 1262 572 1253 q 489 1272 535 1272 q 420 1266 453 1272 q 353 1247 388 1260 l 353 1288 q 490 1313 409 1313 q 587 1292 555 1313 q 619 1238 619 1272 q 603 1196 619 1210 q 557 1169 588 1182 q 519 1148 531 1157 q 505 1121 507 1138 l 456 1121 z "},"Ư":{"ha":960,"x_min":124,"x_max":995,"o":"m 481 -12 q 278 28 357 -12 q 162 154 200 69 q 124 372 124 239 l 124 1028 l 185 1028 l 185 364 q 216 183 185 253 q 312 78 247 113 q 481 44 377 44 q 649 78 584 44 q 745 183 715 113 q 776 364 776 253 l 776 1028 l 803 1028 q 905 1054 869 1028 q 941 1135 941 1080 q 937 1183 941 1161 q 924 1233 933 1206 l 978 1233 q 991 1185 987 1208 q 995 1133 995 1163 q 953 1024 995 1064 q 836 981 910 985 l 836 372 q 798 154 836 239 q 682 28 760 69 q 481 -12 603 -12 z "},"Ứ":{"ha":960,"x_min":124,"x_max":995,"o":"m 481 -12 q 278 28 357 -12 q 162 154 200 69 q 124 372 124 239 l 124 1028 l 185 1028 l 185 364 q 216 183 185 253 q 312 78 247 113 q 481 44 377 44 q 649 78 584 44 q 745 183 715 113 q 776 364 776 253 l 776 1028 l 803 1028 q 905 1054 869 1028 q 941 1135 941 1080 q 937 1183 941 1161 q 924 1233 933 1206 l 978 1233 q 991 1185 987 1208 q 995 1133 995 1163 q 953 1024 995 1064 q 836 981 910 985 l 836 372 q 798 154 836 239 q 682 28 760 69 q 481 -12 603 -12 m 452 1121 l 574 1312 l 643 1312 l 509 1121 l 452 1121 z "},"Ự":{"ha":960,"x_min":124,"x_max":995,"o":"m 481 -12 q 278 28 357 -12 q 162 154 200 69 q 124 372 124 239 l 124 1028 l 185 1028 l 185 364 q 216 183 185 253 q 312 78 247 113 q 481 44 377 44 q 649 78 584 44 q 745 183 715 113 q 776 364 776 253 l 776 1028 l 803 1028 q 905 1054 869 1028 q 941 1135 941 1080 q 937 1183 941 1161 q 924 1233 933 1206 l 978 1233 q 991 1185 987 1208 q 995 1133 995 1163 q 953 1024 995 1064 q 836 981 910 985 l 836 372 q 798 154 836 239 q 682 28 760 69 q 481 -12 603 -12 m 481 -222 q 444 -208 458 -222 q 431 -174 431 -195 q 444 -138 431 -151 q 481 -124 458 -124 q 517 -138 503 -124 q 531 -174 531 -151 q 517 -208 531 -195 q 481 -222 503 -222 z "},"Ừ":{"ha":960,"x_min":124,"x_max":995,"o":"m 481 -12 q 278 28 357 -12 q 162 154 200 69 q 124 372 124 239 l 124 1028 l 185 1028 l 185 364 q 216 183 185 253 q 312 78 247 113 q 481 44 377 44 q 649 78 584 44 q 745 183 715 113 q 776 364 776 253 l 776 1028 l 803 1028 q 905 1054 869 1028 q 941 1135 941 1080 q 937 1183 941 1161 q 924 1233 933 1206 l 978 1233 q 991 1185 987 1208 q 995 1133 995 1163 q 953 1024 995 1064 q 836 981 910 985 l 836 372 q 798 154 836 239 q 682 28 760 69 q 481 -12 603 -12 m 452 1121 l 318 1312 l 388 1312 l 509 1121 l 452 1121 z "},"Ử":{"ha":960,"x_min":124,"x_max":995,"o":"m 481 -12 q 278 28 357 -12 q 162 154 200 69 q 124 372 124 239 l 124 1028 l 185 1028 l 185 364 q 216 183 185 253 q 312 78 247 113 q 481 44 377 44 q 649 78 584 44 q 745 183 715 113 q 776 364 776 253 l 776 1028 l 803 1028 q 905 1054 869 1028 q 941 1135 941 1080 q 937 1183 941 1161 q 924 1233 933 1206 l 978 1233 q 991 1185 987 1208 q 995 1133 995 1163 q 953 1024 995 1064 q 836 981 910 985 l 836 372 q 798 154 836 239 q 682 28 760 69 q 481 -12 603 -12 m 456 1121 q 466 1155 456 1141 q 490 1176 476 1168 q 524 1193 503 1183 q 560 1211 549 1203 q 572 1235 572 1220 q 554 1262 572 1253 q 489 1272 535 1272 q 420 1266 453 1272 q 353 1247 388 1260 l 353 1288 q 490 1313 409 1313 q 587 1292 555 1313 q 619 1238 619 1272 q 603 1196 619 1210 q 557 1169 588 1182 q 519 1148 531 1157 q 505 1121 507 1138 l 456 1121 z "},"Ữ":{"ha":960,"x_min":124,"x_max":995,"o":"m 481 -12 q 278 28 357 -12 q 162 154 200 69 q 124 372 124 239 l 124 1028 l 185 1028 l 185 364 q 216 183 185 253 q 312 78 247 113 q 481 44 377 44 q 649 78 584 44 q 745 183 715 113 q 776 364 776 253 l 776 1028 l 803 1028 q 905 1054 869 1028 q 941 1135 941 1080 q 937 1183 941 1161 q 924 1233 933 1206 l 978 1233 q 991 1185 987 1208 q 995 1133 995 1163 q 953 1024 995 1064 q 836 981 910 985 l 836 372 q 798 154 836 239 q 682 28 760 69 q 481 -12 603 -12 m 583 1174 q 530 1182 555 1174 q 471 1203 505 1189 q 420 1221 440 1215 q 379 1227 400 1227 q 318 1215 344 1227 q 269 1178 292 1203 l 269 1231 q 379 1274 308 1274 q 432 1266 407 1274 q 491 1245 457 1259 q 542 1227 522 1233 q 583 1221 562 1221 q 643 1233 617 1221 q 693 1270 669 1244 l 693 1217 q 583 1174 653 1174 z "},"Ű":{"ha":960,"x_min":124,"x_max":836,"o":"m 481 -12 q 278 28 357 -12 q 162 154 200 69 q 124 372 124 239 l 124 1028 l 185 1028 l 185 364 q 216 183 185 253 q 312 78 247 113 q 481 44 377 44 q 649 78 584 44 q 745 183 715 113 q 776 364 776 253 l 776 1028 l 836 1028 l 836 372 q 798 154 836 239 q 682 28 760 69 q 481 -12 603 -12 m 349 1121 l 435 1312 l 493 1312 l 401 1121 l 349 1121 m 560 1121 l 647 1312 l 704 1312 l 613 1121 l 560 1121 z "},"Ȗ":{"ha":960,"x_min":124,"x_max":836,"o":"m 481 -12 q 278 28 357 -12 q 162 154 200 69 q 124 372 124 239 l 124 1028 l 185 1028 l 185 364 q 216 183 185 253 q 312 78 247 113 q 481 44 377 44 q 649 78 584 44 q 745 183 715 113 q 776 364 776 253 l 776 1028 l 836 1028 l 836 372 q 798 154 836 239 q 682 28 760 69 q 481 -12 603 -12 m 279 1140 q 336 1260 286 1217 q 479 1303 386 1303 q 624 1260 573 1303 q 682 1140 676 1216 l 634 1140 q 590 1228 626 1199 q 479 1258 554 1258 q 369 1228 404 1258 q 327 1140 334 1199 l 279 1140 z "},"Ū":{"ha":960,"x_min":124,"x_max":836,"o":"m 481 -12 q 278 28 357 -12 q 162 154 200 69 q 124 372 124 239 l 124 1028 l 185 1028 l 185 364 q 216 183 185 253 q 312 78 247 113 q 481 44 377 44 q 649 78 584 44 q 745 183 715 113 q 776 364 776 253 l 776 1028 l 836 1028 l 836 372 q 798 154 836 239 q 682 28 760 69 q 481 -12 603 -12 m 288 1192 l 288 1241 l 674 1241 l 674 1192 l 288 1192 z "},"Ṻ":{"ha":960,"x_min":124,"x_max":836,"o":"m 481 -12 q 278 28 357 -12 q 162 154 200 69 q 124 372 124 239 l 124 1028 l 185 1028 l 185 364 q 216 183 185 253 q 312 78 247 113 q 481 44 377 44 q 649 78 584 44 q 745 183 715 113 q 776 364 776 253 l 776 1028 l 836 1028 l 836 372 q 798 154 836 239 q 682 28 760 69 q 481 -12 603 -12 m 288 1192 l 288 1241 l 674 1241 l 674 1192 l 288 1192 m 326 1334 q 290 1347 303 1334 q 276 1382 276 1360 q 290 1417 276 1403 q 326 1431 303 1431 q 361 1417 348 1431 q 375 1382 375 1403 q 361 1347 375 1360 q 326 1334 348 1334 m 635 1334 q 600 1347 613 1334 q 587 1382 587 1360 q 600 1417 587 1404 q 635 1431 613 1431 q 671 1417 658 1431 q 685 1382 685 1404 q 671 1347 685 1360 q 635 1334 658 1334 z "},"Ų":{"ha":960,"x_min":124,"x_max":836,"o":"m 836 1028 l 836 372 q 785 128 836 219 q 620 4 733 37 q 442 -155 442 -48 q 545 -238 442 -238 q 599 -232 572 -238 q 662 -210 626 -226 l 662 -252 q 545 -279 603 -279 q 434 -248 472 -279 q 396 -157 396 -216 q 418 -77 396 -115 q 487 -12 440 -40 l 481 -12 q 278 28 357 -12 q 162 154 200 69 q 124 372 124 239 l 124 1028 l 185 1028 l 185 364 q 216 183 185 253 q 312 78 247 113 q 481 44 377 44 q 649 78 584 44 q 745 183 715 113 q 776 364 776 253 l 776 1028 l 836 1028 z "},"Ů":{"ha":960,"x_min":124,"x_max":836,"o":"m 481 -12 q 278 28 357 -12 q 162 154 200 69 q 124 372 124 239 l 124 1028 l 185 1028 l 185 364 q 216 183 185 253 q 312 78 247 113 q 481 44 377 44 q 649 78 584 44 q 745 183 715 113 q 776 364 776 253 l 776 1028 l 836 1028 l 836 372 q 798 154 836 239 q 682 28 760 69 q 481 -12 603 -12 m 481 1117 q 414 1134 444 1117 q 368 1180 385 1151 q 351 1247 351 1210 q 368 1313 351 1283 q 414 1359 385 1342 q 481 1376 444 1376 q 547 1359 517 1376 q 594 1313 577 1342 q 610 1247 610 1283 q 594 1180 610 1210 q 547 1134 577 1151 q 481 1117 517 1117 m 481 1157 q 544 1181 520 1157 q 569 1247 569 1206 q 544 1312 569 1288 q 481 1336 520 1336 q 417 1312 442 1336 q 392 1247 392 1288 q 417 1181 392 1206 q 481 1157 442 1157 z "},"Ũ":{"ha":960,"x_min":124,"x_max":836,"o":"m 481 -12 q 278 28 357 -12 q 162 154 200 69 q 124 372 124 239 l 124 1028 l 185 1028 l 185 364 q 216 183 185 253 q 312 78 247 113 q 481 44 377 44 q 649 78 584 44 q 745 183 715 113 q 776 364 776 253 l 776 1028 l 836 1028 l 836 372 q 798 154 836 239 q 682 28 760 69 q 481 -12 603 -12 m 583 1174 q 530 1182 555 1174 q 471 1203 505 1189 q 420 1221 440 1215 q 379 1227 400 1227 q 318 1215 344 1227 q 269 1178 292 1203 l 269 1231 q 379 1274 308 1274 q 432 1266 407 1274 q 491 1245 457 1259 q 542 1227 522 1233 q 583 1221 562 1221 q 643 1233 617 1221 q 693 1270 669 1244 l 693 1217 q 583 1174 653 1174 z "},"Ṹ":{"ha":960,"x_min":124,"x_max":836,"o":"m 481 -12 q 278 28 357 -12 q 162 154 200 69 q 124 372 124 239 l 124 1028 l 185 1028 l 185 364 q 216 183 185 253 q 312 78 247 113 q 481 44 377 44 q 649 78 584 44 q 745 183 715 113 q 776 364 776 253 l 776 1028 l 836 1028 l 836 372 q 798 154 836 239 q 682 28 760 69 q 481 -12 603 -12 m 451 1313 l 573 1474 l 644 1474 l 510 1313 l 451 1313 m 583 1174 q 530 1182 555 1174 q 471 1203 505 1189 q 420 1221 440 1215 q 379 1227 400 1227 q 318 1215 344 1227 q 269 1178 292 1203 l 269 1231 q 379 1274 308 1274 q 432 1266 407 1274 q 491 1245 457 1259 q 542 1227 522 1233 q 583 1221 562 1221 q 643 1233 617 1221 q 693 1270 669 1244 l 693 1217 q 583 1174 653 1174 z "},"V":{"ha":875,"x_min":11,"x_max":865,"o":"m 801 1028 l 865 1028 l 481 0 l 394 0 l 11 1028 l 78 1028 l 440 51 l 801 1028 z "},"W":{"ha":1417,"x_min":46,"x_max":1371,"o":"m 1310 1028 l 1371 1028 l 1074 0 l 990 0 l 709 960 l 427 0 l 344 0 l 46 1028 l 110 1028 l 388 60 l 669 1028 l 749 1028 l 1031 58 l 1310 1028 z "},"Ẃ":{"ha":1417,"x_min":46,"x_max":1371,"o":"m 1310 1028 l 1371 1028 l 1074 0 l 990 0 l 709 960 l 427 0 l 344 0 l 46 1028 l 110 1028 l 388 60 l 669 1028 l 749 1028 l 1031 58 l 1310 1028 m 681 1121 l 803 1312 l 872 1312 l 738 1121 l 681 1121 z "},"Ŵ":{"ha":1417,"x_min":46,"x_max":1371,"o":"m 1310 1028 l 1371 1028 l 1074 0 l 990 0 l 709 960 l 427 0 l 344 0 l 46 1028 l 110 1028 l 388 60 l 669 1028 l 749 1028 l 1031 58 l 1310 1028 m 909 1121 l 844 1121 l 710 1277 l 576 1121 l 510 1121 l 678 1312 l 742 1312 l 909 1121 z "},"Ẅ":{"ha":1417,"x_min":46,"x_max":1371,"o":"m 1310 1028 l 1371 1028 l 1074 0 l 990 0 l 709 960 l 427 0 l 344 0 l 46 1028 l 110 1028 l 388 60 l 669 1028 l 749 1028 l 1031 58 l 1310 1028 m 555 1169 q 519 1182 533 1169 q 506 1217 506 1195 q 519 1252 506 1238 q 555 1265 533 1265 q 591 1252 577 1265 q 604 1217 604 1238 q 591 1182 604 1195 q 555 1169 577 1169 m 865 1169 q 829 1182 842 1169 q 816 1217 816 1195 q 829 1252 816 1239 q 865 1265 842 1265 q 900 1252 887 1265 q 914 1217 914 1239 q 900 1182 914 1195 q 865 1169 887 1169 z "},"Ẁ":{"ha":1417,"x_min":46,"x_max":1371,"o":"m 1310 1028 l 1371 1028 l 1074 0 l 990 0 l 709 960 l 427 0 l 344 0 l 46 1028 l 110 1028 l 388 60 l 669 1028 l 749 1028 l 1031 58 l 1310 1028 m 681 1121 l 547 1312 l 617 1312 l 738 1121 l 681 1121 z "},"X":{"ha":857,"x_min":21,"x_max":835,"o":"m 465 521 l 835 0 l 761 0 l 428 469 l 94 0 l 21 0 l 391 520 l 29 1028 l 103 1028 l 428 571 l 755 1028 l 827 1028 l 465 521 z "},"Y":{"ha":782,"x_min":-15,"x_max":791,"o":"m 791 1028 l 422 468 l 422 0 l 360 0 l 360 468 l -15 1028 l 57 1028 l 392 526 l 722 1028 l 791 1028 z "},"Ý":{"ha":782,"x_min":-15,"x_max":791,"o":"m 791 1028 l 422 468 l 422 0 l 360 0 l 360 468 l -15 1028 l 57 1028 l 392 526 l 722 1028 l 791 1028 m 363 1121 l 485 1312 l 553 1312 l 419 1121 l 363 1121 z "},"Ŷ":{"ha":782,"x_min":-15,"x_max":791,"o":"m 791 1028 l 422 468 l 422 0 l 360 0 l 360 468 l -15 1028 l 57 1028 l 392 526 l 722 1028 l 791 1028 m 590 1121 l 525 1121 l 391 1277 l 257 1121 l 192 1121 l 360 1312 l 423 1312 l 590 1121 z "},"Ÿ":{"ha":782,"x_min":-15,"x_max":791,"o":"m 791 1028 l 422 468 l 422 0 l 360 0 l 360 468 l -15 1028 l 57 1028 l 392 526 l 722 1028 l 791 1028 m 236 1169 q 200 1182 214 1169 q 187 1217 187 1195 q 200 1252 187 1238 q 236 1265 214 1265 q 272 1252 258 1265 q 285 1217 285 1238 q 272 1182 285 1195 q 236 1169 258 1169 m 546 1169 q 510 1182 524 1169 q 497 1217 497 1195 q 510 1252 497 1239 q 546 1265 524 1265 q 582 1252 568 1265 q 595 1217 595 1239 q 582 1182 595 1195 q 546 1169 568 1169 z "},"Ẏ":{"ha":782,"x_min":-15,"x_max":791,"o":"m 791 1028 l 422 468 l 422 0 l 360 0 l 360 468 l -15 1028 l 57 1028 l 392 526 l 722 1028 l 791 1028 m 391 1169 q 355 1182 369 1169 q 341 1217 341 1195 q 355 1252 341 1238 q 391 1265 369 1265 q 428 1252 414 1265 q 442 1217 442 1239 q 428 1182 442 1195 q 391 1169 414 1169 z "},"Ỵ":{"ha":782,"x_min":-15,"x_max":791,"o":"m 791 1028 l 422 468 l 422 0 l 360 0 l 360 468 l -15 1028 l 57 1028 l 392 526 l 722 1028 l 791 1028 m 391 -222 q 355 -208 369 -222 q 341 -174 341 -195 q 355 -138 341 -151 q 391 -124 369 -124 q 428 -138 414 -124 q 442 -174 442 -151 q 428 -208 442 -195 q 391 -222 414 -222 z "},"Ỳ":{"ha":782,"x_min":-15,"x_max":791,"o":"m 791 1028 l 422 468 l 422 0 l 360 0 l 360 468 l -15 1028 l 57 1028 l 392 526 l 722 1028 l 791 1028 m 363 1121 l 228 1312 l 298 1312 l 419 1121 l 363 1121 z "},"Ỷ":{"ha":782,"x_min":-15,"x_max":791,"o":"m 791 1028 l 422 468 l 422 0 l 360 0 l 360 468 l -15 1028 l 57 1028 l 392 526 l 722 1028 l 791 1028 m 366 1121 q 377 1155 367 1141 q 400 1176 387 1168 q 435 1193 413 1183 q 471 1211 459 1203 q 483 1235 483 1220 q 464 1262 483 1253 q 399 1272 446 1272 q 331 1266 363 1272 q 263 1247 298 1260 l 263 1288 q 401 1313 319 1313 q 498 1292 465 1313 q 530 1238 530 1272 q 514 1196 530 1210 q 467 1169 498 1182 q 430 1148 442 1157 q 415 1121 417 1138 l 366 1121 z "},"Ȳ":{"ha":782,"x_min":-15,"x_max":791,"o":"m 791 1028 l 422 468 l 422 0 l 360 0 l 360 468 l -15 1028 l 57 1028 l 392 526 l 722 1028 l 791 1028 m 198 1192 l 198 1241 l 584 1241 l 584 1192 l 198 1192 z "},"Ỹ":{"ha":782,"x_min":-15,"x_max":791,"o":"m 791 1028 l 422 468 l 422 0 l 360 0 l 360 468 l -15 1028 l 57 1028 l 392 526 l 722 1028 l 791 1028 m 493 1174 q 440 1182 465 1174 q 381 1203 415 1189 q 330 1221 350 1215 q 290 1227 310 1227 q 229 1215 255 1227 q 179 1178 203 1203 l 179 1231 q 290 1274 218 1274 q 342 1266 317 1274 q 401 1245 367 1259 q 452 1227 433 1233 q 493 1221 472 1221 q 553 1233 527 1221 q 603 1270 580 1244 l 603 1217 q 493 1174 564 1174 z "},"Z":{"ha":774,"x_min":44,"x_max":730,"o":"m 127 56 l 730 56 l 730 0 l 44 0 l 44 35 l 638 972 l 51 972 l 51 1028 l 722 1028 l 722 992 l 127 56 z "},"Ź":{"ha":774,"x_min":44,"x_max":730,"o":"m 127 56 l 730 56 l 730 0 l 44 0 l 44 35 l 638 972 l 51 972 l 51 1028 l 722 1028 l 722 992 l 127 56 m 358 1121 l 481 1312 l 549 1312 l 415 1121 l 358 1121 z "},"Ž":{"ha":774,"x_min":44,"x_max":730,"o":"m 127 56 l 730 56 l 730 0 l 44 0 l 44 35 l 638 972 l 51 972 l 51 1028 l 722 1028 l 722 992 l 127 56 m 521 1312 l 586 1312 l 419 1121 l 356 1121 l 188 1312 l 253 1312 l 387 1156 l 521 1312 z "},"Ż":{"ha":774,"x_min":44,"x_max":730,"o":"m 127 56 l 730 56 l 730 0 l 44 0 l 44 35 l 638 972 l 51 972 l 51 1028 l 722 1028 l 722 992 l 127 56 m 387 1169 q 351 1182 365 1169 q 337 1217 337 1195 q 351 1252 337 1238 q 387 1265 365 1265 q 424 1252 410 1265 q 438 1217 438 1239 q 424 1182 438 1195 q 387 1169 410 1169 z "},"Ẓ":{"ha":774,"x_min":44,"x_max":730,"o":"m 127 56 l 730 56 l 730 0 l 44 0 l 44 35 l 638 972 l 51 972 l 51 1028 l 722 1028 l 722 992 l 127 56 m 387 -222 q 351 -208 365 -222 q 337 -174 337 -195 q 351 -138 337 -151 q 387 -124 365 -124 q 424 -138 410 -124 q 438 -174 438 -151 q 424 -208 438 -195 q 387 -222 410 -222 z "},"a":{"ha":688,"x_min":72,"x_max":582,"o":"m 320 762 q 465 738 408 762 q 552 660 522 715 q 582 513 582 606 l 582 0 l 528 0 l 524 88 l 518 88 q 420 15 479 41 q 293 -11 361 -11 q 131 41 190 -11 q 72 187 72 93 q 134 335 72 283 q 327 402 195 388 l 521 425 l 521 514 q 498 630 521 588 q 430 689 474 672 q 317 706 386 706 q 218 698 271 706 q 115 672 165 690 l 115 728 q 213 753 158 744 q 320 762 269 762 m 301 43 q 420 70 363 43 q 521 156 477 98 l 521 373 l 328 351 q 183 301 228 340 q 138 192 138 263 q 178 81 138 119 q 301 43 219 43 z "},"á":{"ha":688,"x_min":72,"x_max":582,"o":"m 320 762 q 465 738 408 762 q 552 660 522 715 q 582 513 582 606 l 582 0 l 528 0 l 524 88 l 518 88 q 420 15 479 41 q 293 -11 361 -11 q 131 41 190 -11 q 72 187 72 93 q 134 335 72 283 q 327 402 195 388 l 521 425 l 521 514 q 498 630 521 588 q 430 689 474 672 q 317 706 386 706 q 218 698 271 706 q 115 672 165 690 l 115 728 q 213 753 158 744 q 320 762 269 762 m 301 43 q 420 70 363 43 q 521 156 477 98 l 521 373 l 328 351 q 183 301 228 340 q 138 192 138 263 q 178 81 138 119 q 301 43 219 43 m 313 876 l 458 1122 l 527 1122 l 369 876 l 313 876 z "},"ă":{"ha":688,"x_min":72,"x_max":582,"o":"m 320 762 q 465 738 408 762 q 552 660 522 715 q 582 513 582 606 l 582 0 l 528 0 l 524 88 l 518 88 q 420 15 479 41 q 293 -11 361 -11 q 131 41 190 -11 q 72 187 72 93 q 134 335 72 283 q 327 402 195 388 l 521 425 l 521 514 q 498 630 521 588 q 430 689 474 672 q 317 706 386 706 q 218 698 271 706 q 115 672 165 690 l 115 728 q 213 753 158 744 q 320 762 269 762 m 301 43 q 420 70 363 43 q 521 156 477 98 l 521 373 l 328 351 q 183 301 228 340 q 138 192 138 263 q 178 81 138 119 q 301 43 219 43 m 342 884 q 207 942 256 884 q 153 1103 158 999 l 201 1103 q 241 973 207 1017 q 342 930 275 930 q 443 973 410 930 q 481 1103 477 1017 l 528 1103 q 477 941 525 998 q 342 884 428 884 z "},"ắ":{"ha":688,"x_min":72,"x_max":582,"o":"m 320 762 q 465 738 408 762 q 552 660 522 715 q 582 513 582 606 l 582 0 l 528 0 l 524 88 l 518 88 q 420 15 479 41 q 293 -11 361 -11 q 131 41 190 -11 q 72 187 72 93 q 134 335 72 283 q 327 402 195 388 l 521 425 l 521 514 q 498 630 521 588 q 430 689 474 672 q 317 706 386 706 q 218 698 271 706 q 115 672 165 690 l 115 728 q 213 753 158 744 q 320 762 269 762 m 301 43 q 420 70 363 43 q 521 156 477 98 l 521 373 l 328 351 q 183 301 228 340 q 138 192 138 263 q 178 81 138 119 q 301 43 219 43 m 315 1108 l 436 1297 l 502 1297 l 368 1108 l 315 1108 m 342 885 q 206 942 256 885 q 153 1101 157 999 l 201 1101 q 241 973 206 1016 q 342 929 275 929 q 443 973 410 929 q 481 1101 477 1016 l 529 1101 q 477 941 525 998 q 342 885 428 885 z "},"ặ":{"ha":688,"x_min":72,"x_max":582,"o":"m 320 762 q 465 738 408 762 q 552 660 522 715 q 582 513 582 606 l 582 0 l 528 0 l 524 88 l 518 88 q 420 15 479 41 q 293 -11 361 -11 q 131 41 190 -11 q 72 187 72 93 q 134 335 72 283 q 327 402 195 388 l 521 425 l 521 514 q 498 630 521 588 q 430 689 474 672 q 317 706 386 706 q 218 698 271 706 q 115 672 165 690 l 115 728 q 213 753 158 744 q 320 762 269 762 m 301 43 q 420 70 363 43 q 521 156 477 98 l 521 373 l 328 351 q 183 301 228 340 q 138 192 138 263 q 178 81 138 119 q 301 43 219 43 m 350 -223 q 314 -210 328 -223 q 301 -174 301 -197 q 314 -138 301 -152 q 350 -124 328 -124 q 386 -138 372 -124 q 399 -174 399 -152 q 386 -210 399 -197 q 350 -223 372 -223 m 342 884 q 207 942 256 884 q 153 1103 158 999 l 201 1103 q 241 973 207 1017 q 342 930 275 930 q 443 973 410 930 q 481 1103 477 1017 l 528 1103 q 477 941 525 998 q 342 884 428 884 z "},"ằ":{"ha":688,"x_min":72,"x_max":582,"o":"m 320 762 q 465 738 408 762 q 552 660 522 715 q 582 513 582 606 l 582 0 l 528 0 l 524 88 l 518 88 q 420 15 479 41 q 293 -11 361 -11 q 131 41 190 -11 q 72 187 72 93 q 134 335 72 283 q 327 402 195 388 l 521 425 l 521 514 q 498 630 521 588 q 430 689 474 672 q 317 706 386 706 q 218 698 271 706 q 115 672 165 690 l 115 728 q 213 753 158 744 q 320 762 269 762 m 301 43 q 420 70 363 43 q 521 156 477 98 l 521 373 l 328 351 q 183 301 228 340 q 138 192 138 263 q 178 81 138 119 q 301 43 219 43 m 315 1108 l 181 1297 l 246 1297 l 368 1108 l 315 1108 m 342 885 q 206 942 256 885 q 153 1101 157 999 l 201 1101 q 241 973 206 1016 q 342 929 275 929 q 443 973 410 929 q 481 1101 477 1016 l 529 1101 q 477 941 525 998 q 342 885 428 885 z "},"ẳ":{"ha":688,"x_min":72,"x_max":582,"o":"m 320 762 q 465 738 408 762 q 552 660 522 715 q 582 513 582 606 l 582 0 l 528 0 l 524 88 l 518 88 q 420 15 479 41 q 293 -11 361 -11 q 131 41 190 -11 q 72 187 72 93 q 134 335 72 283 q 327 402 195 388 l 521 425 l 521 514 q 498 630 521 588 q 430 689 474 672 q 317 706 386 706 q 218 698 271 706 q 115 672 165 690 l 115 728 q 213 753 158 744 q 320 762 269 762 m 301 43 q 420 70 363 43 q 521 156 477 98 l 521 373 l 328 351 q 183 301 228 340 q 138 192 138 263 q 178 81 138 119 q 301 43 219 43 m 316 1108 q 327 1141 317 1128 q 350 1163 337 1155 q 385 1180 363 1170 q 421 1198 409 1190 q 433 1222 433 1207 q 414 1249 433 1240 q 349 1258 396 1258 q 280 1252 313 1258 q 213 1233 247 1246 l 213 1274 q 351 1298 269 1298 q 448 1278 415 1298 q 480 1224 480 1258 q 464 1183 480 1197 q 417 1156 448 1169 q 380 1134 392 1144 q 365 1108 367 1125 l 316 1108 m 342 885 q 206 942 256 885 q 153 1101 157 999 l 201 1101 q 241 973 206 1016 q 342 929 275 929 q 443 973 410 929 q 481 1101 477 1016 l 529 1101 q 477 941 525 998 q 342 885 428 885 z "},"ẵ":{"ha":688,"x_min":72,"x_max":582,"o":"m 320 762 q 465 738 408 762 q 552 660 522 715 q 582 513 582 606 l 582 0 l 528 0 l 524 88 l 518 88 q 420 15 479 41 q 293 -11 361 -11 q 131 41 190 -11 q 72 187 72 93 q 134 335 72 283 q 327 402 195 388 l 521 425 l 521 514 q 498 630 521 588 q 430 689 474 672 q 317 706 386 706 q 218 698 271 706 q 115 672 165 690 l 115 728 q 213 753 158 744 q 320 762 269 762 m 301 43 q 420 70 363 43 q 521 156 477 98 l 521 373 l 328 351 q 183 301 228 340 q 138 192 138 263 q 178 81 138 119 q 301 43 219 43 m 436 1160 q 388 1168 410 1160 q 331 1189 365 1175 q 284 1207 303 1201 q 246 1213 265 1213 q 188 1201 214 1213 q 139 1164 163 1189 l 139 1216 q 246 1258 179 1258 q 294 1251 271 1258 q 351 1231 317 1244 q 399 1213 379 1219 q 437 1206 418 1206 q 494 1218 469 1206 q 543 1255 520 1230 l 543 1203 q 436 1160 504 1160 m 342 885 q 206 942 256 885 q 153 1101 157 999 l 201 1101 q 241 973 206 1016 q 342 929 275 929 q 443 973 410 929 q 481 1101 477 1016 l 529 1101 q 477 941 525 998 q 342 885 428 885 z "},"â":{"ha":688,"x_min":72,"x_max":582,"o":"m 320 762 q 465 738 408 762 q 552 660 522 715 q 582 513 582 606 l 582 0 l 528 0 l 524 88 l 518 88 q 420 15 479 41 q 293 -11 361 -11 q 131 41 190 -11 q 72 187 72 93 q 134 335 72 283 q 327 402 195 388 l 521 425 l 521 514 q 498 630 521 588 q 430 689 474 672 q 317 706 386 706 q 218 698 271 706 q 115 672 165 690 l 115 728 q 213 753 158 744 q 320 762 269 762 m 301 43 q 420 70 363 43 q 521 156 477 98 l 521 373 l 328 351 q 183 301 228 340 q 138 192 138 263 q 178 81 138 119 q 301 43 219 43 m 525 876 l 467 876 l 341 1084 l 215 876 l 158 876 l 310 1122 l 373 1122 l 525 876 z "},"ấ":{"ha":688,"x_min":72,"x_max":669,"o":"m 320 762 q 465 738 408 762 q 552 660 522 715 q 582 513 582 606 l 582 0 l 528 0 l 524 88 l 518 88 q 420 15 479 41 q 293 -11 361 -11 q 131 41 190 -11 q 72 187 72 93 q 134 335 72 283 q 327 402 195 388 l 521 425 l 521 514 q 498 630 521 588 q 430 689 474 672 q 317 706 386 706 q 218 698 271 706 q 115 672 165 690 l 115 728 q 213 753 158 744 q 320 762 269 762 m 301 43 q 420 70 363 43 q 521 156 477 98 l 521 373 l 328 351 q 183 301 228 340 q 138 192 138 263 q 178 81 138 119 q 301 43 219 43 m 604 1297 l 669 1297 l 535 1108 l 483 1108 l 604 1297 m 310 1122 l 373 1122 l 525 876 l 467 876 l 341 1084 l 215 876 l 158 876 l 310 1122 z "},"ậ":{"ha":688,"x_min":72,"x_max":582,"o":"m 320 762 q 465 738 408 762 q 552 660 522 715 q 582 513 582 606 l 582 0 l 528 0 l 524 88 l 518 88 q 420 15 479 41 q 293 -11 361 -11 q 131 41 190 -11 q 72 187 72 93 q 134 335 72 283 q 327 402 195 388 l 521 425 l 521 514 q 498 630 521 588 q 430 689 474 672 q 317 706 386 706 q 218 698 271 706 q 115 672 165 690 l 115 728 q 213 753 158 744 q 320 762 269 762 m 301 43 q 420 70 363 43 q 521 156 477 98 l 521 373 l 328 351 q 183 301 228 340 q 138 192 138 263 q 178 81 138 119 q 301 43 219 43 m 350 -223 q 314 -210 328 -223 q 301 -174 301 -197 q 314 -138 301 -152 q 350 -124 328 -124 q 386 -138 372 -124 q 399 -174 399 -152 q 386 -210 399 -197 q 350 -223 372 -223 m 525 876 l 467 876 l 341 1084 l 215 876 l 158 876 l 310 1122 l 373 1122 l 525 876 z "},"ầ":{"ha":688,"x_min":72,"x_max":582,"o":"m 320 762 q 465 738 408 762 q 552 660 522 715 q 582 513 582 606 l 582 0 l 528 0 l 524 88 l 518 88 q 420 15 479 41 q 293 -11 361 -11 q 131 41 190 -11 q 72 187 72 93 q 134 335 72 283 q 327 402 195 388 l 521 425 l 521 514 q 498 630 521 588 q 430 689 474 672 q 317 706 386 706 q 218 698 271 706 q 115 672 165 690 l 115 728 q 213 753 158 744 q 320 762 269 762 m 301 43 q 420 70 363 43 q 521 156 477 98 l 521 373 l 328 351 q 183 301 228 340 q 138 192 138 263 q 178 81 138 119 q 301 43 219 43 m 546 1108 l 492 1108 l 358 1297 l 424 1297 l 546 1108 m 310 1122 l 373 1122 l 525 876 l 467 876 l 341 1084 l 215 876 l 158 876 l 310 1122 z "},"ẩ":{"ha":688,"x_min":72,"x_max":640,"o":"m 320 762 q 465 738 408 762 q 552 660 522 715 q 582 513 582 606 l 582 0 l 528 0 l 524 88 l 518 88 q 420 15 479 41 q 293 -11 361 -11 q 131 41 190 -11 q 72 187 72 93 q 134 335 72 283 q 327 402 195 388 l 521 425 l 521 514 q 498 630 521 588 q 430 689 474 672 q 317 706 386 706 q 218 698 271 706 q 115 672 165 690 l 115 728 q 213 753 158 744 q 320 762 269 762 m 301 43 q 420 70 363 43 q 521 156 477 98 l 521 373 l 328 351 q 183 301 228 340 q 138 192 138 263 q 178 81 138 119 q 301 43 219 43 m 511 1298 q 608 1278 576 1298 q 640 1224 640 1258 q 631 1192 640 1205 q 610 1173 622 1180 q 578 1156 599 1165 q 540 1135 553 1144 q 526 1108 528 1126 l 477 1108 q 496 1151 478 1137 q 546 1180 514 1166 q 582 1199 571 1191 q 593 1222 593 1208 q 575 1249 593 1240 q 510 1258 556 1258 q 441 1252 474 1258 q 374 1233 409 1247 l 374 1274 q 511 1298 431 1298 m 310 1122 l 373 1122 l 525 876 l 467 876 l 341 1084 l 215 876 l 158 876 l 310 1122 z "},"ẫ":{"ha":688,"x_min":72,"x_max":582,"o":"m 320 762 q 465 738 408 762 q 552 660 522 715 q 582 513 582 606 l 582 0 l 528 0 l 524 88 l 518 88 q 420 15 479 41 q 293 -11 361 -11 q 131 41 190 -11 q 72 187 72 93 q 134 335 72 283 q 327 402 195 388 l 521 425 l 521 514 q 498 630 521 588 q 430 689 474 672 q 317 706 386 706 q 218 698 271 706 q 115 672 165 690 l 115 728 q 213 753 158 744 q 320 762 269 762 m 301 43 q 420 70 363 43 q 521 156 477 98 l 521 373 l 328 351 q 183 301 228 340 q 138 192 138 263 q 178 81 138 119 q 301 43 219 43 m 437 1206 q 494 1218 468 1206 q 542 1255 519 1230 l 542 1203 q 436 1160 503 1160 q 387 1168 410 1160 q 331 1189 363 1175 q 283 1207 302 1201 q 246 1213 265 1213 q 189 1201 214 1213 q 140 1164 163 1190 l 140 1216 q 246 1258 180 1258 q 294 1251 271 1258 q 351 1231 317 1244 q 399 1213 379 1219 q 437 1206 418 1206 m 310 1119 l 373 1119 l 526 876 l 467 876 l 341 1083 l 215 876 l 156 876 l 310 1119 z "},"ȁ":{"ha":688,"x_min":72,"x_max":582,"o":"m 320 762 q 465 738 408 762 q 552 660 522 715 q 582 513 582 606 l 582 0 l 528 0 l 524 88 l 518 88 q 420 15 479 41 q 293 -11 361 -11 q 131 41 190 -11 q 72 187 72 93 q 134 335 72 283 q 327 402 195 388 l 521 425 l 521 514 q 498 630 521 588 q 430 689 474 672 q 317 706 386 706 q 218 698 271 706 q 115 672 165 690 l 115 728 q 213 753 158 744 q 320 762 269 762 m 301 43 q 420 70 363 43 q 521 156 477 98 l 521 373 l 328 351 q 183 301 228 340 q 138 192 138 263 q 178 81 138 119 q 301 43 219 43 m 210 876 l 110 1122 l 169 1122 l 262 876 l 210 876 m 421 876 l 321 1122 l 380 1122 l 473 876 l 421 876 z "},"ä":{"ha":688,"x_min":72,"x_max":582,"o":"m 320 762 q 465 738 408 762 q 552 660 522 715 q 582 513 582 606 l 582 0 l 528 0 l 524 88 l 518 88 q 420 15 479 41 q 293 -11 361 -11 q 131 41 190 -11 q 72 187 72 93 q 134 335 72 283 q 327 402 195 388 l 521 425 l 521 514 q 498 630 521 588 q 430 689 474 672 q 317 706 386 706 q 218 698 271 706 q 115 672 165 690 l 115 728 q 213 753 158 744 q 320 762 269 762 m 301 43 q 420 70 363 43 q 521 156 477 98 l 521 373 l 328 351 q 183 301 228 340 q 138 192 138 263 q 178 81 138 119 q 301 43 219 43 m 200 939 q 164 952 178 939 q 151 988 151 965 q 164 1024 151 1010 q 200 1038 178 1038 q 235 1024 222 1038 q 249 988 249 1010 q 235 952 249 965 q 200 939 222 939 m 483 939 q 447 952 460 939 q 433 988 433 965 q 447 1024 433 1010 q 483 1038 460 1038 q 518 1024 505 1038 q 532 988 532 1010 q 518 952 532 965 q 483 939 505 939 z "},"ạ":{"ha":688,"x_min":72,"x_max":582,"o":"m 320 762 q 465 738 408 762 q 552 660 522 715 q 582 513 582 606 l 582 0 l 528 0 l 524 88 l 518 88 q 420 15 479 41 q 293 -11 361 -11 q 131 41 190 -11 q 72 187 72 93 q 134 335 72 283 q 327 402 195 388 l 521 425 l 521 514 q 498 630 521 588 q 430 689 474 672 q 317 706 386 706 q 218 698 271 706 q 115 672 165 690 l 115 728 q 213 753 158 744 q 320 762 269 762 m 301 43 q 420 70 363 43 q 521 156 477 98 l 521 373 l 328 351 q 183 301 228 340 q 138 192 138 263 q 178 81 138 119 q 301 43 219 43 m 350 -223 q 314 -210 328 -223 q 301 -174 301 -197 q 314 -138 301 -152 q 350 -124 328 -124 q 386 -138 372 -124 q 399 -174 399 -152 q 386 -210 399 -197 q 350 -223 372 -223 z "},"à":{"ha":688,"x_min":72,"x_max":582,"o":"m 320 762 q 465 738 408 762 q 552 660 522 715 q 582 513 582 606 l 582 0 l 528 0 l 524 88 l 518 88 q 420 15 479 41 q 293 -11 361 -11 q 131 41 190 -11 q 72 187 72 93 q 134 335 72 283 q 327 402 195 388 l 521 425 l 521 514 q 498 630 521 588 q 430 689 474 672 q 317 706 386 706 q 218 698 271 706 q 115 672 165 690 l 115 728 q 213 753 158 744 q 320 762 269 762 m 301 43 q 420 70 363 43 q 521 156 477 98 l 521 373 l 328 351 q 183 301 228 340 q 138 192 138 263 q 178 81 138 119 q 301 43 219 43 m 313 876 l 156 1122 l 224 1122 l 369 876 l 313 876 z "},"ả":{"ha":688,"x_min":72,"x_max":582,"o":"m 320 762 q 465 738 408 762 q 552 660 522 715 q 582 513 582 606 l 582 0 l 528 0 l 524 88 l 518 88 q 420 15 479 41 q 293 -11 361 -11 q 131 41 190 -11 q 72 187 72 93 q 134 335 72 283 q 327 402 195 388 l 521 425 l 521 514 q 498 630 521 588 q 430 689 474 672 q 317 706 386 706 q 218 698 271 706 q 115 672 165 690 l 115 728 q 213 753 158 744 q 320 762 269 762 m 301 43 q 420 70 363 43 q 521 156 477 98 l 521 373 l 328 351 q 183 301 228 340 q 138 192 138 263 q 178 81 138 119 q 301 43 219 43 m 317 876 q 327 921 317 903 q 350 951 337 940 q 383 978 363 963 q 418 1007 407 994 q 428 1036 428 1019 q 407 1075 428 1063 q 341 1088 386 1088 q 285 1084 315 1088 q 234 1072 256 1080 l 234 1114 q 284 1126 256 1122 q 340 1131 313 1131 q 442 1107 408 1131 q 475 1038 475 1083 q 467 1000 475 1016 q 449 975 460 985 q 419 951 438 965 q 380 918 393 933 q 365 876 366 902 l 317 876 z "},"ȃ":{"ha":688,"x_min":72,"x_max":582,"o":"m 320 762 q 465 738 408 762 q 552 660 522 715 q 582 513 582 606 l 582 0 l 528 0 l 524 88 l 518 88 q 420 15 479 41 q 293 -11 361 -11 q 131 41 190 -11 q 72 187 72 93 q 134 335 72 283 q 327 402 195 388 l 521 425 l 521 514 q 498 630 521 588 q 430 689 474 672 q 317 706 386 706 q 218 698 271 706 q 115 672 165 690 l 115 728 q 213 753 158 744 q 320 762 269 762 m 301 43 q 420 70 363 43 q 521 156 477 98 l 521 373 l 328 351 q 183 301 228 340 q 138 192 138 263 q 178 81 138 119 q 301 43 219 43 m 153 896 q 206 1058 158 1001 q 340 1115 253 1115 q 476 1057 426 1115 q 528 896 525 1000 l 481 896 q 340 1068 471 1068 q 240 1025 274 1068 q 201 896 206 981 l 153 896 z "},"ā":{"ha":688,"x_min":72,"x_max":582,"o":"m 320 762 q 465 738 408 762 q 552 660 522 715 q 582 513 582 606 l 582 0 l 528 0 l 524 88 l 518 88 q 420 15 479 41 q 293 -11 361 -11 q 131 41 190 -11 q 72 187 72 93 q 134 335 72 283 q 327 402 195 388 l 521 425 l 521 514 q 498 630 521 588 q 430 689 474 672 q 317 706 386 706 q 218 698 271 706 q 115 672 165 690 l 115 728 q 213 753 158 744 q 320 762 269 762 m 301 43 q 420 70 363 43 q 521 156 477 98 l 521 373 l 328 351 q 183 301 228 340 q 138 192 138 263 q 178 81 138 119 q 301 43 219 43 m 140 964 l 140 1013 l 542 1013 l 542 964 l 140 964 z "},"ą":{"ha":688,"x_min":72,"x_max":653,"o":"m 548 -240 q 653 -209 602 -240 l 653 -252 q 602 -273 631 -265 q 547 -280 574 -280 q 448 -248 484 -280 q 412 -160 412 -216 q 440 -69 412 -111 q 528 14 467 -26 l 524 88 l 518 88 q 420 15 479 41 q 293 -11 361 -11 q 131 41 190 -11 q 72 187 72 93 q 134 335 72 283 q 327 402 195 388 l 521 425 l 521 514 q 498 630 521 588 q 430 689 474 672 q 317 706 386 706 q 218 698 271 706 q 115 672 165 690 l 115 728 q 213 753 158 744 q 320 762 269 762 q 465 738 408 762 q 552 660 522 715 q 582 513 582 606 l 582 0 q 487 -76 516 -39 q 458 -158 458 -113 q 482 -218 458 -197 q 548 -240 506 -240 m 301 43 q 420 70 363 43 q 521 156 477 98 l 521 373 l 328 351 q 183 301 228 340 q 138 192 138 263 q 178 81 138 119 q 301 43 219 43 z "},"å":{"ha":688,"x_min":72,"x_max":582,"o":"m 320 762 q 465 738 408 762 q 552 660 522 715 q 582 513 582 606 l 582 0 l 528 0 l 524 88 l 518 88 q 420 15 479 41 q 293 -11 361 -11 q 131 41 190 -11 q 72 187 72 93 q 134 335 72 283 q 327 402 195 388 l 521 425 l 521 514 q 498 630 521 588 q 430 689 474 672 q 317 706 386 706 q 218 698 271 706 q 115 672 165 690 l 115 728 q 213 753 158 744 q 320 762 269 762 m 301 43 q 420 70 363 43 q 521 156 477 98 l 521 373 l 328 351 q 183 301 228 340 q 138 192 138 263 q 178 81 138 119 q 301 43 219 43 m 341 873 q 275 890 304 873 q 228 936 245 906 q 212 1002 212 965 q 228 1068 212 1039 q 275 1115 245 1098 q 341 1131 304 1131 q 408 1115 378 1131 q 454 1068 438 1098 q 471 1002 471 1039 q 454 936 471 965 q 408 890 438 906 q 341 873 378 873 m 341 913 q 405 937 381 913 q 429 1002 429 961 q 405 1068 429 1044 q 341 1092 381 1092 q 277 1068 302 1092 q 253 1002 253 1044 q 277 937 253 961 q 341 913 302 913 z "},"ǻ":{"ha":688,"x_min":72,"x_max":582,"o":"m 320 762 q 465 738 408 762 q 552 660 522 715 q 582 513 582 606 l 582 0 l 528 0 l 524 88 l 518 88 q 420 15 479 41 q 293 -11 361 -11 q 131 41 190 -11 q 72 187 72 93 q 134 335 72 283 q 327 402 195 388 l 521 425 l 521 514 q 498 630 521 588 q 430 689 474 672 q 317 706 386 706 q 218 698 271 706 q 115 672 165 690 l 115 728 q 213 753 158 744 q 320 762 269 762 m 301 43 q 420 70 363 43 q 521 156 477 98 l 521 373 l 328 351 q 183 301 228 340 q 138 192 138 263 q 178 81 138 119 q 301 43 219 43 m 440 1089 q 471 1002 471 1053 q 454 936 471 965 q 408 890 438 906 q 341 873 378 873 q 275 890 304 873 q 228 936 245 906 q 212 1002 212 965 q 228 1068 212 1039 q 275 1115 245 1098 q 341 1131 304 1131 q 406 1115 377 1131 l 506 1236 l 569 1236 l 440 1089 m 341 913 q 405 937 381 913 q 429 1002 429 961 q 405 1068 429 1044 q 341 1092 381 1092 q 277 1068 302 1092 q 253 1002 253 1044 q 277 937 253 961 q 341 913 302 913 z "},"ã":{"ha":688,"x_min":72,"x_max":582,"o":"m 320 762 q 465 738 408 762 q 552 660 522 715 q 582 513 582 606 l 582 0 l 528 0 l 524 88 l 518 88 q 420 15 479 41 q 293 -11 361 -11 q 131 41 190 -11 q 72 187 72 93 q 134 335 72 283 q 327 402 195 388 l 521 425 l 521 514 q 498 630 521 588 q 430 689 474 672 q 317 706 386 706 q 218 698 271 706 q 115 672 165 690 l 115 728 q 213 753 158 744 q 320 762 269 762 m 301 43 q 420 70 363 43 q 521 156 477 98 l 521 373 l 328 351 q 183 301 228 340 q 138 192 138 263 q 178 81 138 119 q 301 43 219 43 m 435 953 q 388 960 410 953 q 331 982 365 967 q 285 1001 304 994 q 247 1007 265 1007 q 190 995 215 1007 q 140 957 164 983 l 140 1010 q 247 1053 180 1053 q 296 1046 272 1053 q 351 1024 319 1038 q 399 1006 380 1012 q 436 1000 417 1000 q 493 1012 467 1000 q 542 1050 519 1024 l 542 997 q 435 953 502 953 z "},"æ":{"ha":1130,"x_min":72,"x_max":1069,"o":"m 1069 351 l 582 351 q 652 115 585 187 q 850 43 719 43 q 1033 76 928 43 l 1033 19 q 845 -12 935 -12 q 676 23 745 -12 q 568 133 606 58 q 441 22 509 54 q 296 -11 373 -11 q 177 12 228 -11 q 100 80 127 35 q 72 187 72 124 q 139 345 72 288 q 349 403 206 403 l 521 403 l 521 516 q 498 631 521 590 q 430 690 474 673 q 317 706 386 706 q 218 698 271 706 q 115 672 165 690 l 115 728 q 213 753 158 744 q 319 762 268 762 q 484 727 423 762 q 565 610 544 692 q 798 763 629 763 q 999 668 928 763 q 1069 376 1069 574 l 1069 351 m 797 709 q 640 637 696 709 q 582 403 585 565 l 1007 403 q 950 638 1003 567 q 797 709 897 709 m 302 43 q 435 77 372 43 q 545 190 499 112 q 521 351 524 258 l 347 351 q 138 192 138 351 q 180 81 138 119 q 302 43 222 43 z "},"ǽ":{"ha":1130,"x_min":72,"x_max":1069,"o":"m 1069 351 l 582 351 q 652 115 585 187 q 850 43 719 43 q 1033 76 928 43 l 1033 19 q 845 -12 935 -12 q 676 23 745 -12 q 568 133 606 58 q 441 22 509 54 q 296 -11 373 -11 q 177 12 228 -11 q 100 80 127 35 q 72 187 72 124 q 139 345 72 288 q 349 403 206 403 l 521 403 l 521 516 q 498 631 521 590 q 430 690 474 673 q 317 706 386 706 q 218 698 271 706 q 115 672 165 690 l 115 728 q 213 753 158 744 q 319 762 268 762 q 484 727 423 762 q 565 610 544 692 q 798 763 629 763 q 999 668 928 763 q 1069 376 1069 574 l 1069 351 m 797 709 q 640 637 696 709 q 582 403 585 565 l 1007 403 q 950 638 1003 567 q 797 709 897 709 m 302 43 q 435 77 372 43 q 545 190 499 112 q 521 351 524 258 l 347 351 q 138 192 138 351 q 180 81 138 119 q 302 43 222 43 m 523 876 l 669 1122 l 738 1122 l 580 876 l 523 876 z "},"b":{"ha":753,"x_min":115,"x_max":680,"o":"m 320 -12 q 214 -5 267 -12 q 115 17 161 3 l 115 1122 l 176 1122 l 176 672 l 181 672 q 273 737 217 713 q 394 762 328 762 q 602 674 524 762 q 680 390 680 585 q 320 -12 680 -12 m 324 43 q 543 125 470 43 q 616 383 616 206 q 555 633 616 560 q 385 706 494 706 q 268 678 323 706 q 176 599 213 651 l 176 63 q 244 49 206 54 q 324 43 283 43 z "},"c":{"ha":581,"x_min":73,"x_max":557,"o":"m 379 -12 q 151 81 228 -12 q 73 375 73 174 q 157 670 73 578 q 410 762 242 762 q 557 742 490 762 l 557 685 q 413 706 483 706 q 258 674 318 706 q 167 570 197 642 q 137 378 137 498 q 165 183 137 256 q 248 76 193 109 q 386 44 303 44 q 557 77 462 44 l 557 19 q 379 -12 468 -12 z "},"ć":{"ha":581,"x_min":73,"x_max":557,"o":"m 379 -12 q 151 81 228 -12 q 73 375 73 174 q 157 670 73 578 q 410 762 242 762 q 557 742 490 762 l 557 685 q 413 706 483 706 q 258 674 318 706 q 167 570 197 642 q 137 378 137 498 q 165 183 137 256 q 248 76 193 109 q 386 44 303 44 q 557 77 462 44 l 557 19 q 379 -12 468 -12 m 321 876 l 467 1122 l 535 1122 l 378 876 l 321 876 z "},"č":{"ha":581,"x_min":73,"x_max":557,"o":"m 379 -12 q 151 81 228 -12 q 73 375 73 174 q 157 670 73 578 q 410 762 242 762 q 557 742 490 762 l 557 685 q 413 706 483 706 q 258 674 318 706 q 167 570 197 642 q 137 378 137 498 q 165 183 137 256 q 248 76 193 109 q 386 44 303 44 q 557 77 462 44 l 557 19 q 379 -12 468 -12 m 478 1122 l 536 1122 l 381 876 l 318 876 l 163 1122 l 221 1122 l 349 913 l 478 1122 z "},"ç":{"ha":581,"x_min":73,"x_max":557,"o":"m 413 706 q 258 674 318 706 q 167 570 197 642 q 137 378 137 498 q 165 183 137 256 q 248 76 193 109 q 386 44 303 44 q 557 77 462 44 l 557 19 q 379 -12 468 -12 l 372 -12 l 372 -78 q 450 -108 423 -82 q 478 -178 478 -134 q 444 -253 478 -226 q 351 -280 411 -280 q 290 -273 321 -280 q 237 -255 258 -267 l 237 -212 q 352 -240 291 -240 q 433 -178 433 -240 q 413 -130 433 -145 q 351 -115 392 -115 l 328 -115 l 328 -10 q 138 98 202 5 q 73 375 73 191 q 157 670 73 578 q 410 762 242 762 q 557 742 490 762 l 557 685 q 413 706 483 706 z "},"ḉ":{"ha":581,"x_min":73,"x_max":557,"o":"m 535 1122 l 378 876 l 321 876 l 467 1122 l 535 1122 m 413 706 q 258 674 318 706 q 167 570 197 642 q 137 378 137 498 q 165 183 137 256 q 248 76 193 109 q 386 44 303 44 q 557 77 462 44 l 557 19 q 379 -12 468 -12 l 372 -12 l 372 -78 q 450 -108 423 -82 q 478 -178 478 -134 q 444 -253 478 -226 q 351 -280 411 -280 q 290 -273 321 -280 q 237 -255 258 -267 l 237 -212 q 352 -240 291 -240 q 433 -178 433 -240 q 413 -130 433 -145 q 351 -115 392 -115 l 328 -115 l 328 -10 q 138 98 202 5 q 73 375 73 191 q 157 670 73 578 q 410 762 242 762 q 557 742 490 762 l 557 685 q 413 706 483 706 z "},"ĉ":{"ha":581,"x_min":73,"x_max":557,"o":"m 379 -12 q 151 81 228 -12 q 73 375 73 174 q 157 670 73 578 q 410 762 242 762 q 557 742 490 762 l 557 685 q 413 706 483 706 q 258 674 318 706 q 167 570 197 642 q 137 378 137 498 q 165 183 137 256 q 248 76 193 109 q 386 44 303 44 q 557 77 462 44 l 557 19 q 379 -12 468 -12 m 533 876 l 475 876 l 349 1084 l 224 876 l 166 876 l 318 1122 l 381 1122 l 533 876 z "},"ċ":{"ha":581,"x_min":73,"x_max":557,"o":"m 379 -12 q 151 81 228 -12 q 73 375 73 174 q 157 670 73 578 q 410 762 242 762 q 557 742 490 762 l 557 685 q 413 706 483 706 q 258 674 318 706 q 167 570 197 642 q 137 378 137 498 q 165 183 137 256 q 248 76 193 109 q 386 44 303 44 q 557 77 462 44 l 557 19 q 379 -12 468 -12 m 349 938 q 313 951 326 938 q 299 988 299 965 q 313 1024 299 1010 q 349 1038 326 1038 q 386 1024 372 1038 q 400 988 400 1010 q 386 951 400 965 q 349 938 372 938 z "},"d":{"ha":753,"x_min":73,"x_max":638,"o":"m 363 -12 q 152 77 231 -12 q 73 360 73 166 q 438 762 73 762 q 576 750 508 762 l 576 1122 l 638 1122 l 638 0 l 584 0 l 579 83 l 573 83 q 483 14 538 40 q 363 -12 428 -12 m 370 44 q 486 72 431 44 q 576 156 540 100 l 576 691 q 509 702 547 698 q 435 706 472 706 q 211 625 285 706 q 137 367 137 544 q 198 117 137 190 q 370 44 259 44 z "},"ð":{"ha":742,"x_min":73,"x_max":669,"o":"m 502 921 q 624 669 580 806 q 669 398 669 533 q 590 89 669 190 q 373 -12 512 -12 q 152 81 231 -12 q 73 375 73 175 q 151 668 73 574 q 369 762 230 762 q 472 745 425 762 q 556 690 519 728 q 442 911 512 813 l 147 863 l 140 910 l 409 953 q 233 1122 336 1044 l 315 1122 q 472 964 397 1063 l 646 992 l 653 946 l 502 921 m 373 43 q 545 123 483 43 q 606 373 606 202 q 546 630 606 553 q 372 706 485 706 q 197 630 258 706 q 137 377 137 554 q 198 120 137 197 q 373 43 258 43 z "},"ď":{"ha":753,"x_min":73,"x_max":772,"o":"m 363 -12 q 152 77 231 -12 q 73 360 73 166 q 438 762 73 762 q 576 750 508 762 l 576 1122 l 638 1122 l 638 0 l 584 0 l 579 83 l 573 83 q 483 14 538 40 q 363 -12 428 -12 m 370 44 q 486 72 431 44 q 576 156 540 100 l 576 691 q 509 702 547 698 q 435 706 472 706 q 211 625 285 706 q 137 367 137 544 q 198 117 137 190 q 370 44 259 44 m 706 819 q 719 1122 719 929 l 772 1122 q 746 819 772 947 l 706 819 z "},"đ":{"ha":753,"x_min":73,"x_max":745,"o":"m 745 917 l 638 917 l 638 0 l 584 0 l 579 83 l 573 83 q 483 14 538 40 q 363 -12 428 -12 q 152 77 231 -12 q 73 360 73 166 q 438 762 73 762 q 576 750 508 762 l 576 917 l 325 917 l 325 967 l 576 967 l 576 1122 l 638 1122 l 638 967 l 745 967 l 745 917 m 576 691 q 509 702 547 698 q 435 706 472 706 q 211 625 285 706 q 137 367 137 544 q 198 117 137 190 q 370 44 259 44 q 486 72 431 44 q 576 156 540 100 l 576 691 z "},"ḍ":{"ha":753,"x_min":73,"x_max":638,"o":"m 363 -12 q 152 77 231 -12 q 73 360 73 166 q 438 762 73 762 q 576 750 508 762 l 576 1122 l 638 1122 l 638 0 l 584 0 l 579 83 l 573 83 q 483 14 538 40 q 363 -12 428 -12 m 370 44 q 486 72 431 44 q 576 156 540 100 l 576 691 q 509 702 547 698 q 435 706 472 706 q 211 625 285 706 q 137 367 137 544 q 198 117 137 190 q 370 44 259 44 m 375 -223 q 339 -210 353 -223 q 326 -174 326 -197 q 339 -138 326 -152 q 375 -124 353 -124 q 411 -138 397 -124 q 424 -174 424 -152 q 411 -210 424 -197 q 375 -223 397 -223 z "},"ḏ":{"ha":753,"x_min":73,"x_max":638,"o":"m 363 -12 q 152 77 231 -12 q 73 360 73 166 q 438 762 73 762 q 576 750 508 762 l 576 1122 l 638 1122 l 638 0 l 584 0 l 579 83 l 573 83 q 483 14 538 40 q 363 -12 428 -12 m 370 44 q 486 72 431 44 q 576 156 540 100 l 576 691 q 509 702 547 698 q 435 706 472 706 q 211 625 285 706 q 137 367 137 544 q 198 117 137 190 q 370 44 259 44 m 197 -199 l 197 -151 l 554 -151 l 554 -199 l 197 -199 z "},"ǳ":{"ha":1361,"x_min":73,"x_max":1322,"o":"m 363 -12 q 152 77 231 -12 q 73 360 73 166 q 438 762 73 762 q 576 750 508 762 l 576 1122 l 638 1122 l 638 0 l 584 0 l 579 83 l 573 83 q 483 14 538 40 q 363 -12 428 -12 m 370 44 q 486 72 431 44 q 576 156 540 100 l 576 691 q 509 702 547 698 q 435 706 472 706 q 211 625 285 706 q 137 367 137 544 q 198 117 137 190 q 370 44 259 44 m 877 55 l 1322 55 l 1322 0 l 795 0 l 795 37 l 1233 696 l 803 696 l 803 751 l 1314 751 l 1314 714 l 877 55 z "},"ǆ":{"ha":1361,"x_min":73,"x_max":1322,"o":"m 363 -12 q 152 77 231 -12 q 73 360 73 166 q 438 762 73 762 q 576 750 508 762 l 576 1122 l 638 1122 l 638 0 l 584 0 l 579 83 l 573 83 q 483 14 538 40 q 363 -12 428 -12 m 370 44 q 486 72 431 44 q 576 156 540 100 l 576 691 q 509 702 547 698 q 435 706 472 706 q 211 625 285 706 q 137 367 137 544 q 198 117 137 190 q 370 44 259 44 m 877 55 l 1322 55 l 1322 0 l 795 0 l 795 37 l 1233 696 l 803 696 l 803 751 l 1314 751 l 1314 714 l 877 55 m 1188 1122 l 1246 1122 l 1091 876 l 1028 876 l 873 1122 l 931 1122 l 1059 913 l 1188 1122 z "},"e":{"ha":690,"x_min":73,"x_max":629,"o":"m 629 351 l 137 351 q 208 115 140 187 q 408 43 275 43 q 594 76 486 43 l 594 19 q 403 -12 494 -12 q 156 80 240 -12 q 73 376 73 173 q 148 667 73 572 q 356 762 223 762 q 559 668 488 762 q 629 375 629 574 l 629 351 m 356 708 q 196 637 253 708 q 137 403 140 565 l 567 403 q 511 637 565 566 q 356 708 457 708 z "},"é":{"ha":690,"x_min":73,"x_max":629,"o":"m 629 351 l 137 351 q 208 115 140 187 q 408 43 275 43 q 594 76 486 43 l 594 19 q 403 -12 494 -12 q 156 80 240 -12 q 73 376 73 173 q 148 667 73 572 q 356 762 223 762 q 559 668 488 762 q 629 375 629 574 l 629 351 m 356 708 q 196 637 253 708 q 137 403 140 565 l 567 403 q 511 637 565 566 q 356 708 457 708 m 328 876 l 474 1122 l 542 1122 l 385 876 l 328 876 z "},"ĕ":{"ha":690,"x_min":73,"x_max":629,"o":"m 629 351 l 137 351 q 208 115 140 187 q 408 43 275 43 q 594 76 486 43 l 594 19 q 403 -12 494 -12 q 156 80 240 -12 q 73 376 73 173 q 148 667 73 572 q 356 762 223 762 q 559 668 488 762 q 629 375 629 574 l 629 351 m 356 708 q 196 637 253 708 q 137 403 140 565 l 567 403 q 511 637 565 566 q 356 708 457 708 m 358 884 q 222 942 272 884 q 169 1103 173 999 l 217 1103 q 256 973 222 1017 q 358 930 290 930 q 459 973 425 930 q 497 1103 492 1017 l 544 1103 q 492 941 540 998 q 358 884 444 884 z "},"ě":{"ha":690,"x_min":73,"x_max":629,"o":"m 629 351 l 137 351 q 208 115 140 187 q 408 43 275 43 q 594 76 486 43 l 594 19 q 403 -12 494 -12 q 156 80 240 -12 q 73 376 73 173 q 148 667 73 572 q 356 762 223 762 q 559 668 488 762 q 629 375 629 574 l 629 351 m 356 708 q 196 637 253 708 q 137 403 140 565 l 567 403 q 511 637 565 566 q 356 708 457 708 m 485 1122 l 543 1122 l 388 876 l 325 876 l 170 1122 l 228 1122 l 356 913 l 485 1122 z "},"ḝ":{"ha":690,"x_min":73,"x_max":629,"o":"m 358 884 q 222 942 272 884 q 169 1103 173 999 l 217 1103 q 256 973 222 1017 q 358 930 290 930 q 459 973 425 930 q 497 1103 492 1017 l 544 1103 q 492 941 540 998 q 358 884 444 884 m 629 351 l 137 351 q 208 115 140 187 q 408 43 275 43 q 594 76 486 43 l 594 19 q 403 -12 494 -12 q 381 -12 388 -12 l 381 -78 q 459 -108 431 -82 q 486 -178 486 -134 q 453 -253 486 -226 q 360 -280 419 -280 q 298 -273 329 -280 q 245 -255 267 -267 l 245 -212 q 360 -240 299 -240 q 442 -178 442 -240 q 421 -130 442 -145 q 359 -115 400 -115 l 336 -115 l 336 -8 q 139 102 206 9 q 73 376 73 194 q 148 667 73 572 q 356 762 223 762 q 559 668 488 762 q 629 375 629 574 l 629 351 m 356 708 q 196 637 253 708 q 137 403 140 565 l 567 403 q 511 637 565 566 q 356 708 457 708 z "},"ê":{"ha":690,"x_min":73,"x_max":629,"o":"m 629 351 l 137 351 q 208 115 140 187 q 408 43 275 43 q 594 76 486 43 l 594 19 q 403 -12 494 -12 q 156 80 240 -12 q 73 376 73 173 q 148 667 73 572 q 356 762 223 762 q 559 668 488 762 q 629 375 629 574 l 629 351 m 356 708 q 196 637 253 708 q 137 403 140 565 l 567 403 q 511 637 565 566 q 356 708 457 708 m 540 876 l 482 876 l 356 1084 l 231 876 l 173 876 l 325 1122 l 388 1122 l 540 876 z "},"ế":{"ha":690,"x_min":73,"x_max":685,"o":"m 629 351 l 137 351 q 208 115 140 187 q 408 43 275 43 q 594 76 486 43 l 594 19 q 403 -12 494 -12 q 156 80 240 -12 q 73 376 73 173 q 148 667 73 572 q 356 762 223 762 q 559 668 488 762 q 629 375 629 574 l 629 351 m 356 708 q 196 637 253 708 q 137 403 140 565 l 567 403 q 511 637 565 566 q 356 708 457 708 m 619 1297 l 685 1297 l 551 1108 l 498 1108 l 619 1297 m 325 1122 l 388 1122 l 540 876 l 482 876 l 356 1084 l 231 876 l 173 876 l 325 1122 z "},"ệ":{"ha":690,"x_min":73,"x_max":629,"o":"m 629 351 l 137 351 q 208 115 140 187 q 408 43 275 43 q 594 76 486 43 l 594 19 q 403 -12 494 -12 q 156 80 240 -12 q 73 376 73 173 q 148 667 73 572 q 356 762 223 762 q 559 668 488 762 q 629 375 629 574 l 629 351 m 356 708 q 196 637 253 708 q 137 403 140 565 l 567 403 q 511 637 565 566 q 356 708 457 708 m 356 -223 q 320 -210 334 -223 q 307 -174 307 -197 q 320 -138 307 -152 q 356 -124 334 -124 q 392 -138 378 -124 q 406 -174 406 -152 q 392 -210 406 -197 q 356 -223 378 -223 m 540 876 l 482 876 l 356 1084 l 231 876 l 173 876 l 325 1122 l 388 1122 l 540 876 z "},"ề":{"ha":690,"x_min":73,"x_max":629,"o":"m 629 351 l 137 351 q 208 115 140 187 q 408 43 275 43 q 594 76 486 43 l 594 19 q 403 -12 494 -12 q 156 80 240 -12 q 73 376 73 173 q 148 667 73 572 q 356 762 223 762 q 559 668 488 762 q 629 375 629 574 l 629 351 m 356 708 q 196 637 253 708 q 137 403 140 565 l 567 403 q 511 637 565 566 q 356 708 457 708 m 561 1108 l 508 1108 l 374 1297 l 439 1297 l 561 1108 m 325 1122 l 388 1122 l 540 876 l 482 876 l 356 1084 l 231 876 l 173 876 l 325 1122 z "},"ể":{"ha":690,"x_min":73,"x_max":655,"o":"m 629 351 l 137 351 q 208 115 140 187 q 408 43 275 43 q 594 76 486 43 l 594 19 q 403 -12 494 -12 q 156 80 240 -12 q 73 376 73 173 q 148 667 73 572 q 356 762 223 762 q 559 668 488 762 q 629 375 629 574 l 629 351 m 356 708 q 196 637 253 708 q 137 403 140 565 l 567 403 q 511 637 565 566 q 356 708 457 708 m 526 1298 q 623 1278 591 1298 q 655 1224 655 1258 q 646 1192 655 1205 q 626 1173 638 1180 q 593 1156 614 1165 q 556 1135 568 1144 q 541 1108 543 1126 l 492 1108 q 511 1151 494 1137 q 561 1180 529 1166 q 597 1199 586 1191 q 608 1222 608 1208 q 590 1249 608 1240 q 526 1258 572 1258 q 457 1252 489 1258 q 390 1233 424 1247 l 390 1274 q 526 1298 446 1298 m 325 1122 l 388 1122 l 540 876 l 482 876 l 356 1084 l 231 876 l 173 876 l 325 1122 z "},"ễ":{"ha":690,"x_min":73,"x_max":629,"o":"m 629 351 l 137 351 q 208 115 140 187 q 408 43 275 43 q 594 76 486 43 l 594 19 q 403 -12 494 -12 q 156 80 240 -12 q 73 376 73 173 q 148 667 73 572 q 356 762 223 762 q 559 668 488 762 q 629 375 629 574 l 629 351 m 356 708 q 196 637 253 708 q 137 403 140 565 l 567 403 q 511 637 565 566 q 356 708 457 708 m 452 1206 q 509 1218 483 1206 q 558 1255 535 1230 l 558 1203 q 451 1160 519 1160 q 402 1168 426 1160 q 346 1189 378 1175 q 299 1207 317 1201 q 261 1213 280 1213 q 204 1201 229 1213 q 155 1164 178 1190 l 155 1216 q 261 1258 195 1258 q 309 1251 286 1258 q 367 1231 332 1244 q 414 1213 394 1219 q 452 1206 433 1206 m 325 1119 l 388 1119 l 541 876 l 483 876 l 356 1083 l 230 876 l 172 876 l 325 1119 z "},"ȅ":{"ha":690,"x_min":73,"x_max":629,"o":"m 629 351 l 137 351 q 208 115 140 187 q 408 43 275 43 q 594 76 486 43 l 594 19 q 403 -12 494 -12 q 156 80 240 -12 q 73 376 73 173 q 148 667 73 572 q 356 762 223 762 q 559 668 488 762 q 629 375 629 574 l 629 351 m 356 708 q 196 637 253 708 q 137 403 140 565 l 567 403 q 511 637 565 566 q 356 708 457 708 m 225 876 l 125 1122 l 184 1122 l 277 876 l 225 876 m 436 876 l 336 1122 l 395 1122 l 488 876 l 436 876 z "},"ë":{"ha":690,"x_min":73,"x_max":629,"o":"m 629 351 l 137 351 q 208 115 140 187 q 408 43 275 43 q 594 76 486 43 l 594 19 q 403 -12 494 -12 q 156 80 240 -12 q 73 376 73 173 q 148 667 73 572 q 356 762 223 762 q 559 668 488 762 q 629 375 629 574 l 629 351 m 356 708 q 196 637 253 708 q 137 403 140 565 l 567 403 q 511 637 565 566 q 356 708 457 708 m 215 939 q 180 952 193 939 q 166 988 166 965 q 180 1024 166 1010 q 215 1038 193 1038 q 250 1024 237 1038 q 264 988 264 1010 q 250 952 264 965 q 215 939 237 939 m 498 939 q 462 952 476 939 q 449 988 449 965 q 462 1024 449 1010 q 498 1038 476 1038 q 534 1024 520 1038 q 547 988 547 1010 q 534 952 547 965 q 498 939 520 939 z "},"ė":{"ha":690,"x_min":73,"x_max":629,"o":"m 629 351 l 137 351 q 208 115 140 187 q 408 43 275 43 q 594 76 486 43 l 594 19 q 403 -12 494 -12 q 156 80 240 -12 q 73 376 73 173 q 148 667 73 572 q 356 762 223 762 q 559 668 488 762 q 629 375 629 574 l 629 351 m 356 708 q 196 637 253 708 q 137 403 140 565 l 567 403 q 511 637 565 566 q 356 708 457 708 m 356 938 q 320 951 333 938 q 306 988 306 965 q 320 1024 306 1010 q 356 1038 333 1038 q 393 1024 379 1038 q 407 988 407 1010 q 393 951 407 965 q 356 938 379 938 z "},"ẹ":{"ha":690,"x_min":73,"x_max":629,"o":"m 629 351 l 137 351 q 208 115 140 187 q 408 43 275 43 q 594 76 486 43 l 594 19 q 403 -12 494 -12 q 156 80 240 -12 q 73 376 73 173 q 148 667 73 572 q 356 762 223 762 q 559 668 488 762 q 629 375 629 574 l 629 351 m 356 708 q 196 637 253 708 q 137 403 140 565 l 567 403 q 511 637 565 566 q 356 708 457 708 m 356 -223 q 320 -210 334 -223 q 307 -174 307 -197 q 320 -138 307 -152 q 356 -124 334 -124 q 392 -138 378 -124 q 406 -174 406 -152 q 392 -210 406 -197 q 356 -223 378 -223 z "},"è":{"ha":690,"x_min":73,"x_max":629,"o":"m 629 351 l 137 351 q 208 115 140 187 q 408 43 275 43 q 594 76 486 43 l 594 19 q 403 -12 494 -12 q 156 80 240 -12 q 73 376 73 173 q 148 667 73 572 q 356 762 223 762 q 559 668 488 762 q 629 375 629 574 l 629 351 m 356 708 q 196 637 253 708 q 137 403 140 565 l 567 403 q 511 637 565 566 q 356 708 457 708 m 328 876 l 171 1122 l 240 1122 l 385 876 l 328 876 z "},"ẻ":{"ha":690,"x_min":73,"x_max":629,"o":"m 629 351 l 137 351 q 208 115 140 187 q 408 43 275 43 q 594 76 486 43 l 594 19 q 403 -12 494 -12 q 156 80 240 -12 q 73 376 73 173 q 148 667 73 572 q 356 762 223 762 q 559 668 488 762 q 629 375 629 574 l 629 351 m 356 708 q 196 637 253 708 q 137 403 140 565 l 567 403 q 511 637 565 566 q 356 708 457 708 m 332 876 q 342 921 333 903 q 365 951 352 940 q 399 978 378 963 q 433 1007 422 994 q 444 1036 444 1019 q 423 1075 444 1063 q 356 1088 401 1088 q 301 1084 330 1088 q 249 1072 272 1080 l 249 1114 q 299 1126 271 1122 q 355 1131 328 1131 q 457 1107 424 1131 q 490 1038 490 1083 q 483 1000 490 1016 q 464 975 475 985 q 434 951 453 965 q 395 918 408 933 q 381 876 381 902 l 332 876 z "},"ȇ":{"ha":690,"x_min":73,"x_max":629,"o":"m 629 351 l 137 351 q 208 115 140 187 q 408 43 275 43 q 594 76 486 43 l 594 19 q 403 -12 494 -12 q 156 80 240 -12 q 73 376 73 173 q 148 667 73 572 q 356 762 223 762 q 559 668 488 762 q 629 375 629 574 l 629 351 m 356 708 q 196 637 253 708 q 137 403 140 565 l 567 403 q 511 637 565 566 q 356 708 457 708 m 169 896 q 221 1058 173 1001 q 355 1115 269 1115 q 491 1057 442 1115 q 544 896 540 1000 l 497 896 q 355 1068 486 1068 q 255 1025 289 1068 q 217 896 221 981 l 169 896 z "},"ē":{"ha":690,"x_min":73,"x_max":629,"o":"m 629 351 l 137 351 q 208 115 140 187 q 408 43 275 43 q 594 76 486 43 l 594 19 q 403 -12 494 -12 q 156 80 240 -12 q 73 376 73 173 q 148 667 73 572 q 356 762 223 762 q 559 668 488 762 q 629 375 629 574 l 629 351 m 356 708 q 196 637 253 708 q 137 403 140 565 l 567 403 q 511 637 565 566 q 356 708 457 708 m 156 964 l 156 1013 l 557 1013 l 557 964 l 156 964 z "},"ḗ":{"ha":690,"x_min":73,"x_max":629,"o":"m 629 351 l 137 351 q 208 115 140 187 q 408 43 275 43 q 594 76 486 43 l 594 19 q 403 -12 494 -12 q 156 80 240 -12 q 73 376 73 173 q 148 667 73 572 q 356 762 223 762 q 559 668 488 762 q 629 375 629 574 l 629 351 m 356 708 q 196 637 253 708 q 137 403 140 565 l 567 403 q 511 637 565 566 q 356 708 457 708 m 156 964 l 156 1013 l 557 1013 l 557 964 l 156 964 m 328 1112 l 450 1303 l 519 1303 l 385 1112 l 328 1112 z "},"ḕ":{"ha":690,"x_min":73,"x_max":629,"o":"m 629 351 l 137 351 q 208 115 140 187 q 408 43 275 43 q 594 76 486 43 l 594 19 q 403 -12 494 -12 q 156 80 240 -12 q 73 376 73 173 q 148 667 73 572 q 356 762 223 762 q 559 668 488 762 q 629 375 629 574 l 629 351 m 356 708 q 196 637 253 708 q 137 403 140 565 l 567 403 q 511 637 565 566 q 356 708 457 708 m 156 964 l 156 1013 l 557 1013 l 557 964 l 156 964 m 328 1112 l 194 1303 l 263 1303 l 385 1112 l 328 1112 z "},"ę":{"ha":690,"x_min":73,"x_max":629,"o":"m 629 351 l 137 351 q 208 115 140 187 q 408 43 275 43 q 594 76 486 43 l 594 19 q 399 -157 399 -44 q 423 -218 399 -197 q 489 -240 447 -240 q 594 -209 543 -240 l 594 -252 q 543 -273 572 -265 q 488 -280 515 -280 q 389 -248 425 -280 q 353 -160 353 -216 q 375 -78 353 -116 q 442 -11 398 -40 q 403 -12 415 -12 q 156 80 240 -12 q 73 376 73 173 q 148 667 73 572 q 356 762 223 762 q 559 668 488 762 q 629 375 629 574 l 629 351 m 356 708 q 196 637 253 708 q 137 403 140 565 l 567 403 q 511 637 565 565 q 356 708 457 708 z "},"ẽ":{"ha":690,"x_min":73,"x_max":629,"o":"m 629 351 l 137 351 q 208 115 140 187 q 408 43 275 43 q 594 76 486 43 l 594 19 q 403 -12 494 -12 q 156 80 240 -12 q 73 376 73 173 q 148 667 73 572 q 356 762 223 762 q 559 668 488 762 q 629 375 629 574 l 629 351 m 356 708 q 196 637 253 708 q 137 403 140 565 l 567 403 q 511 637 565 566 q 356 708 457 708 m 451 953 q 403 960 426 953 q 346 982 381 967 q 300 1001 319 994 q 262 1007 281 1007 q 205 995 231 1007 q 156 957 179 983 l 156 1010 q 262 1053 195 1053 q 311 1046 288 1053 q 367 1024 335 1038 q 414 1006 395 1012 q 451 1000 433 1000 q 508 1012 483 1000 q 557 1050 534 1024 l 557 997 q 451 953 517 953 z "},"ə":{"ha":690,"x_min":61,"x_max":617,"o":"m 288 763 q 534 670 451 763 q 617 375 617 578 q 542 84 617 179 q 334 -11 467 -11 q 132 83 202 -11 q 61 376 61 177 l 61 399 l 553 399 q 483 636 550 564 q 283 708 415 708 q 97 674 203 708 l 97 731 q 288 763 197 763 m 335 42 q 494 114 438 42 q 553 347 551 185 l 123 347 q 180 114 126 185 q 335 42 233 42 z "},"f":{"ha":471,"x_min":11,"x_max":503,"o":"m 405 1080 q 267 1036 311 1080 q 222 894 222 993 l 222 751 l 476 751 l 476 696 l 222 696 l 222 0 l 161 0 l 161 696 l 11 696 l 11 751 l 161 751 l 161 891 q 405 1136 161 1136 q 503 1128 456 1136 l 503 1070 q 405 1080 452 1080 z "},"g":{"ha":753,"x_min":73,"x_max":638,"o":"m 326 -319 q 220 -310 277 -319 q 119 -285 163 -301 l 119 -227 q 325 -264 226 -264 q 467 -239 412 -264 q 549 -157 522 -214 q 576 -5 576 -100 l 576 78 l 572 78 q 480 13 535 38 q 358 -12 425 -12 q 151 76 229 -12 q 73 360 73 165 q 164 663 73 563 q 433 762 256 762 q 538 754 485 762 q 638 732 592 746 l 638 1 q 561 -244 638 -168 q 326 -319 484 -319 m 367 44 q 484 72 428 44 q 576 151 540 99 l 576 688 q 508 701 547 697 q 428 706 469 706 q 210 625 283 706 q 137 367 137 543 q 198 117 137 190 q 367 44 259 44 z "},"ǵ":{"ha":753,"x_min":73,"x_max":638,"o":"m 326 -319 q 220 -310 277 -319 q 119 -285 163 -301 l 119 -227 q 325 -264 226 -264 q 467 -239 412 -264 q 549 -157 522 -214 q 576 -5 576 -100 l 576 78 l 572 78 q 480 13 535 38 q 358 -12 425 -12 q 151 76 229 -12 q 73 360 73 165 q 164 663 73 563 q 433 762 256 762 q 538 754 485 762 q 638 732 592 746 l 638 1 q 561 -244 638 -168 q 326 -319 484 -319 m 367 44 q 484 72 428 44 q 576 151 540 99 l 576 688 q 508 701 547 697 q 428 706 469 706 q 210 625 283 706 q 137 367 137 543 q 198 117 137 190 q 367 44 259 44 m 360 876 l 506 1122 l 575 1122 l 417 876 l 360 876 z "},"ğ":{"ha":753,"x_min":73,"x_max":638,"o":"m 326 -319 q 220 -310 277 -319 q 119 -285 163 -301 l 119 -227 q 325 -264 226 -264 q 467 -239 412 -264 q 549 -157 522 -214 q 576 -5 576 -100 l 576 78 l 572 78 q 480 13 535 38 q 358 -12 425 -12 q 151 76 229 -12 q 73 360 73 165 q 164 663 73 563 q 433 762 256 762 q 538 754 485 762 q 638 732 592 746 l 638 1 q 561 -244 638 -168 q 326 -319 484 -319 m 367 44 q 484 72 428 44 q 576 151 540 99 l 576 688 q 508 701 547 697 q 428 706 469 706 q 210 625 283 706 q 137 367 137 543 q 198 117 137 190 q 367 44 259 44 m 390 884 q 255 942 304 884 q 201 1103 206 999 l 249 1103 q 289 973 255 1017 q 390 930 323 930 q 491 973 458 930 q 529 1103 525 1017 l 576 1103 q 525 941 573 998 q 390 884 476 884 z "},"ǧ":{"ha":753,"x_min":73,"x_max":638,"o":"m 326 -319 q 220 -310 277 -319 q 119 -285 163 -301 l 119 -227 q 325 -264 226 -264 q 467 -239 412 -264 q 549 -157 522 -214 q 576 -5 576 -100 l 576 78 l 572 78 q 480 13 535 38 q 358 -12 425 -12 q 151 76 229 -12 q 73 360 73 165 q 164 663 73 563 q 433 762 256 762 q 538 754 485 762 q 638 732 592 746 l 638 1 q 561 -244 638 -168 q 326 -319 484 -319 m 367 44 q 484 72 428 44 q 576 151 540 99 l 576 688 q 508 701 547 697 q 428 706 469 706 q 210 625 283 706 q 137 367 137 543 q 198 117 137 190 q 367 44 259 44 m 517 1122 l 576 1122 l 421 876 l 358 876 l 203 1122 l 260 1122 l 389 913 l 517 1122 z "},"ĝ":{"ha":753,"x_min":73,"x_max":638,"o":"m 326 -319 q 220 -310 277 -319 q 119 -285 163 -301 l 119 -227 q 325 -264 226 -264 q 467 -239 412 -264 q 549 -157 522 -214 q 576 -5 576 -100 l 576 78 l 572 78 q 480 13 535 38 q 358 -12 425 -12 q 151 76 229 -12 q 73 360 73 165 q 164 663 73 563 q 433 762 256 762 q 538 754 485 762 q 638 732 592 746 l 638 1 q 561 -244 638 -168 q 326 -319 484 -319 m 367 44 q 484 72 428 44 q 576 151 540 99 l 576 688 q 508 701 547 697 q 428 706 469 706 q 210 625 283 706 q 137 367 137 543 q 198 117 137 190 q 367 44 259 44 m 573 876 l 515 876 l 389 1084 l 263 876 l 206 876 l 358 1122 l 421 1122 l 573 876 z "},"ģ":{"ha":753,"x_min":73,"x_max":638,"o":"m 326 -319 q 220 -310 277 -319 q 119 -285 163 -301 l 119 -227 q 325 -264 226 -264 q 467 -239 412 -264 q 549 -157 522 -214 q 576 -5 576 -100 l 576 78 l 572 78 q 480 13 535 38 q 358 -12 425 -12 q 151 76 229 -12 q 73 360 73 165 q 164 663 73 563 q 433 762 256 762 q 538 754 485 762 q 638 732 592 746 l 638 1 q 561 -244 638 -168 q 326 -319 484 -319 m 367 44 q 484 72 428 44 q 576 151 540 99 l 576 688 q 508 701 547 697 q 428 706 469 706 q 210 625 283 706 q 137 367 137 543 q 198 117 137 190 q 367 44 259 44 m 389 1032 q 425 1019 412 1032 q 439 985 439 1006 q 426 952 439 965 q 392 939 413 939 q 353 955 367 939 q 340 1002 340 971 q 348 1063 340 1030 q 372 1128 356 1097 l 411 1128 q 387 1032 390 1074 l 389 1032 z "},"ġ":{"ha":753,"x_min":73,"x_max":638,"o":"m 326 -319 q 220 -310 277 -319 q 119 -285 163 -301 l 119 -227 q 325 -264 226 -264 q 467 -239 412 -264 q 549 -157 522 -214 q 576 -5 576 -100 l 576 78 l 572 78 q 480 13 535 38 q 358 -12 425 -12 q 151 76 229 -12 q 73 360 73 165 q 164 663 73 563 q 433 762 256 762 q 538 754 485 762 q 638 732 592 746 l 638 1 q 561 -244 638 -168 q 326 -319 484 -319 m 367 44 q 484 72 428 44 q 576 151 540 99 l 576 688 q 508 701 547 697 q 428 706 469 706 q 210 625 283 706 q 137 367 137 543 q 198 117 137 190 q 367 44 259 44 m 389 938 q 352 951 366 938 q 339 988 339 965 q 352 1024 339 1010 q 389 1038 366 1038 q 426 1024 412 1038 q 440 988 440 1010 q 426 951 440 965 q 389 938 412 938 z "},"ḡ":{"ha":753,"x_min":73,"x_max":638,"o":"m 326 -319 q 220 -310 277 -319 q 119 -285 163 -301 l 119 -227 q 325 -264 226 -264 q 467 -239 412 -264 q 549 -157 522 -214 q 576 -5 576 -100 l 576 78 l 572 78 q 480 13 535 38 q 358 -12 425 -12 q 151 76 229 -12 q 73 360 73 165 q 164 663 73 563 q 433 762 256 762 q 538 754 485 762 q 638 732 592 746 l 638 1 q 561 -244 638 -168 q 326 -319 484 -319 m 367 44 q 484 72 428 44 q 576 151 540 99 l 576 688 q 508 701 547 697 q 428 706 469 706 q 210 625 283 706 q 137 367 137 543 q 198 117 137 190 q 367 44 259 44 m 188 964 l 188 1013 l 590 1013 l 590 964 l 188 964 z "},"h":{"ha":763,"x_min":115,"x_max":656,"o":"m 115 1122 l 176 1122 l 176 663 l 181 663 q 291 737 229 712 q 424 762 353 762 q 656 510 656 762 l 656 0 l 595 0 l 595 510 q 548 659 595 614 q 415 703 501 703 q 285 675 349 703 q 176 586 220 646 l 176 0 l 115 0 l 115 1122 z "},"ħ":{"ha":763,"x_min":8,"x_max":656,"o":"m 424 762 q 656 510 656 762 l 656 0 l 595 0 l 595 510 q 548 659 595 614 q 415 703 501 703 q 285 675 349 703 q 176 586 220 646 l 176 0 l 115 0 l 115 917 l 8 917 l 8 967 l 115 967 l 115 1122 l 176 1122 l 176 967 l 428 967 l 428 917 l 176 917 l 176 663 l 181 663 q 291 737 229 712 q 424 762 353 762 z "},"ḫ":{"ha":763,"x_min":115,"x_max":656,"o":"m 115 1122 l 176 1122 l 176 663 l 181 663 q 291 737 229 712 q 424 762 353 762 q 656 510 656 762 l 656 0 l 595 0 l 595 510 q 548 659 595 614 q 415 703 501 703 q 285 675 349 703 q 176 586 220 646 l 176 0 l 115 0 l 115 1122 m 388 -281 q 287 -260 329 -281 q 222 -200 244 -239 q 199 -110 199 -162 l 247 -110 q 388 -234 253 -234 q 526 -110 522 -234 l 574 -110 q 524 -235 572 -190 q 388 -281 476 -281 z "},"ĥ":{"ha":763,"x_min":115,"x_max":656,"o":"m 115 1122 l 176 1122 l 176 663 l 181 663 q 291 737 229 712 q 424 762 353 762 q 656 510 656 762 l 656 0 l 595 0 l 595 510 q 548 659 595 614 q 415 703 501 703 q 285 675 349 703 q 176 586 220 646 l 176 0 l 115 0 l 115 1122 m 585 1188 l 520 1188 l 386 1344 l 252 1188 l 187 1188 l 355 1378 l 418 1378 l 585 1188 z "},"ḥ":{"ha":763,"x_min":115,"x_max":656,"o":"m 115 1122 l 176 1122 l 176 663 l 181 663 q 291 737 229 712 q 424 762 353 762 q 656 510 656 762 l 656 0 l 595 0 l 595 510 q 548 659 595 614 q 415 703 501 703 q 285 675 349 703 q 176 586 220 646 l 176 0 l 115 0 l 115 1122 m 386 -223 q 350 -210 364 -223 q 337 -174 337 -197 q 350 -138 337 -152 q 386 -124 364 -124 q 422 -138 408 -124 q 435 -174 435 -152 q 422 -210 435 -197 q 386 -223 408 -223 z "},"i":{"ha":292,"x_min":96,"x_max":197,"o":"m 115 0 l 115 751 l 176 751 l 176 0 l 115 0 m 146 938 q 109 951 123 938 q 96 988 96 965 q 109 1024 96 1010 q 146 1038 123 1038 q 183 1024 169 1038 q 197 988 197 1010 q 183 951 197 965 q 146 938 169 938 z "},"ı":{"ha":292,"x_min":115,"x_max":176,"o":"m 115 0 l 115 751 l 176 751 l 176 0 l 115 0 z "},"í":{"ha":292,"x_min":115,"x_max":332,"o":"m 115 0 l 115 751 l 176 751 l 176 0 l 115 0 m 117 876 l 263 1122 l 332 1122 l 174 876 l 117 876 z "},"ĭ":{"ha":292,"x_min":-42,"x_max":333,"o":"m 115 0 l 115 751 l 176 751 l 176 0 l 115 0 m 147 884 q 12 942 61 884 q -42 1103 -37 999 l 6 1103 q 46 973 12 1017 q 147 930 80 930 q 248 973 215 930 q 286 1103 282 1017 l 333 1103 q 282 941 330 998 q 147 884 233 884 z "},"î":{"ha":292,"x_min":-37,"x_max":330,"o":"m 115 0 l 115 751 l 176 751 l 176 0 l 115 0 m 330 876 l 272 876 l 146 1084 l 20 876 l -37 876 l 115 1122 l 178 1122 l 330 876 z "},"ȉ":{"ha":292,"x_min":-85,"x_max":278,"o":"m 115 0 l 115 751 l 176 751 l 176 0 l 115 0 m 15 876 l -85 1122 l -26 1122 l 67 876 l 15 876 m 226 876 l 126 1122 l 185 1122 l 278 876 l 226 876 z "},"ï":{"ha":292,"x_min":-44,"x_max":337,"o":"m 115 0 l 115 751 l 176 751 l 176 0 l 115 0 m 5 939 q -31 952 -17 939 q -44 988 -44 965 q -31 1024 -44 1010 q 5 1038 -17 1038 q 40 1024 26 1038 q 53 988 53 1010 q 40 952 53 965 q 5 939 26 939 m 288 939 q 252 952 265 939 q 238 988 238 965 q 252 1024 238 1010 q 288 1038 265 1038 q 323 1024 310 1038 q 337 988 337 1010 q 323 952 337 965 q 288 939 310 939 z "},"ḯ":{"ha":292,"x_min":-44,"x_max":337,"o":"m 115 0 l 115 751 l 176 751 l 176 0 l 115 0 m 5 939 q -31 952 -17 939 q -44 988 -44 965 q -31 1024 -44 1010 q 5 1038 -17 1038 q 40 1024 26 1038 q 53 988 53 1010 q 40 952 53 965 q 5 939 26 939 m 288 939 q 252 952 265 939 q 238 988 238 965 q 252 1024 238 1010 q 288 1038 265 1038 q 323 1024 310 1038 q 337 988 337 1010 q 323 952 337 965 q 288 939 310 939 m 123 1125 l 245 1316 l 314 1316 l 180 1125 l 123 1125 z "},"ị":{"ha":292,"x_min":96,"x_max":197,"o":"m 115 0 l 115 751 l 176 751 l 176 0 l 115 0 m 146 938 q 109 951 123 938 q 96 988 96 965 q 109 1024 96 1010 q 146 1038 123 1038 q 183 1024 169 1038 q 197 988 197 1010 q 183 951 197 965 q 146 938 169 938 m 146 -223 q 110 -210 124 -223 q 97 -174 97 -197 q 110 -138 97 -152 q 146 -124 124 -124 q 182 -138 168 -124 q 195 -174 195 -152 q 182 -210 195 -197 q 146 -223 168 -223 z "},"ì":{"ha":292,"x_min":-40,"x_max":176,"o":"m 115 0 l 115 751 l 176 751 l 176 0 l 115 0 m 117 876 l -40 1122 l 29 1122 l 174 876 l 117 876 z "},"ỉ":{"ha":292,"x_min":39,"x_max":280,"o":"m 115 0 l 115 751 l 176 751 l 176 0 l 115 0 m 122 876 q 132 921 122 903 q 155 951 142 940 q 188 978 167 963 q 223 1007 212 994 q 233 1036 233 1019 q 212 1075 233 1063 q 146 1088 191 1088 q 90 1084 119 1088 q 39 1072 61 1080 l 39 1114 q 89 1126 60 1122 q 144 1131 117 1131 q 247 1107 213 1131 q 280 1038 280 1083 q 272 1000 280 1016 q 254 975 265 985 q 224 951 243 965 q 184 918 198 933 q 170 876 171 902 l 122 876 z "},"ȋ":{"ha":292,"x_min":-42,"x_max":333,"o":"m 115 0 l 115 751 l 176 751 l 176 0 l 115 0 m -42 896 q 10 1058 -37 1001 q 144 1115 58 1115 q 281 1057 231 1115 q 333 896 330 1000 l 286 896 q 144 1068 276 1068 q 44 1025 78 1068 q 6 896 10 981 l -42 896 z "},"ī":{"ha":292,"x_min":-55,"x_max":347,"o":"m 115 0 l 115 751 l 176 751 l 176 0 l 115 0 m -55 964 l -55 1013 l 347 1013 l 347 964 l -55 964 z "},"į":{"ha":292,"x_min":6,"x_max":247,"o":"m 146 938 q 109 951 123 938 q 96 988 96 965 q 109 1024 96 1010 q 146 1038 123 1038 q 183 1024 169 1038 q 197 988 197 1010 q 183 951 197 965 q 146 938 169 938 m 142 -240 q 247 -209 197 -240 l 247 -252 q 197 -273 225 -265 q 142 -280 169 -280 q 42 -248 78 -280 q 6 -160 6 -216 q 33 -71 6 -112 q 115 9 59 -30 l 115 751 l 176 751 l 176 0 q 82 -76 110 -39 q 53 -158 53 -113 q 76 -218 53 -197 q 142 -240 100 -240 z "},"ĩ":{"ha":292,"x_min":-55,"x_max":347,"o":"m 115 0 l 115 751 l 176 751 l 176 0 l 115 0 m 240 953 q 193 960 215 953 q 135 982 170 967 q 90 1001 109 994 q 51 1007 70 1007 q -6 995 20 1007 q -55 957 -31 983 l -55 1010 q 51 1053 -15 1053 q 101 1046 77 1053 q 156 1024 124 1038 q 203 1006 185 1012 q 241 1000 222 1000 q 298 1012 272 1000 q 347 1050 324 1024 l 347 997 q 240 953 307 953 z "},"j":{"ha":292,"x_min":-15,"x_max":197,"o":"m -15 -290 q 85 -100 54 -194 q 115 116 115 -6 l 115 751 l 176 751 l 176 121 q 141 -113 176 -12 q 27 -320 106 -215 l -15 -290 m 146 942 q 109 956 123 942 q 96 992 96 969 q 109 1028 96 1014 q 146 1042 123 1042 q 183 1028 169 1042 q 197 992 197 1014 q 183 956 197 969 q 146 942 169 942 z "},"ȷ":{"ha":292,"x_min":-15,"x_max":176,"o":"m -15 -290 q 85 -100 54 -194 q 115 116 115 -6 l 115 751 l 176 751 l 176 121 q 141 -113 176 -12 q 27 -320 106 -215 l -15 -290 z "},"ĵ":{"ha":292,"x_min":-37,"x_max":330,"o":"m -15 -290 q 85 -100 54 -194 q 115 116 115 -6 l 115 751 l 176 751 l 176 121 q 141 -113 176 -12 q 27 -320 106 -215 l -15 -290 m 330 881 l 272 881 l 146 1088 l 20 881 l -37 881 l 115 1126 l 178 1126 l 330 881 z "},"k":{"ha":677,"x_min":115,"x_max":688,"o":"m 615 0 l 319 356 l 176 356 l 176 0 l 115 0 l 115 1122 l 176 1122 l 176 411 l 319 411 l 593 751 l 666 751 l 372 385 l 688 0 l 615 0 z "},"ķ":{"ha":677,"x_min":115,"x_max":688,"o":"m 615 0 l 319 356 l 176 356 l 176 0 l 115 0 l 115 1122 l 176 1122 l 176 411 l 319 411 l 593 751 l 666 751 l 372 385 l 688 0 l 615 0 m 364 -124 q 402 -141 388 -124 q 416 -188 416 -157 q 407 -249 416 -215 q 383 -314 399 -283 l 344 -314 q 369 -218 365 -260 l 366 -218 q 330 -205 344 -218 q 317 -171 317 -192 q 330 -137 317 -150 q 364 -124 342 -124 z "},"ĸ":{"ha":677,"x_min":115,"x_max":688,"o":"m 615 0 l 319 356 l 176 356 l 176 0 l 115 0 l 115 751 l 176 751 l 176 411 l 319 411 l 593 751 l 666 751 l 372 385 l 688 0 l 615 0 z "},"l":{"ha":292,"x_min":115,"x_max":176,"o":"m 115 0 l 115 1122 l 176 1122 l 176 0 l 115 0 z "},"ĺ":{"ha":292,"x_min":115,"x_max":308,"o":"m 115 0 l 115 1122 l 176 1122 l 176 0 l 115 0 m 117 1188 l 240 1378 l 308 1378 l 174 1188 l 117 1188 z "},"ľ":{"ha":292,"x_min":115,"x_max":311,"o":"m 115 0 l 115 1122 l 176 1122 l 176 0 l 115 0 m 245 819 q 258 1122 258 929 l 311 1122 q 285 819 311 947 l 245 819 z "},"ļ":{"ha":292,"x_min":97,"x_max":196,"o":"m 115 0 l 115 1122 l 176 1122 l 176 0 l 115 0 m 144 -124 q 182 -141 168 -124 q 196 -188 196 -157 q 187 -249 196 -215 q 163 -314 178 -283 l 124 -314 q 149 -218 145 -260 l 146 -218 q 110 -205 124 -218 q 97 -171 97 -192 q 109 -137 97 -150 q 144 -124 122 -124 z "},"ŀ":{"ha":308,"x_min":115,"x_max":343,"o":"m 115 0 l 115 1122 l 176 1122 l 176 0 l 115 0 m 293 501 q 256 515 270 501 q 242 550 242 528 q 256 586 242 573 q 293 600 270 600 q 330 586 316 600 q 343 550 343 573 q 330 515 343 528 q 293 501 316 501 z "},"ḷ":{"ha":292,"x_min":97,"x_max":195,"o":"m 115 0 l 115 1122 l 176 1122 l 176 0 l 115 0 m 146 -223 q 110 -210 124 -223 q 97 -174 97 -197 q 110 -138 97 -152 q 146 -124 124 -124 q 182 -138 168 -124 q 195 -174 195 -152 q 182 -210 195 -197 q 146 -223 168 -223 z "},"ǉ":{"ha":583,"x_min":115,"x_max":488,"o":"m 115 0 l 115 1122 l 176 1122 l 176 0 l 115 0 m 276 -290 q 376 -100 346 -194 q 407 116 407 -6 l 407 751 l 468 751 l 468 121 q 433 -113 468 -12 q 319 -320 398 -215 l 276 -290 m 438 942 q 401 956 415 942 q 388 992 388 969 q 401 1028 388 1014 q 438 1042 415 1042 q 474 1028 460 1042 q 488 992 488 1014 q 474 956 488 969 q 438 942 460 942 z "},"ḻ":{"ha":292,"x_min":-33,"x_max":325,"o":"m 115 0 l 115 1122 l 176 1122 l 176 0 l 115 0 m -33 -199 l -33 -151 l 325 -151 l 325 -199 l -33 -199 z "},"ł":{"ha":292,"x_min":4,"x_max":289,"o":"m 289 583 l 176 489 l 176 0 l 115 0 l 115 438 l 35 371 l 4 409 l 115 501 l 115 1122 l 176 1122 l 176 553 l 258 621 l 289 583 z "},"m":{"ha":1142,"x_min":115,"x_max":1037,"o":"m 822 762 q 979 702 922 762 q 1037 510 1037 642 l 1037 0 l 976 0 l 976 508 q 933 659 976 613 q 813 705 890 705 q 700 677 758 705 q 603 586 643 649 q 608 510 608 551 l 608 0 l 548 0 l 548 508 q 506 659 548 613 q 389 705 465 705 q 274 675 331 705 q 176 583 217 645 l 176 0 l 115 0 l 115 751 l 168 751 l 173 662 l 179 662 q 280 736 223 711 q 399 762 336 762 q 585 649 538 762 q 698 735 636 708 q 822 762 759 762 z "},"ṃ":{"ha":1142,"x_min":115,"x_max":1037,"o":"m 822 762 q 979 702 922 762 q 1037 510 1037 642 l 1037 0 l 976 0 l 976 508 q 933 659 976 613 q 813 705 890 705 q 700 677 758 705 q 603 586 643 649 q 608 510 608 551 l 608 0 l 548 0 l 548 508 q 506 659 548 613 q 389 705 465 705 q 274 675 331 705 q 176 583 217 645 l 176 0 l 115 0 l 115 751 l 168 751 l 173 662 l 179 662 q 280 736 223 711 q 399 762 336 762 q 585 649 538 762 q 698 735 636 708 q 822 762 759 762 m 578 -223 q 543 -210 556 -223 q 529 -174 529 -197 q 543 -138 529 -152 q 578 -124 556 -124 q 614 -138 601 -124 q 628 -174 628 -152 q 614 -210 628 -197 q 578 -223 601 -223 z "},"n":{"ha":763,"x_min":115,"x_max":656,"o":"m 115 751 l 168 751 l 173 662 l 179 662 q 290 736 227 710 q 422 762 352 762 q 656 510 656 762 l 656 0 l 595 0 l 595 508 q 549 659 595 613 q 415 705 502 705 q 286 676 351 705 q 176 587 221 648 l 176 0 l 115 0 l 115 751 z "},"ń":{"ha":763,"x_min":115,"x_max":656,"o":"m 115 751 l 168 751 l 173 662 l 179 662 q 290 736 227 710 q 422 762 352 762 q 656 510 656 762 l 656 0 l 595 0 l 595 508 q 549 659 595 613 q 415 705 502 705 q 286 676 351 705 q 176 587 221 648 l 176 0 l 115 0 l 115 751 m 358 876 l 503 1122 l 572 1122 l 415 876 l 358 876 z "},"ŉ":{"ha":763,"x_min":9,"x_max":656,"o":"m 115 751 l 168 751 l 173 662 l 179 662 q 290 736 227 710 q 422 762 352 762 q 656 510 656 762 l 656 0 l 595 0 l 595 508 q 549 659 595 613 q 415 705 502 705 q 286 676 351 705 q 176 587 221 648 l 176 0 l 115 0 l 115 751 m 56 1128 q 95 1112 81 1128 q 108 1065 108 1096 q 100 1003 108 1038 q 76 939 91 969 l 37 939 q 61 1035 58 992 l 59 1035 q 23 1048 36 1035 q 9 1082 9 1061 q 22 1115 9 1102 q 56 1128 35 1128 z "},"ň":{"ha":763,"x_min":115,"x_max":656,"o":"m 115 751 l 168 751 l 173 662 l 179 662 q 290 736 227 710 q 422 762 352 762 q 656 510 656 762 l 656 0 l 595 0 l 595 508 q 549 659 595 613 q 415 705 502 705 q 286 676 351 705 q 176 587 221 648 l 176 0 l 115 0 l 115 751 m 515 1122 l 573 1122 l 418 876 l 355 876 l 200 1122 l 258 1122 l 386 913 l 515 1122 z "},"ņ":{"ha":763,"x_min":115,"x_max":656,"o":"m 115 751 l 168 751 l 173 662 l 179 662 q 290 736 227 710 q 422 762 352 762 q 656 510 656 762 l 656 0 l 595 0 l 595 508 q 549 659 595 613 q 415 705 502 705 q 286 676 351 705 q 176 587 221 648 l 176 0 l 115 0 l 115 751 m 384 -124 q 422 -141 408 -124 q 436 -188 436 -157 q 427 -249 436 -215 q 403 -314 419 -283 l 365 -314 q 389 -218 385 -260 l 386 -218 q 350 -205 364 -218 q 337 -171 337 -192 q 350 -137 337 -150 q 384 -124 363 -124 z "},"ṅ":{"ha":763,"x_min":115,"x_max":656,"o":"m 115 751 l 168 751 l 173 662 l 179 662 q 290 736 227 710 q 422 762 352 762 q 656 510 656 762 l 656 0 l 595 0 l 595 508 q 549 659 595 613 q 415 705 502 705 q 286 676 351 705 q 176 587 221 648 l 176 0 l 115 0 l 115 751 m 386 938 q 350 951 363 938 q 336 988 336 965 q 350 1024 336 1010 q 386 1038 363 1038 q 423 1024 409 1038 q 437 988 437 1010 q 423 951 437 965 q 386 938 409 938 z "},"ṇ":{"ha":763,"x_min":115,"x_max":656,"o":"m 115 751 l 168 751 l 173 662 l 179 662 q 290 736 227 710 q 422 762 352 762 q 656 510 656 762 l 656 0 l 595 0 l 595 508 q 549 659 595 613 q 415 705 502 705 q 286 676 351 705 q 176 587 221 648 l 176 0 l 115 0 l 115 751 m 386 -223 q 350 -210 364 -223 q 337 -174 337 -197 q 350 -138 337 -152 q 386 -124 364 -124 q 422 -138 408 -124 q 435 -174 435 -152 q 422 -210 435 -197 q 386 -223 408 -223 z "},"ŋ":{"ha":763,"x_min":115,"x_max":656,"o":"m 465 -290 q 565 -101 534 -195 q 595 116 595 -7 l 595 510 q 548 659 595 614 q 415 705 501 705 q 285 676 349 705 q 176 586 220 647 l 176 0 l 115 0 l 115 751 l 168 751 l 173 662 l 179 662 q 290 737 227 712 q 422 762 352 762 q 656 510 656 762 l 656 95 q 617 -123 651 -28 q 508 -320 584 -218 l 465 -290 z "},"ǌ":{"ha":1054,"x_min":115,"x_max":959,"o":"m 115 751 l 168 751 l 173 662 l 179 662 q 290 736 227 710 q 422 762 352 762 q 656 510 656 762 l 656 0 l 595 0 l 595 508 q 549 659 595 613 q 415 705 502 705 q 286 676 351 705 q 176 587 221 648 l 176 0 l 115 0 l 115 751 m 747 -290 q 847 -100 817 -194 q 878 116 878 -6 l 878 751 l 939 751 l 939 121 q 904 -113 939 -12 q 790 -320 869 -215 l 747 -290 m 908 942 q 872 956 885 942 q 858 992 858 969 q 872 1028 858 1014 q 908 1042 885 1042 q 945 1028 931 1042 q 959 992 959 1014 q 945 956 959 969 q 908 942 931 942 z "},"ṉ":{"ha":763,"x_min":115,"x_max":656,"o":"m 115 751 l 168 751 l 173 662 l 179 662 q 290 736 227 710 q 422 762 352 762 q 656 510 656 762 l 656 0 l 595 0 l 595 508 q 549 659 595 613 q 415 705 502 705 q 286 676 351 705 q 176 587 221 648 l 176 0 l 115 0 l 115 751 m 208 -199 l 208 -151 l 565 -151 l 565 -199 l 208 -199 z "},"ñ":{"ha":763,"x_min":115,"x_max":656,"o":"m 115 751 l 168 751 l 173 662 l 179 662 q 290 736 227 710 q 422 762 352 762 q 656 510 656 762 l 656 0 l 595 0 l 595 508 q 549 659 595 613 q 415 705 502 705 q 286 676 351 705 q 176 587 221 648 l 176 0 l 115 0 l 115 751 m 481 953 q 433 960 456 953 q 376 982 410 967 q 330 1001 349 994 q 292 1007 310 1007 q 235 995 260 1007 q 185 957 209 983 l 185 1010 q 292 1053 225 1053 q 341 1046 317 1053 q 397 1024 365 1038 q 444 1006 425 1012 q 481 1000 463 1000 q 538 1012 513 1000 q 587 1050 564 1024 l 587 997 q 481 953 547 953 z "},"o":{"ha":742,"x_min":73,"x_max":670,"o":"m 372 -12 q 152 81 231 -12 q 73 375 73 175 q 152 668 73 574 q 372 762 231 762 q 591 668 513 762 q 670 375 670 575 q 591 82 670 177 q 372 -12 512 -12 m 372 43 q 545 120 485 43 q 606 373 606 197 q 546 630 606 553 q 372 706 485 706 q 197 630 258 706 q 137 377 137 554 q 197 120 137 197 q 372 43 258 43 z "},"ó":{"ha":742,"x_min":73,"x_max":670,"o":"m 372 -12 q 152 81 231 -12 q 73 375 73 175 q 152 668 73 574 q 372 762 231 762 q 591 668 513 762 q 670 375 670 575 q 591 82 670 177 q 372 -12 512 -12 m 372 43 q 545 120 485 43 q 606 373 606 197 q 546 630 606 553 q 372 706 485 706 q 197 630 258 706 q 137 377 137 554 q 197 120 137 197 q 372 43 258 43 m 343 876 l 489 1122 l 558 1122 l 400 876 l 343 876 z "},"ŏ":{"ha":742,"x_min":73,"x_max":670,"o":"m 372 -12 q 152 81 231 -12 q 73 375 73 175 q 152 668 73 574 q 372 762 231 762 q 591 668 513 762 q 670 375 670 575 q 591 82 670 177 q 372 -12 512 -12 m 372 43 q 545 120 485 43 q 606 373 606 197 q 546 630 606 553 q 372 706 485 706 q 197 630 258 706 q 137 377 137 554 q 197 120 137 197 q 372 43 258 43 m 373 884 q 238 942 287 884 q 184 1103 188 999 l 232 1103 q 272 973 238 1017 q 373 930 306 930 q 474 973 440 930 q 512 1103 508 1017 l 559 1103 q 507 941 556 998 q 373 884 459 884 z "},"ô":{"ha":742,"x_min":73,"x_max":670,"o":"m 372 -12 q 152 81 231 -12 q 73 375 73 175 q 152 668 73 574 q 372 762 231 762 q 591 668 513 762 q 670 375 670 575 q 591 82 670 177 q 372 -12 512 -12 m 372 43 q 545 120 485 43 q 606 373 606 197 q 546 630 606 553 q 372 706 485 706 q 197 630 258 706 q 137 377 137 554 q 197 120 137 197 q 372 43 258 43 m 556 876 l 497 876 l 372 1084 l 246 876 l 188 876 l 340 1122 l 403 1122 l 556 876 z "},"ố":{"ha":742,"x_min":73,"x_max":700,"o":"m 372 -12 q 152 81 231 -12 q 73 375 73 175 q 152 668 73 574 q 372 762 231 762 q 591 668 513 762 q 670 375 670 575 q 591 82 670 177 q 372 -12 512 -12 m 372 43 q 545 120 485 43 q 606 373 606 197 q 546 630 606 553 q 372 706 485 706 q 197 630 258 706 q 137 377 137 554 q 197 120 137 197 q 372 43 258 43 m 635 1297 l 700 1297 l 566 1108 l 513 1108 l 635 1297 m 340 1122 l 403 1122 l 556 876 l 497 876 l 372 1084 l 246 876 l 188 876 l 340 1122 z "},"ộ":{"ha":742,"x_min":73,"x_max":670,"o":"m 372 -12 q 152 81 231 -12 q 73 375 73 175 q 152 668 73 574 q 372 762 231 762 q 591 668 513 762 q 670 375 670 575 q 591 82 670 177 q 372 -12 512 -12 m 372 43 q 545 120 485 43 q 606 373 606 197 q 546 630 606 553 q 372 706 485 706 q 197 630 258 706 q 137 377 137 554 q 197 120 137 197 q 372 43 258 43 m 372 -223 q 336 -210 349 -223 q 322 -174 322 -197 q 336 -138 322 -152 q 372 -124 349 -124 q 407 -138 394 -124 q 421 -174 421 -152 q 407 -210 421 -197 q 372 -223 394 -223 m 556 876 l 497 876 l 372 1084 l 246 876 l 188 876 l 340 1122 l 403 1122 l 556 876 z "},"ồ":{"ha":742,"x_min":73,"x_max":670,"o":"m 372 -12 q 152 81 231 -12 q 73 375 73 175 q 152 668 73 574 q 372 762 231 762 q 591 668 513 762 q 670 375 670 575 q 591 82 670 177 q 372 -12 512 -12 m 372 43 q 545 120 485 43 q 606 373 606 197 q 546 630 606 553 q 372 706 485 706 q 197 630 258 706 q 137 377 137 554 q 197 120 137 197 q 372 43 258 43 m 576 1108 l 523 1108 l 389 1297 l 454 1297 l 576 1108 m 340 1122 l 403 1122 l 556 876 l 497 876 l 372 1084 l 246 876 l 188 876 l 340 1122 z "},"ổ":{"ha":742,"x_min":73,"x_max":670,"o":"m 372 -12 q 152 81 231 -12 q 73 375 73 175 q 152 668 73 574 q 372 762 231 762 q 591 668 513 762 q 670 375 670 575 q 591 82 670 177 q 372 -12 512 -12 m 372 43 q 545 120 485 43 q 606 373 606 197 q 546 630 606 553 q 372 706 485 706 q 197 630 258 706 q 137 377 137 554 q 197 120 137 197 q 372 43 258 43 m 542 1298 q 638 1278 606 1298 q 670 1224 670 1258 q 661 1192 670 1205 q 641 1173 653 1180 q 608 1156 629 1165 q 571 1135 583 1144 q 556 1108 558 1126 l 508 1108 q 527 1151 509 1137 q 576 1180 544 1166 q 613 1199 601 1191 q 624 1222 624 1208 q 605 1249 624 1240 q 541 1258 587 1258 q 472 1252 504 1258 q 405 1233 440 1247 l 405 1274 q 542 1298 461 1298 m 340 1122 l 403 1122 l 556 876 l 497 876 l 372 1084 l 246 876 l 188 876 l 340 1122 z "},"ỗ":{"ha":742,"x_min":73,"x_max":670,"o":"m 372 -12 q 152 81 231 -12 q 73 375 73 175 q 152 668 73 574 q 372 762 231 762 q 591 668 513 762 q 670 375 670 575 q 591 82 670 177 q 372 -12 512 -12 m 372 43 q 545 120 485 43 q 606 373 606 197 q 546 630 606 553 q 372 706 485 706 q 197 630 258 706 q 137 377 137 554 q 197 120 137 197 q 372 43 258 43 m 467 1206 q 524 1218 499 1206 q 573 1255 550 1230 l 573 1203 q 467 1160 534 1160 q 417 1168 441 1160 q 361 1189 394 1175 q 314 1207 333 1201 q 276 1213 295 1213 q 219 1201 244 1213 q 170 1164 194 1190 l 170 1216 q 276 1258 210 1258 q 324 1251 301 1258 q 382 1231 347 1244 q 429 1213 410 1219 q 467 1206 449 1206 m 340 1119 l 403 1119 l 556 876 l 498 876 l 372 1083 l 245 876 l 187 876 l 340 1119 z "},"ȍ":{"ha":742,"x_min":73,"x_max":670,"o":"m 372 -12 q 152 81 231 -12 q 73 375 73 175 q 152 668 73 574 q 372 762 231 762 q 591 668 513 762 q 670 375 670 575 q 591 82 670 177 q 372 -12 512 -12 m 372 43 q 545 120 485 43 q 606 373 606 197 q 546 630 606 553 q 372 706 485 706 q 197 630 258 706 q 137 377 137 554 q 197 120 137 197 q 372 43 258 43 m 240 876 l 140 1122 l 199 1122 l 292 876 l 240 876 m 451 876 l 351 1122 l 410 1122 l 503 876 l 451 876 z "},"ö":{"ha":742,"x_min":73,"x_max":670,"o":"m 372 -12 q 152 81 231 -12 q 73 375 73 175 q 152 668 73 574 q 372 762 231 762 q 591 668 513 762 q 670 375 670 575 q 591 82 670 177 q 372 -12 512 -12 m 372 43 q 545 120 485 43 q 606 373 606 197 q 546 630 606 553 q 372 706 485 706 q 197 630 258 706 q 137 377 137 554 q 197 120 137 197 q 372 43 258 43 m 231 939 q 195 952 208 939 q 181 988 181 965 q 195 1024 181 1010 q 231 1038 208 1038 q 266 1024 252 1038 q 279 988 279 1010 q 266 952 279 965 q 231 939 252 939 m 513 939 q 477 952 491 939 q 464 988 464 965 q 477 1024 464 1010 q 513 1038 491 1038 q 549 1024 535 1038 q 563 988 563 1010 q 549 952 563 965 q 513 939 535 939 z "},"ȫ":{"ha":742,"x_min":73,"x_max":670,"o":"m 372 -12 q 152 81 231 -12 q 73 375 73 175 q 152 668 73 574 q 372 762 231 762 q 591 668 513 762 q 670 375 670 575 q 591 82 670 177 q 372 -12 512 -12 m 372 43 q 545 120 485 43 q 606 373 606 197 q 546 630 606 553 q 372 706 485 706 q 197 630 258 706 q 137 377 137 554 q 197 120 137 197 q 372 43 258 43 m 231 939 q 195 952 208 939 q 181 988 181 965 q 195 1024 181 1010 q 231 1038 208 1038 q 266 1024 252 1038 q 279 988 279 1010 q 266 952 279 965 q 231 939 252 939 m 513 939 q 477 952 491 939 q 464 988 464 965 q 477 1024 464 1010 q 513 1038 491 1038 q 549 1024 535 1038 q 563 988 563 1010 q 549 952 563 965 q 513 939 535 939 m 171 1153 l 171 1202 l 572 1202 l 572 1153 l 171 1153 z "},"ȱ":{"ha":742,"x_min":73,"x_max":670,"o":"m 372 -12 q 152 81 231 -12 q 73 375 73 175 q 152 668 73 574 q 372 762 231 762 q 591 668 513 762 q 670 375 670 575 q 591 82 670 177 q 372 -12 512 -12 m 372 43 q 545 120 485 43 q 606 373 606 197 q 546 630 606 553 q 372 706 485 706 q 197 630 258 706 q 137 377 137 554 q 197 120 137 197 q 372 43 258 43 m 372 938 q 335 951 349 938 q 322 988 322 965 q 335 1024 322 1010 q 372 1038 349 1038 q 408 1024 394 1038 q 422 988 422 1010 q 408 951 422 965 q 372 938 394 938 m 171 1153 l 171 1202 l 572 1202 l 572 1153 l 171 1153 z "},"ọ":{"ha":742,"x_min":73,"x_max":670,"o":"m 372 -12 q 152 81 231 -12 q 73 375 73 175 q 152 668 73 574 q 372 762 231 762 q 591 668 513 762 q 670 375 670 575 q 591 82 670 177 q 372 -12 512 -12 m 372 43 q 545 120 485 43 q 606 373 606 197 q 546 630 606 553 q 372 706 485 706 q 197 630 258 706 q 137 377 137 554 q 197 120 137 197 q 372 43 258 43 m 372 -223 q 336 -210 349 -223 q 322 -174 322 -197 q 336 -138 322 -152 q 372 -124 349 -124 q 407 -138 394 -124 q 421 -174 421 -152 q 407 -210 421 -197 q 372 -223 394 -223 z "},"ò":{"ha":742,"x_min":73,"x_max":670,"o":"m 372 -12 q 152 81 231 -12 q 73 375 73 175 q 152 668 73 574 q 372 762 231 762 q 591 668 513 762 q 670 375 670 575 q 591 82 670 177 q 372 -12 512 -12 m 372 43 q 545 120 485 43 q 606 373 606 197 q 546 630 606 553 q 372 706 485 706 q 197 630 258 706 q 137 377 137 554 q 197 120 137 197 q 372 43 258 43 m 343 876 l 186 1122 l 255 1122 l 400 876 l 343 876 z "},"ỏ":{"ha":742,"x_min":73,"x_max":670,"o":"m 372 -12 q 152 81 231 -12 q 73 375 73 175 q 152 668 73 574 q 372 762 231 762 q 591 668 513 762 q 670 375 670 575 q 591 82 670 177 q 372 -12 512 -12 m 372 43 q 545 120 485 43 q 606 373 606 197 q 546 630 606 553 q 372 706 485 706 q 197 630 258 706 q 137 377 137 554 q 197 120 137 197 q 372 43 258 43 m 347 876 q 358 921 348 903 q 380 951 367 940 q 414 978 393 963 q 448 1007 438 994 q 459 1036 459 1019 q 438 1075 459 1063 q 372 1088 417 1088 q 316 1084 345 1088 q 265 1072 287 1080 l 265 1114 q 315 1126 286 1122 q 370 1131 343 1131 q 472 1107 439 1131 q 506 1038 506 1083 q 498 1000 506 1016 q 480 975 490 985 q 449 951 469 965 q 410 918 424 933 q 396 876 397 902 l 347 876 z "},"ơ":{"ha":742,"x_min":73,"x_max":685,"o":"m 550 708 q 640 579 610 661 q 670 375 670 497 q 591 82 670 177 q 372 -12 512 -12 q 152 81 231 -12 q 73 375 73 175 q 152 668 73 574 q 372 762 231 762 q 447 758 391 762 q 494 756 483 756 q 595 784 559 756 q 631 871 631 813 q 627 920 631 898 q 615 969 623 943 l 668 969 q 681 921 677 944 q 685 869 685 899 q 650 761 685 802 q 550 708 614 719 m 372 43 q 545 120 485 43 q 606 373 606 197 q 546 630 606 553 q 372 706 485 706 q 197 630 258 706 q 137 377 137 554 q 197 120 137 197 q 372 43 258 43 z "},"ớ":{"ha":742,"x_min":73,"x_max":685,"o":"m 553 1122 l 397 876 l 340 876 l 485 1122 l 553 1122 m 550 708 q 640 579 610 661 q 670 375 670 497 q 591 82 670 177 q 372 -12 512 -12 q 152 81 231 -12 q 73 375 73 175 q 152 668 73 574 q 372 762 231 762 q 447 758 391 762 q 494 756 483 756 q 595 784 559 756 q 631 871 631 813 q 627 920 631 898 q 615 969 623 943 l 668 969 q 681 921 677 944 q 685 869 685 899 q 650 761 685 802 q 550 708 614 719 m 372 43 q 545 120 485 43 q 606 373 606 197 q 546 630 606 553 q 372 706 485 706 q 197 630 258 706 q 137 377 137 554 q 197 120 137 197 q 372 43 258 43 z "},"ợ":{"ha":742,"x_min":73,"x_max":685,"o":"m 550 708 q 640 579 610 661 q 670 375 670 497 q 591 82 670 177 q 372 -12 512 -12 q 152 81 231 -12 q 73 375 73 175 q 152 668 73 574 q 372 762 231 762 q 447 758 391 762 q 494 756 483 756 q 595 784 559 756 q 631 871 631 813 q 627 920 631 898 q 615 969 623 943 l 668 969 q 681 921 677 944 q 685 869 685 899 q 650 761 685 802 q 550 708 614 719 m 372 43 q 545 120 485 43 q 606 373 606 197 q 546 630 606 553 q 372 706 485 706 q 197 630 258 706 q 137 377 137 554 q 197 120 137 197 q 372 43 258 43 m 369 -223 q 334 -210 347 -223 q 320 -174 320 -197 q 334 -138 320 -152 q 369 -124 347 -124 q 405 -138 392 -124 q 419 -174 419 -152 q 405 -210 419 -197 q 369 -223 392 -223 z "},"ờ":{"ha":742,"x_min":73,"x_max":685,"o":"m 550 708 q 640 579 610 661 q 670 375 670 497 q 591 82 670 177 q 372 -12 512 -12 q 152 81 231 -12 q 73 375 73 175 q 152 668 73 574 q 372 762 231 762 q 447 758 391 762 q 494 756 483 756 q 595 784 559 756 q 631 871 631 813 q 627 920 631 898 q 615 969 623 943 l 668 969 q 681 921 677 944 q 685 869 685 899 q 650 761 685 802 q 550 708 614 719 m 372 43 q 545 120 485 43 q 606 373 606 197 q 546 630 606 553 q 372 706 485 706 q 197 630 258 706 q 137 377 137 554 q 197 120 137 197 q 372 43 258 43 m 340 876 l 183 1122 l 252 1122 l 397 876 l 340 876 z "},"ở":{"ha":742,"x_min":73,"x_max":685,"o":"m 550 708 q 640 579 610 661 q 670 375 670 497 q 591 82 670 177 q 372 -12 512 -12 q 152 81 231 -12 q 73 375 73 175 q 152 668 73 574 q 372 762 231 762 q 447 758 391 762 q 494 756 483 756 q 595 784 559 756 q 631 871 631 813 q 627 920 631 898 q 615 969 623 943 l 668 969 q 681 921 677 944 q 685 869 685 899 q 650 761 685 802 q 550 708 614 719 m 372 43 q 545 120 485 43 q 606 373 606 197 q 546 630 606 553 q 372 706 485 706 q 197 630 258 706 q 137 377 137 554 q 197 120 137 197 q 372 43 258 43 m 344 876 q 355 921 345 903 q 377 951 365 940 q 411 978 390 963 q 445 1007 435 994 q 456 1036 456 1019 q 435 1075 456 1063 q 369 1088 414 1088 q 313 1084 342 1088 q 262 1072 284 1080 l 262 1114 q 312 1126 283 1122 q 367 1131 340 1131 q 469 1107 436 1131 q 503 1038 503 1083 q 495 1000 503 1016 q 477 975 488 985 q 447 951 466 965 q 407 918 421 933 q 393 876 394 902 l 344 876 z "},"ỡ":{"ha":742,"x_min":73,"x_max":685,"o":"m 274 1007 q 217 995 243 1007 q 169 957 192 983 l 169 1010 q 274 1053 208 1053 q 324 1046 300 1053 q 378 1024 348 1038 q 426 1006 408 1012 q 463 1000 444 1000 q 519 1012 494 1000 q 567 1050 544 1024 l 567 997 q 522 964 549 976 q 462 953 494 953 q 414 960 437 953 q 358 982 391 967 q 311 1001 330 994 q 274 1007 292 1007 m 550 708 q 640 579 610 661 q 670 375 670 497 q 591 82 670 177 q 372 -12 512 -12 q 152 81 231 -12 q 73 375 73 175 q 152 668 73 574 q 372 762 231 762 q 447 758 391 762 q 494 756 483 756 q 595 784 559 756 q 631 871 631 813 q 627 920 631 898 q 615 969 623 943 l 668 969 q 681 921 677 944 q 685 869 685 899 q 650 761 685 802 q 550 708 614 719 m 372 43 q 545 120 485 43 q 606 373 606 197 q 546 630 606 553 q 372 706 485 706 q 197 630 258 706 q 137 377 137 554 q 197 120 137 197 q 372 43 258 43 z "},"ő":{"ha":742,"x_min":73,"x_max":670,"o":"m 372 -12 q 152 81 231 -12 q 73 375 73 175 q 152 668 73 574 q 372 762 231 762 q 591 668 513 762 q 670 375 670 575 q 591 82 670 177 q 372 -12 512 -12 m 372 43 q 545 120 485 43 q 606 373 606 197 q 546 630 606 553 q 372 706 485 706 q 197 630 258 706 q 137 377 137 554 q 197 120 137 197 q 372 43 258 43 m 242 876 l 336 1122 l 392 1122 l 292 876 l 242 876 m 451 876 l 545 1122 l 601 1122 l 501 876 l 451 876 z "},"ȏ":{"ha":742,"x_min":73,"x_max":670,"o":"m 372 -12 q 152 81 231 -12 q 73 375 73 175 q 152 668 73 574 q 372 762 231 762 q 591 668 513 762 q 670 375 670 575 q 591 82 670 177 q 372 -12 512 -12 m 372 43 q 545 120 485 43 q 606 373 606 197 q 546 630 606 553 q 372 706 485 706 q 197 630 258 706 q 137 377 137 554 q 197 120 137 197 q 372 43 258 43 m 184 896 q 236 1058 188 1001 q 370 1115 284 1115 q 506 1057 457 1115 q 559 896 556 1000 l 512 896 q 370 1068 501 1068 q 270 1025 304 1068 q 232 896 236 981 l 184 896 z "},"ō":{"ha":742,"x_min":73,"x_max":670,"o":"m 372 -12 q 152 81 231 -12 q 73 375 73 175 q 152 668 73 574 q 372 762 231 762 q 591 668 513 762 q 670 375 670 575 q 591 82 670 177 q 372 -12 512 -12 m 372 43 q 545 120 485 43 q 606 373 606 197 q 546 630 606 553 q 372 706 485 706 q 197 630 258 706 q 137 377 137 554 q 197 120 137 197 q 372 43 258 43 m 171 964 l 171 1013 l 572 1013 l 572 964 l 171 964 z "},"ṓ":{"ha":742,"x_min":73,"x_max":670,"o":"m 372 -12 q 152 81 231 -12 q 73 375 73 175 q 152 668 73 574 q 372 762 231 762 q 591 668 513 762 q 670 375 670 575 q 591 82 670 177 q 372 -12 512 -12 m 372 43 q 545 120 485 43 q 606 373 606 197 q 546 630 606 553 q 372 706 485 706 q 197 630 258 706 q 137 377 137 554 q 197 120 137 197 q 372 43 258 43 m 171 964 l 171 1013 l 572 1013 l 572 964 l 171 964 m 343 1112 l 465 1303 l 534 1303 l 400 1112 l 343 1112 z "},"ṑ":{"ha":742,"x_min":73,"x_max":670,"o":"m 372 -12 q 152 81 231 -12 q 73 375 73 175 q 152 668 73 574 q 372 762 231 762 q 591 668 513 762 q 670 375 670 575 q 591 82 670 177 q 372 -12 512 -12 m 372 43 q 545 120 485 43 q 606 373 606 197 q 546 630 606 553 q 372 706 485 706 q 197 630 258 706 q 137 377 137 554 q 197 120 137 197 q 372 43 258 43 m 171 964 l 171 1013 l 572 1013 l 572 964 l 171 964 m 343 1112 l 209 1303 l 278 1303 l 400 1112 l 343 1112 z "},"ǫ":{"ha":742,"x_min":73,"x_max":670,"o":"m 469 1 q 351 -67 386 -25 q 315 -157 315 -110 q 339 -218 315 -197 q 405 -240 363 -240 q 497 -217 453 -240 l 510 -253 q 404 -280 461 -280 q 306 -248 342 -280 q 269 -160 269 -217 q 290 -79 269 -117 q 356 -12 312 -41 q 147 88 222 -6 q 73 375 73 181 q 152 668 73 574 q 372 762 231 762 q 591 668 513 762 q 670 375 670 575 q 469 1 670 63 m 137 377 q 197 120 137 197 q 372 43 258 43 q 545 120 485 43 q 606 373 606 197 q 546 630 606 553 q 372 706 485 706 q 197 630 258 706 q 137 377 137 554 z "},"ø":{"ha":742,"x_min":73,"x_max":670,"o":"m 601 656 q 670 375 670 560 q 591 82 670 177 q 372 -12 512 -12 q 175 56 249 -12 l 126 -13 l 86 15 l 142 94 q 73 375 73 192 q 152 668 73 574 q 372 762 231 762 q 567 694 494 762 l 617 764 l 657 736 l 601 656 m 372 707 q 197 631 258 707 q 136 377 136 554 q 180 147 136 230 l 533 644 q 372 707 478 707 m 372 42 q 546 119 485 42 q 606 373 606 196 q 563 604 606 523 l 209 106 q 372 42 265 42 z "},"ǿ":{"ha":742,"x_min":73,"x_max":670,"o":"m 601 656 q 670 375 670 560 q 591 82 670 177 q 372 -12 512 -12 q 175 56 249 -12 l 126 -13 l 86 15 l 142 94 q 73 375 73 192 q 152 668 73 574 q 372 762 231 762 q 567 694 494 762 l 617 764 l 657 736 l 601 656 m 372 707 q 197 631 258 707 q 136 377 136 554 q 180 147 136 230 l 533 644 q 372 707 478 707 m 372 42 q 546 119 485 42 q 606 373 606 196 q 563 604 606 523 l 209 106 q 372 42 265 42 m 339 876 l 485 1122 l 553 1122 l 396 876 l 339 876 z "},"õ":{"ha":742,"x_min":73,"x_max":670,"o":"m 372 -12 q 152 81 231 -12 q 73 375 73 175 q 152 668 73 574 q 372 762 231 762 q 591 668 513 762 q 670 375 670 575 q 591 82 670 177 q 372 -12 512 -12 m 372 43 q 545 120 485 43 q 606 373 606 197 q 546 630 606 553 q 372 706 485 706 q 197 630 258 706 q 137 377 137 554 q 197 120 137 197 q 372 43 258 43 m 466 953 q 418 960 441 953 q 361 982 396 967 q 315 1001 335 994 q 277 1007 296 1007 q 220 995 246 1007 q 171 957 194 983 l 171 1010 q 277 1053 210 1053 q 326 1046 303 1053 q 382 1024 350 1038 q 429 1006 410 1012 q 467 1000 448 1000 q 524 1012 498 1000 q 572 1050 549 1024 l 572 997 q 466 953 533 953 z "},"ṍ":{"ha":742,"x_min":73,"x_max":670,"o":"m 372 -12 q 152 81 231 -12 q 73 375 73 175 q 152 668 73 574 q 372 762 231 762 q 591 668 513 762 q 670 375 670 575 q 591 82 670 177 q 372 -12 512 -12 m 372 43 q 545 120 485 43 q 606 373 606 197 q 546 630 606 553 q 372 706 485 706 q 197 630 258 706 q 137 377 137 554 q 197 120 137 197 q 372 43 258 43 m 466 953 q 418 960 441 953 q 361 982 396 967 q 315 1001 335 994 q 277 1007 296 1007 q 220 995 246 1007 q 171 957 194 983 l 171 1010 q 277 1053 210 1053 q 326 1046 303 1053 q 382 1024 350 1038 q 429 1006 410 1012 q 467 1000 448 1000 q 524 1012 498 1000 q 572 1050 549 1024 l 572 997 q 466 953 533 953 m 349 1125 l 471 1316 l 540 1316 l 406 1125 l 349 1125 z "},"ṏ":{"ha":742,"x_min":73,"x_max":670,"o":"m 372 -12 q 152 81 231 -12 q 73 375 73 175 q 152 668 73 574 q 372 762 231 762 q 591 668 513 762 q 670 375 670 575 q 591 82 670 177 q 372 -12 512 -12 m 372 43 q 545 120 485 43 q 606 373 606 197 q 546 630 606 553 q 372 706 485 706 q 197 630 258 706 q 137 377 137 554 q 197 120 137 197 q 372 43 258 43 m 466 953 q 418 960 441 953 q 361 982 396 967 q 315 1001 335 994 q 277 1007 296 1007 q 220 995 246 1007 q 171 957 194 983 l 171 1010 q 277 1053 210 1053 q 326 1046 303 1053 q 382 1024 350 1038 q 429 1006 410 1012 q 467 1000 448 1000 q 524 1012 498 1000 q 572 1050 549 1024 l 572 997 q 466 953 533 953 m 231 1128 q 195 1142 208 1128 q 181 1177 181 1155 q 195 1213 181 1199 q 231 1227 208 1227 q 266 1213 252 1227 q 279 1177 279 1199 q 266 1142 279 1155 q 231 1128 252 1128 m 513 1128 q 477 1142 491 1128 q 464 1177 464 1155 q 477 1213 464 1199 q 513 1227 491 1227 q 549 1213 535 1227 q 563 1177 563 1199 q 549 1142 563 1155 q 513 1128 535 1128 z "},"ȭ":{"ha":742,"x_min":73,"x_max":670,"o":"m 372 -12 q 152 81 231 -12 q 73 375 73 175 q 152 668 73 574 q 372 762 231 762 q 591 668 513 762 q 670 375 670 575 q 591 82 670 177 q 372 -12 512 -12 m 372 43 q 545 120 485 43 q 606 373 606 197 q 546 630 606 553 q 372 706 485 706 q 197 630 258 706 q 137 377 137 554 q 197 120 137 197 q 372 43 258 43 m 466 953 q 418 960 441 953 q 361 982 396 967 q 315 1001 335 994 q 277 1007 296 1007 q 220 995 246 1007 q 171 957 194 983 l 171 1010 q 277 1053 210 1053 q 326 1046 303 1053 q 382 1024 350 1038 q 429 1006 410 1012 q 467 1000 448 1000 q 524 1012 498 1000 q 572 1050 549 1024 l 572 997 q 466 953 533 953 m 171 1153 l 171 1202 l 572 1202 l 572 1153 l 171 1153 z "},"œ":{"ha":1213,"x_min":73,"x_max":1151,"o":"m 1151 351 l 665 351 q 735 115 668 188 q 933 43 802 43 q 1116 76 1012 43 l 1116 19 q 928 -12 1019 -12 q 739 35 813 -12 q 631 182 665 82 q 533 35 600 83 q 368 -12 465 -12 q 151 82 229 -12 q 73 375 73 176 q 151 668 73 574 q 368 762 229 762 q 534 714 467 762 q 633 567 601 667 q 724 714 660 666 q 881 763 788 763 q 1081 668 1011 763 q 1151 376 1151 574 l 1151 351 m 880 709 q 723 637 778 709 q 665 403 667 565 l 1090 403 q 1033 638 1086 567 q 880 709 980 709 m 369 43 q 541 120 481 43 q 601 373 601 197 q 541 630 601 553 q 369 706 481 706 q 197 630 257 706 q 137 377 137 554 q 197 120 137 198 q 369 43 257 43 z "},"p":{"ha":753,"x_min":115,"x_max":680,"o":"m 115 751 l 169 751 l 174 667 l 179 667 q 269 736 215 710 q 390 762 324 762 q 600 674 521 762 q 680 390 680 585 q 588 86 680 185 q 315 -12 496 -12 q 176 -1 257 -12 l 176 -306 l 115 -306 l 115 751 m 317 43 q 542 124 468 43 q 616 383 616 206 q 554 633 616 560 q 383 706 492 706 q 267 677 322 706 q 176 593 213 649 l 176 58 q 243 47 205 51 q 317 43 281 43 z "},"þ":{"ha":753,"x_min":115,"x_max":680,"o":"m 115 1122 l 176 1122 l 176 670 l 181 670 q 273 737 218 713 q 395 762 328 762 q 602 674 524 762 q 680 390 680 585 q 588 86 680 185 q 315 -12 496 -12 q 176 -1 257 -12 l 176 -306 l 115 -306 l 115 1122 m 317 43 q 542 124 468 43 q 616 383 616 206 q 555 633 616 560 q 385 706 493 706 q 268 678 324 706 q 176 595 213 650 l 176 58 q 243 47 205 51 q 317 43 281 43 z "},"q":{"ha":753,"x_min":73,"x_max":638,"o":"m 576 78 l 572 78 q 480 12 535 37 q 358 -12 425 -12 q 151 76 229 -12 q 73 360 73 164 q 433 762 73 762 q 538 754 485 762 q 638 732 592 746 l 638 -306 l 576 -306 l 576 78 m 367 44 q 484 71 428 44 q 576 151 540 98 l 576 688 q 508 701 547 697 q 428 706 469 706 q 210 625 283 706 q 137 367 137 543 q 198 117 137 190 q 367 44 260 44 z "},"r":{"ha":475,"x_min":115,"x_max":466,"o":"m 115 751 l 168 751 l 173 649 l 179 649 q 281 728 219 700 q 408 757 343 757 q 466 752 440 757 l 466 692 q 406 696 442 696 q 279 665 343 696 q 176 574 215 633 l 176 0 l 115 0 l 115 751 z "},"ŕ":{"ha":475,"x_min":115,"x_max":468,"o":"m 115 751 l 168 751 l 173 649 l 179 649 q 281 728 219 700 q 408 757 343 757 q 466 752 440 757 l 466 692 q 406 696 442 696 q 279 665 343 696 q 176 574 215 633 l 176 0 l 115 0 l 115 751 m 253 876 l 399 1122 l 468 1122 l 310 876 l 253 876 z "},"ř":{"ha":475,"x_min":96,"x_max":469,"o":"m 115 751 l 168 751 l 173 649 l 179 649 q 281 728 219 700 q 408 757 343 757 q 466 752 440 757 l 466 692 q 406 696 442 696 q 279 665 343 696 q 176 574 215 633 l 176 0 l 115 0 l 115 751 m 410 1122 l 469 1122 l 314 876 l 251 876 l 96 1122 l 153 1122 l 282 913 l 410 1122 z "},"ŗ":{"ha":475,"x_min":97,"x_max":466,"o":"m 115 751 l 168 751 l 173 649 l 179 649 q 281 728 219 700 q 408 757 343 757 q 466 752 440 757 l 466 692 q 406 696 442 696 q 279 665 343 696 q 176 574 215 633 l 176 0 l 115 0 l 115 751 m 144 -124 q 182 -141 168 -124 q 196 -188 196 -157 q 187 -249 196 -215 q 163 -314 178 -283 l 124 -314 q 149 -218 145 -260 l 146 -218 q 110 -205 124 -218 q 97 -171 97 -192 q 109 -137 97 -150 q 144 -124 122 -124 z "},"ȑ":{"ha":475,"x_min":51,"x_max":466,"o":"m 115 751 l 168 751 l 173 649 l 179 649 q 281 728 219 700 q 408 757 343 757 q 466 752 440 757 l 466 692 q 406 696 442 696 q 279 665 343 696 q 176 574 215 633 l 176 0 l 115 0 l 115 751 m 151 876 l 51 1122 l 110 1122 l 203 876 l 151 876 m 362 876 l 262 1122 l 321 1122 l 414 876 l 362 876 z "},"ṛ":{"ha":475,"x_min":97,"x_max":466,"o":"m 115 751 l 168 751 l 173 649 l 179 649 q 281 728 219 700 q 408 757 343 757 q 466 752 440 757 l 466 692 q 406 696 442 696 q 279 665 343 696 q 176 574 215 633 l 176 0 l 115 0 l 115 751 m 146 -223 q 110 -210 124 -223 q 97 -174 97 -197 q 110 -138 97 -152 q 146 -124 124 -124 q 182 -138 168 -124 q 195 -174 195 -152 q 182 -210 195 -197 q 146 -223 168 -223 z "},"ȓ":{"ha":475,"x_min":94,"x_max":469,"o":"m 115 751 l 168 751 l 173 649 l 179 649 q 281 728 219 700 q 408 757 343 757 q 466 752 440 757 l 466 692 q 406 696 442 696 q 279 665 343 696 q 176 574 215 633 l 176 0 l 115 0 l 115 751 m 94 896 q 147 1058 99 1001 q 281 1115 194 1115 q 417 1057 367 1115 q 469 896 466 1000 l 422 896 q 281 1068 412 1068 q 181 1025 215 1068 q 142 896 147 981 l 94 896 z "},"ṟ":{"ha":475,"x_min":-33,"x_max":466,"o":"m 115 751 l 168 751 l 173 649 l 179 649 q 281 728 219 700 q 408 757 343 757 q 466 752 440 757 l 466 692 q 406 696 442 696 q 279 665 343 696 q 176 574 215 633 l 176 0 l 115 0 l 115 751 m -33 -199 l -33 -151 l 325 -151 l 325 -199 l -33 -199 z "},"s":{"ha":601,"x_min":70,"x_max":547,"o":"m 275 -12 q 82 16 170 -12 l 82 73 q 182 49 136 56 q 276 42 228 42 q 434 81 383 42 q 485 193 485 119 q 454 288 485 255 q 348 338 422 321 l 256 357 q 114 428 157 379 q 70 556 70 476 q 100 663 70 616 q 191 735 130 709 q 342 762 252 762 q 508 741 428 762 l 508 684 q 424 702 463 697 q 342 707 386 707 q 183 666 234 707 q 132 558 132 625 q 163 466 132 501 q 265 416 193 431 l 356 397 q 503 325 460 373 q 547 197 547 278 q 478 43 547 98 q 275 -12 408 -12 z "},"ś":{"ha":601,"x_min":70,"x_max":547,"o":"m 275 -12 q 82 16 170 -12 l 82 73 q 182 49 136 56 q 276 42 228 42 q 434 81 383 42 q 485 193 485 119 q 454 288 485 255 q 348 338 422 321 l 256 357 q 114 428 157 379 q 70 556 70 476 q 100 663 70 616 q 191 735 130 709 q 342 762 252 762 q 508 741 428 762 l 508 684 q 424 702 463 697 q 342 707 386 707 q 183 666 234 707 q 132 558 132 625 q 163 466 132 501 q 265 416 193 431 l 356 397 q 503 325 460 373 q 547 197 547 278 q 478 43 547 98 q 275 -12 408 -12 m 276 876 l 422 1122 l 491 1122 l 333 876 l 276 876 z "},"ṥ":{"ha":601,"x_min":70,"x_max":547,"o":"m 275 -12 q 82 16 170 -12 l 82 73 q 182 49 136 56 q 276 42 228 42 q 434 81 383 42 q 485 193 485 119 q 454 288 485 255 q 348 338 422 321 l 256 357 q 114 428 157 379 q 70 556 70 476 q 100 663 70 616 q 191 735 130 709 q 342 762 252 762 q 508 741 428 762 l 508 684 q 424 702 463 697 q 342 707 386 707 q 183 666 234 707 q 132 558 132 625 q 163 466 132 501 q 265 416 193 431 l 356 397 q 503 325 460 373 q 547 197 547 278 q 478 43 547 98 q 275 -12 408 -12 m 270 1094 q 235 1107 249 1094 q 222 1141 222 1120 q 235 1175 222 1163 q 270 1188 249 1188 q 306 1175 292 1188 q 319 1141 319 1163 q 306 1107 319 1119 q 270 1094 292 1094 m 276 876 l 422 1122 l 491 1122 l 333 876 l 276 876 z "},"š":{"ha":601,"x_min":70,"x_max":547,"o":"m 275 -12 q 82 16 170 -12 l 82 73 q 182 49 136 56 q 276 42 228 42 q 434 81 383 42 q 485 193 485 119 q 454 288 485 255 q 348 338 422 321 l 256 357 q 114 428 157 379 q 70 556 70 476 q 100 663 70 616 q 191 735 130 709 q 342 762 252 762 q 508 741 428 762 l 508 684 q 424 702 463 697 q 342 707 386 707 q 183 666 234 707 q 132 558 132 625 q 163 466 132 501 q 265 416 193 431 l 356 397 q 503 325 460 373 q 547 197 547 278 q 478 43 547 98 q 275 -12 408 -12 m 433 1122 l 492 1122 l 337 876 l 274 876 l 119 1122 l 176 1122 l 305 913 l 433 1122 z "},"ṧ":{"ha":601,"x_min":70,"x_max":547,"o":"m 275 -12 q 82 16 170 -12 l 82 73 q 182 49 136 56 q 276 42 228 42 q 434 81 383 42 q 485 193 485 119 q 454 288 485 255 q 348 338 422 321 l 256 357 q 114 428 157 379 q 70 556 70 476 q 100 663 70 616 q 191 735 130 709 q 342 762 252 762 q 508 741 428 762 l 508 684 q 424 702 463 697 q 342 707 386 707 q 183 666 234 707 q 132 558 132 625 q 163 466 132 501 q 265 416 193 431 l 356 397 q 503 325 460 373 q 547 197 547 278 q 478 43 547 98 q 275 -12 408 -12 m 305 1122 q 270 1135 283 1122 q 256 1169 256 1148 q 270 1203 256 1190 q 305 1217 283 1217 q 340 1203 326 1217 q 353 1169 353 1190 q 340 1135 353 1147 q 305 1122 327 1122 m 433 1122 l 492 1122 l 337 876 l 274 876 l 119 1122 l 176 1122 l 305 913 l 433 1122 z "},"ş":{"ha":601,"x_min":70,"x_max":547,"o":"m 547 197 q 492 55 547 109 q 329 -10 436 1 l 329 -78 q 407 -108 380 -82 q 435 -178 435 -134 q 401 -253 435 -226 q 308 -280 368 -280 q 247 -273 278 -280 q 194 -255 215 -267 l 194 -212 q 309 -240 248 -240 q 390 -178 390 -240 q 369 -130 390 -145 q 308 -115 349 -115 l 285 -115 l 285 -12 l 275 -12 q 82 16 170 -12 l 82 73 q 182 49 136 56 q 276 42 228 42 q 434 81 383 42 q 485 193 485 119 q 454 288 485 255 q 348 338 422 321 l 256 357 q 114 428 157 379 q 70 556 70 476 q 100 663 70 616 q 191 735 130 709 q 342 762 252 762 q 508 741 428 762 l 508 684 q 424 702 463 697 q 342 707 386 707 q 183 666 234 707 q 132 558 132 625 q 163 466 132 501 q 265 416 193 431 l 356 397 q 503 325 460 373 q 547 197 547 278 z "},"ŝ":{"ha":601,"x_min":70,"x_max":547,"o":"m 275 -12 q 82 16 170 -12 l 82 73 q 182 49 136 56 q 276 42 228 42 q 434 81 383 42 q 485 193 485 119 q 454 288 485 255 q 348 338 422 321 l 256 357 q 114 428 157 379 q 70 556 70 476 q 100 663 70 616 q 191 735 130 709 q 342 762 252 762 q 508 741 428 762 l 508 684 q 424 702 463 697 q 342 707 386 707 q 183 666 234 707 q 132 558 132 625 q 163 466 132 501 q 265 416 193 431 l 356 397 q 503 325 460 373 q 547 197 547 278 q 478 43 547 98 q 275 -12 408 -12 m 489 876 l 431 876 l 305 1084 l 179 876 l 122 876 l 274 1122 l 337 1122 l 489 876 z "},"ș":{"ha":601,"x_min":70,"x_max":547,"o":"m 275 -12 q 82 16 170 -12 l 82 73 q 182 49 136 56 q 276 42 228 42 q 434 81 383 42 q 485 193 485 119 q 454 288 485 255 q 348 338 422 321 l 256 357 q 114 428 157 379 q 70 556 70 476 q 100 663 70 616 q 191 735 130 709 q 342 762 252 762 q 508 741 428 762 l 508 684 q 424 702 463 697 q 342 707 386 707 q 183 666 234 707 q 132 558 132 625 q 163 466 132 501 q 265 416 193 431 l 356 397 q 503 325 460 373 q 547 197 547 278 q 478 43 547 98 q 275 -12 408 -12 m 303 -124 q 341 -141 327 -124 q 355 -188 355 -157 q 346 -249 355 -215 q 322 -314 338 -283 l 283 -314 q 308 -218 304 -260 l 305 -218 q 269 -205 283 -218 q 256 -171 256 -192 q 268 -137 256 -150 q 303 -124 281 -124 z "},"ṡ":{"ha":601,"x_min":70,"x_max":547,"o":"m 275 -12 q 82 16 170 -12 l 82 73 q 182 49 136 56 q 276 42 228 42 q 434 81 383 42 q 485 193 485 119 q 454 288 485 255 q 348 338 422 321 l 256 357 q 114 428 157 379 q 70 556 70 476 q 100 663 70 616 q 191 735 130 709 q 342 762 252 762 q 508 741 428 762 l 508 684 q 424 702 463 697 q 342 707 386 707 q 183 666 234 707 q 132 558 132 625 q 163 466 132 501 q 265 416 193 431 l 356 397 q 503 325 460 373 q 547 197 547 278 q 478 43 547 98 q 275 -12 408 -12 m 305 938 q 268 951 282 938 q 255 988 255 965 q 268 1024 255 1010 q 305 1038 282 1038 q 342 1024 328 1038 q 356 988 356 1010 q 342 951 356 965 q 305 938 328 938 z "},"ṣ":{"ha":601,"x_min":70,"x_max":547,"o":"m 275 -12 q 82 16 170 -12 l 82 73 q 182 49 136 56 q 276 42 228 42 q 434 81 383 42 q 485 193 485 119 q 454 288 485 255 q 348 338 422 321 l 256 357 q 114 428 157 379 q 70 556 70 476 q 100 663 70 616 q 191 735 130 709 q 342 762 252 762 q 508 741 428 762 l 508 684 q 424 702 463 697 q 342 707 386 707 q 183 666 234 707 q 132 558 132 625 q 163 466 132 501 q 265 416 193 431 l 356 397 q 503 325 460 373 q 547 197 547 278 q 478 43 547 98 q 275 -12 408 -12 m 305 -223 q 269 -210 283 -223 q 256 -174 256 -197 q 269 -138 256 -152 q 305 -124 283 -124 q 341 -138 327 -124 q 354 -174 354 -152 q 341 -210 354 -197 q 305 -223 327 -223 z "},"ṩ":{"ha":601,"x_min":70,"x_max":547,"o":"m 275 -12 q 82 16 170 -12 l 82 73 q 182 49 136 56 q 276 42 228 42 q 434 81 383 42 q 485 193 485 119 q 454 288 485 255 q 348 338 422 321 l 256 357 q 114 428 157 379 q 70 556 70 476 q 100 663 70 616 q 191 735 130 709 q 342 762 252 762 q 508 741 428 762 l 508 684 q 424 702 463 697 q 342 707 386 707 q 183 666 234 707 q 132 558 132 625 q 163 466 132 501 q 265 416 193 431 l 356 397 q 503 325 460 373 q 547 197 547 278 q 478 43 547 98 q 275 -12 408 -12 m 305 -223 q 269 -210 283 -223 q 256 -174 256 -197 q 269 -138 256 -152 q 305 -124 283 -124 q 341 -138 327 -124 q 354 -174 354 -152 q 341 -210 354 -197 q 305 -223 327 -223 m 305 938 q 268 951 282 938 q 255 988 255 965 q 268 1024 255 1010 q 305 1038 282 1038 q 342 1024 328 1038 q 356 988 356 1010 q 342 951 356 965 q 305 938 328 938 z "},"ß":{"ha":910,"x_min":11,"x_max":856,"o":"m 665 397 q 812 325 769 373 q 856 197 856 278 q 786 43 856 98 q 584 -12 717 -12 q 390 15 478 -12 l 390 72 q 490 49 444 56 q 584 42 536 42 q 743 81 691 42 q 794 193 794 119 q 763 288 794 255 q 656 338 731 321 l 564 357 q 422 428 465 379 q 378 554 378 476 q 408 661 378 615 q 499 734 438 708 q 649 760 560 760 q 710 757 683 760 q 716 835 716 797 q 652 1024 716 966 q 478 1082 588 1082 q 288 1013 353 1082 q 222 790 222 944 l 222 0 l 161 0 l 161 694 l 11 694 l 11 751 l 161 751 l 161 794 q 243 1051 161 966 q 477 1136 325 1136 q 629 1105 563 1136 q 733 1005 695 1073 q 770 834 770 938 q 765 763 770 801 q 753 697 760 724 q 706 704 728 701 q 652 707 684 707 q 492 666 543 707 q 440 558 440 625 q 471 467 440 501 q 573 416 502 432 l 665 397 z "},"t":{"ha":490,"x_min":6,"x_max":485,"o":"m 388 44 q 485 57 432 44 l 485 -1 q 380 -12 433 -12 q 156 220 156 -12 l 156 696 l 6 696 l 6 751 l 156 751 l 164 1028 l 217 1028 l 217 751 l 470 751 l 470 696 l 217 696 l 217 231 q 259 88 217 131 q 388 44 301 44 z "},"ŧ":{"ha":490,"x_min":6,"x_max":485,"o":"m 388 44 q 485 57 432 44 l 485 -1 q 380 -12 433 -12 q 156 220 156 -12 l 156 430 l 47 430 l 47 479 l 156 479 l 156 696 l 6 696 l 6 751 l 156 751 l 164 1028 l 217 1028 l 217 751 l 470 751 l 470 696 l 217 696 l 217 479 l 437 479 l 437 430 l 217 430 l 217 231 q 259 88 217 131 q 388 44 301 44 z "},"ť":{"ha":490,"x_min":6,"x_max":485,"o":"m 388 44 q 485 57 432 44 l 485 -1 q 380 -12 433 -12 q 156 220 156 -12 l 156 696 l 6 696 l 6 751 l 156 751 l 164 1028 l 217 1028 l 217 751 l 470 751 l 470 696 l 217 696 l 217 231 q 259 88 217 131 q 388 44 301 44 m 340 819 q 353 1122 353 929 l 406 1122 q 379 819 406 947 l 340 819 z "},"ţ":{"ha":490,"x_min":6,"x_max":485,"o":"m 380 -12 q 344 -11 367 -12 l 344 -78 q 423 -108 395 -82 q 450 -178 450 -134 q 417 -253 450 -226 q 324 -280 383 -280 q 262 -273 293 -280 q 209 -255 231 -267 l 209 -212 q 324 -240 263 -240 q 406 -178 406 -240 q 385 -130 406 -145 q 323 -115 364 -115 l 300 -115 l 300 -3 q 156 220 156 34 l 156 696 l 6 696 l 6 751 l 156 751 l 164 1028 l 217 1028 l 217 751 l 470 751 l 470 696 l 217 696 l 217 231 q 259 88 217 131 q 388 44 301 44 q 485 57 432 44 l 485 -1 q 380 -12 433 -12 z "}}}
